SplineFontDB: 3.0
FontName: Exo-BoldItalic
FullName: Exo Bold Italic
FamilyName: Exo
Weight: Bold
Copyright: Copyright (c) 2011 Natanael Gama (exo@ndiscovered.com), with Reserved Font Name "Exo"
Version: 1.00
ItalicAngle: 0
UnderlinePosition: -50
UnderlineWidth: 50
Ascent: 800
Descent: 200
sfntRevision: 0x00010000
LayerCount: 2
Layer: 0 1 "Back"  1
Layer: 1 1 "Fore"  0
XUID: [1021 879 791539637 8415365]
FSType: 0
OS2Version: 4
OS2_WeightWidthSlopeOnly: 0
OS2_UseTypoMetrics: 1
CreationTime: 1317848288
ModificationTime: 1328305022
PfmFamily: 17
TTFWeight: 700
TTFWidth: 5
LineGap: 0
VLineGap: 0
Panose: 2 0 8 3 0 0 0 0 0 0
OS2TypoAscent: 202
OS2TypoAOffset: 1
OS2TypoDescent: -127
OS2TypoDOffset: 1
OS2TypoLinegap: 0
OS2WinAscent: 3
OS2WinAOffset: 1
OS2WinDescent: 34
OS2WinDOffset: 1
HheadAscent: 3
HheadAOffset: 1
HheadDescent: -34
HheadDOffset: 1
OS2SubXSize: 650
OS2SubYSize: 700
OS2SubXOff: 0
OS2SubYOff: 140
OS2SupXSize: 650
OS2SupYSize: 700
OS2SupXOff: 0
OS2SupYOff: 480
OS2StrikeYSize: 49
OS2StrikeYPos: 258
OS2Vendor: 'PfEd'
OS2CodePages: 20000093.00000000
OS2UnicodeRanges: a00000ef.4000204b.00000000.00000000
Lookup: 4 0 0 "'ordn' Ordinals lookup 0"  {"'ordn' Ordinals lookup 0 subtable"  } ['ordn' ('DFLT' <'dflt' > 'grek' <'dflt' > 'latn' <'dflt' > ) ]
Lookup: 1 0 0 "'smcp' Lowercase to Small Capitals lookup 1"  {"'smcp' Lowercase to Small Capitals lookup 1 subtable"  } ['smcp' ('DFLT' <'dflt' > 'grek' <'dflt' > 'latn' <'FRA ' 'dflt' > ) ]
Lookup: 1 0 0 "'c2sc' Capitals to Small Capitals in Latin lookup 2"  {"'c2sc' Capitals to Small Capitals in Latin lookup 2 subtable"  } ['c2sc' ('latn' <'dflt' > ) ]
Lookup: 4 0 0 "'dlig' Discretionary Ligatures lookup 3"  {"'dlig' Discretionary Ligatures lookup 3 subtable"  } ['dlig' ('DFLT' <'dflt' > 'grek' <'dflt' > 'latn' <'dflt' > ) ]
Lookup: 4 0 1 "'liga' Standard Ligatures lookup 4"  {"'liga' Standard Ligatures lookup 4 subtable"  } ['liga' ('DFLT' <'dflt' > 'grek' <'dflt' > 'latn' <'FRA ' 'dflt' > ) ]

StartChar: .notdef
Encoding: 0 -1 0
AltUni2: 000000.ffffffff.0
Width: 758
Flags: W
LayerCount: 2
Fore
SplineSet
100 0 m 1,0,-1
 100 531 l 1,1,-1
 658 531 l 1,2,-1
 658 0 l 1,3,-1
 100 0 l 1,0,-1
114 22 m 1,4,-1
 370 266 l 1,5,-1
 114 507 l 1,6,-1
 114 22 l 1,4,-1
124 518 m 1,7,-1
 381 276 l 1,8,-1
 635 518 l 1,9,-1
 124 518 l 1,7,-1
127 13 m 1,10,-1
 634 13 l 1,11,-1
 381 256 l 1,12,-1
 127 13 l 1,10,-1
392 266 m 1,13,-1
 644 25 l 1,14,-1
 644 506 l 1,15,-1
 392 266 l 1,13,-1
EndSplineSet
EndChar

StartChar: exclam
Encoding: 33 33 4
Width: 271
GlyphClass: 2
Flags: W
LayerCount: 2
Fore
SplineSet
112 138 m 2,0,-1
 200 138 l 2,1,2
 223 138 223 138 219 113 c 2,3,-1
 205 23 l 2,4,5
 202 0 202 0 179 0 c 2,6,-1
 91 0 l 2,7,8
 80 0 80 0 74 6.5 c 128,-1,9
 68 13 68 13 70 23 c 2,10,-1
 84 113 l 2,11,12
 87 138 87 138 112 138 c 2,0,-1
107 198 m 1,13,-1
 178 731 l 1,14,-1
 319 731 l 1,15,-1
 221 198 l 1,16,-1
 107 198 l 1,13,-1
EndSplineSet
Substitution2: "'smcp' Lowercase to Small Capitals lookup 1 subtable" exclam.smcp
EndChar

StartChar: quotedbl
Encoding: 34 34 5
Width: 444
GlyphClass: 2
Flags: W
LayerCount: 2
Fore
SplineSet
160 531 m 1,0,-1
 170 665 l 1,1,-1
 181 732 l 1,2,-1
 316 732 l 1,3,-1
 305 665 l 1,4,-1
 274 531 l 1,5,-1
 160 531 l 1,0,-1
340 531 m 1,6,-1
 350 665 l 1,7,-1
 361 732 l 1,8,-1
 496 732 l 1,9,-1
 485 665 l 1,10,-1
 454 531 l 1,11,-1
 340 531 l 1,6,-1
EndSplineSet
Substitution2: "'smcp' Lowercase to Small Capitals lookup 1 subtable" quotedbl.smcp
EndChar

StartChar: numbersign
Encoding: 35 35 6
Width: 721
GlyphClass: 2
Flags: W
LayerCount: 2
Fore
SplineSet
48 210 m 1,0,-1
 78 306 l 1,1,-1
 230 306 l 1,2,-1
 269 427 l 1,3,-1
 116 427 l 1,4,-1
 147 523 l 1,5,-1
 303 523 l 1,6,-1
 373 732 l 1,7,-1
 469 732 l 1,8,-1
 399 523 l 1,9,-1
 522 523 l 1,10,-1
 591 732 l 1,11,-1
 687 732 l 1,12,-1
 618 523 l 1,13,-1
 789 523 l 1,14,-1
 759 427 l 1,15,-1
 587 427 l 1,16,-1
 548 305 l 1,17,-1
 720 305 l 1,18,-1
 691 209 l 1,19,-1
 513 209 l 1,20,-1
 442 0 l 1,21,-1
 346 0 l 1,22,-1
 417 209 l 1,23,-1
 293 210 l 1,24,-1
 223 0 l 1,25,-1
 127 0 l 1,26,-1
 197 210 l 1,27,-1
 48 210 l 1,0,-1
326 306 m 1,28,-1
 452 305 l 1,29,-1
 491 427 l 1,30,-1
 365 427 l 1,31,-1
 326 306 l 1,28,-1
EndSplineSet
Substitution2: "'smcp' Lowercase to Small Capitals lookup 1 subtable" numbersign.smcp
EndChar

StartChar: dollar
Encoding: 36 36 7
Width: 569
GlyphClass: 2
Flags: W
LayerCount: 2
Fore
SplineSet
426 255 m 0,0,1
 426 292 426 292 368 292 c 2,2,-1
 276 292 l 2,3,4
 195 292 195 292 159 332 c 256,5,6
 123 372 123 372 118 419 c 0,7,8
 116 441 116 441 116 460.5 c 128,-1,9
 116 480 116 480 119 500 c 2,10,-1
 128 563 l 1,11,12
 146 680 146 680 234 716 c 0,13,14
 282 736 282 736 354 738 c 1,15,-1
 368 824 l 1,16,-1
 453 824 l 1,17,-1
 440 737 l 1,18,19
 532 731 532 731 614 709 c 1,20,-1
 597 600 l 1,21,22
 453 610 453 610 400 610 c 128,-1,23
 347 610 347 610 331.5 607.5 c 128,-1,24
 316 605 316 605 302 597 c 0,25,26
 274 583 274 583 266 538 c 1,27,-1
 261 502 l 2,28,29
 259 491 259 491 259 475 c 128,-1,30
 259 459 259 459 270.5 445.5 c 128,-1,31
 282 432 282 432 330 432 c 2,32,-1
 423 432 l 2,33,34
 465 432 465 432 495.5 418 c 128,-1,35
 526 404 526 404 540 382 c 0,36,37
 570 336 570 336 570 286 c 0,38,39
 570 270 570 270 566 224 c 1,40,-1
 558 175 l 1,41,42
 538 46 538 46 441 9 c 0,43,44
 394 -8 394 -8 331 -8 c 0,45,46
 327 -8 327 -8 322 -8 c 1,47,-1
 309 -90 l 1,48,-1
 224 -90 l 1,49,-1
 237 -6 l 1,50,51
 145 -1 145 -1 68 22 c 1,52,-1
 86 129 l 1,53,54
 242 120 242 120 318 120 c 0,55,56
 408 120 408 120 418 184 c 2,57,-1
 424 223 l 2,58,59
 426 241 426 241 426 255 c 0,0,1
EndSplineSet
Substitution2: "'smcp' Lowercase to Small Capitals lookup 1 subtable" dollar.smcp
EndChar

StartChar: percent
Encoding: 37 37 8
Width: 964
GlyphClass: 2
Flags: W
LayerCount: 2
Fore
SplineSet
281 732 m 2,0,-1
 382 732 l 2,1,2
 497 732 497 732 497 630 c 0,3,4
 497 614 497 614 494 595 c 2,5,-1
 475 473 l 2,6,7
 464 405 464 405 430 377 c 128,-1,8
 396 349 396 349 320 349 c 2,9,-1
 219 349 l 2,10,11
 155 349 155 349 126 386 c 0,12,13
 104 414 104 414 104 456 c 0,14,15
 104 471 104 471 107 488 c 2,16,-1
 126 610 l 2,17,18
 136 675 136 675 170 703.5 c 128,-1,19
 204 732 204 732 281 732 c 2,0,-1
208 496 m 2,20,21
 206 486 206 486 206 476 c 128,-1,22
 206 466 206 466 211 459 c 0,23,24
 219 447 219 447 248 447 c 2,25,-1
 321 447 l 2,26,27
 361 447 361 447 372 468 c 0,28,29
 377 478 377 478 380 496 c 2,30,-1
 393 585 l 2,31,32
 397 617 397 617 391 624 c 0,33,34
 381 634 381 634 353 634 c 2,35,-1
 279 634 l 2,36,37
 242 634 242 634 231 615 c 1,38,39
 224 605 224 605 221 585 c 2,40,-1
 208 496 l 2,20,21
206 0 m 1,41,-1
 769 732 l 1,42,-1
 869 732 l 1,43,-1
 310 0 l 1,44,-1
 206 0 l 1,41,-1
760 385 m 2,45,-1
 862 385 l 2,46,47
 976 385 976 385 976 280 c 0,48,49
 976 264 976 264 974 246 c 2,50,-1
 955 124 l 2,51,52
 945 57 945 57 910 29.5 c 128,-1,53
 875 2 875 2 799 2 c 2,54,-1
 698 2 l 2,55,56
 633 2 633 2 605 37 c 0,57,58
 584 64 584 64 584 106 c 0,59,60
 584 121 584 121 587 138 c 2,61,-1
 606 260 l 2,62,63
 616 324 616 324 648 353 c 0,64,65
 682 385 682 385 760 385 c 2,45,-1
687 149 m 2,66,67
 686 139 686 139 686 132.5 c 128,-1,68
 686 126 686 126 687 118 c 0,69,70
 691 100 691 100 728 100 c 2,71,-1
 800 100 l 2,72,73
 831 100 831 100 843 111 c 128,-1,74
 855 122 855 122 859 149 c 2,75,-1
 873 238 l 2,76,77
 875 249 875 249 875 260 c 128,-1,78
 875 271 875 271 868 279 c 128,-1,79
 861 287 861 287 832 287 c 2,80,-1
 759 287 l 2,81,82
 730 287 730 287 717.5 276.5 c 128,-1,83
 705 266 705 266 701 238 c 2,84,-1
 687 149 l 2,66,67
EndSplineSet
Substitution2: "'smcp' Lowercase to Small Capitals lookup 1 subtable" percent.smcp
EndChar

StartChar: ampersand
Encoding: 38 38 9
Width: 672
GlyphClass: 2
Flags: W
LayerCount: 2
Fore
SplineSet
54 187 m 0,0,1
 54 287 54 287 158 365 c 2,2,-1
 249 434 l 1,3,-1
 209 504 l 1,4,5
 187 546 187 546 187 583 c 0,6,7
 187 644 187 644 235 690 c 1,8,9
 271 723 271 723 315 729 c 1,10,11
 354 736 354 736 381.5 736 c 128,-1,12
 409 736 409 736 444 734 c 0,13,14
 509 731 509 731 599 710 c 1,15,-1
 583 609 l 1,16,-1
 418 609 l 2,17,18
 376 609 376 609 355.5 600.5 c 128,-1,19
 335 592 335 592 335 569.5 c 128,-1,20
 335 547 335 547 357 511 c 2,21,-1
 492 278 l 1,22,-1
 627 395 l 1,23,-1
 669 337 l 1,24,-1
 598 216 l 1,25,-1
 552 172 l 1,26,-1
 651 0 l 1,27,-1
 498 0 l 1,28,-1
 444 94 l 1,29,-1
 369 34 l 2,30,31
 319 -7 319 -7 250 -7 c 0,32,33
 211 -7 211 -7 171 9 c 0,34,35
 116 31 116 31 85 83 c 128,-1,36
 54 135 54 135 54 187 c 0,0,1
321 144 m 1,37,-1
 382 197 l 1,38,-1
 304 328 l 1,39,-1
 239 280 l 1,40,41
 186 239 186 239 186 199 c 0,42,43
 186 179 186 179 199 159 c 0,44,45
 224 121 224 121 257.5 121 c 128,-1,46
 291 121 291 121 321 144 c 1,37,-1
EndSplineSet
AlternateSubs2: "'salt' Stylistic Alternatives in Latin lookup 16 subtable" ampersand.salt
Substitution2: "'smcp' Lowercase to Small Capitals lookup 1 subtable" ampersand.smcp
EndChar

StartChar: quotesingle
Encoding: 39 39 10
Width: 224
GlyphClass: 2
Flags: W
LayerCount: 2
Fore
SplineSet
137 531 m 1,0,-1
 147 665 l 1,1,-1
 158 732 l 1,2,-1
 299 732 l 1,3,-1
 288 665 l 1,4,-1
 257 531 l 1,5,-1
 137 531 l 1,0,-1
EndSplineSet
Substitution2: "'smcp' Lowercase to Small Capitals lookup 1 subtable" quotesingle.smcp
EndChar

StartChar: parenleft
Encoding: 40 40 11
Width: 377
GlyphClass: 2
Flags: W
LayerCount: 2
Fore
SplineSet
295 462.5 m 128,-1,1
 263 376 263 376 249 293.5 c 128,-1,2
 235 211 235 211 235 169 c 0,3,4
 235 46 235 46 252 -26 c 0,5,6
 280 -152 280 -152 316 -218 c 1,7,-1
 329 -243 l 1,8,-1
 199 -243 l 1,9,10
 151 -181 151 -181 120 -58 c 1,11,12
 95 37 95 37 95 145 c 0,13,14
 95 299 95 299 140 444 c 0,15,16
 173 551 173 551 233 655 c 0,17,18
 269 718 269 718 306 762 c 128,-1,19
 343 806 343 806 354 816 c 2,20,-1
 366 827 l 1,21,-1
 499 827 l 1,22,23
 472 794 472 794 430.5 731 c 128,-1,24
 389 668 389 668 358 608.5 c 128,-1,0
 327 549 327 549 295 462.5 c 128,-1,1
EndSplineSet
Substitution2: "'case' Case-Sensitive Forms lookup 18 subtable" parenleft.alt
Substitution2: "'c2sc' Capitals to Small Capitals in Latin lookup 2 subtable" parenleft.smcp
Substitution2: "'smcp' Lowercase to Small Capitals lookup 1 subtable" parenleft.smcp
EndChar

StartChar: parenright
Encoding: 41 41 12
Width: 378
GlyphClass: 2
Flags: W
LayerCount: 2
Fore
SplineSet
185.5 117 m 128,-1,1
 218 205 218 205 231.5 287 c 128,-1,2
 245 369 245 369 245 410 c 128,-1,3
 245 451 245 451 243.5 497.5 c 128,-1,4
 242 544 242 544 227 611 c 0,5,6
 200 731 200 731 165 800 c 1,7,-1
 152 827 l 1,8,-1
 282 827 l 1,9,10
 329 760 329 760 360 635 c 0,11,12
 385 537 385 537 385 429 c 0,13,14
 385 258 385 258 325 86 c 0,15,16
 294 -4 294 -4 261 -61 c 0,17,18
 193 -180 193 -180 146 -224 c 1,19,-1
 127 -243 l 1,20,-1
 -18 -243 l 1,21,22
 9 -212 9 -212 50 -150.5 c 128,-1,23
 91 -89 91 -89 122 -30 c 128,-1,0
 153 29 153 29 185.5 117 c 128,-1,1
EndSplineSet
Substitution2: "'case' Case-Sensitive Forms lookup 18 subtable" parenright.alt
Substitution2: "'c2sc' Capitals to Small Capitals in Latin lookup 2 subtable" parenright.smcp
Substitution2: "'smcp' Lowercase to Small Capitals lookup 1 subtable" parenright.smcp
EndChar

StartChar: asterisk
Encoding: 42 42 13
Width: 427
GlyphClass: 2
Flags: W
LayerCount: 2
Fore
SplineSet
127 566 m 1,0,-1
 136 622 l 1,1,-1
 279 646 l 1,2,-1
 270 561 l 1,3,-1
 127 566 l 1,0,-1
160 416 m 1,4,-1
 206 553 l 1,5,-1
 286 532 l 1,6,-1
 211 399 l 1,7,-1
 160 416 l 1,4,-1
264 467 m 1,8,-1
 322 538 l 1,9,-1
 419 448 l 1,10,-1
 380 403 l 1,11,-1
 264 467 l 1,8,-1
279 720 m 1,12,-1
 336 739 l 1,13,-1
 384 617 l 1,14,-1
 300 584 l 1,15,-1
 279 720 l 1,12,-1
329 571 m 1,16,-1
 461 650 l 1,17,-1
 485 603 l 1,18,-1
 373 506 l 1,19,-1
 329 571 l 1,16,-1
EndSplineSet
Substitution2: "'smcp' Lowercase to Small Capitals lookup 1 subtable" asterisk.smcp
EndChar

StartChar: plus
Encoding: 43 43 14
Width: 483
GlyphClass: 2
Flags: W
LayerCount: 2
Fore
SplineSet
80 297 m 1,0,-1
 99 415 l 1,1,-1
 247 415 l 1,2,-1
 270 564 l 1,3,-1
 388 564 l 1,4,-1
 365 415 l 1,5,-1
 515 415 l 1,6,-1
 496 297 l 1,7,-1
 346 297 l 1,8,-1
 322 148 l 1,9,-1
 204 148 l 1,10,-1
 228 297 l 1,11,-1
 80 297 l 1,0,-1
EndSplineSet
EndChar

StartChar: comma
Encoding: 44 44 15
Width: 260
GlyphClass: 2
Flags: W
LayerCount: 2
Fore
SplineSet
90 0 m 2,0,1
 79 0 79 0 72.5 6.5 c 128,-1,2
 66 13 66 13 69 25 c 1,3,-1
 82 112 l 2,4,5
 87 139 87 139 112 139 c 2,6,-1
 196 139 l 2,7,8
 216 139 216 139 216 119 c 0,9,10
 216 116 216 116 215 112 c 2,11,-1
 196 -11 l 2,12,13
 191 -42 191 -42 174.5 -61.5 c 128,-1,14
 158 -81 158 -81 139 -86 c 0,15,16
 114 -93 114 -93 96 -93 c 128,-1,17
 78 -93 78 -93 68 -91 c 2,18,-1
 56 -88 l 1,19,-1
 63 -40 l 1,20,21
 77 -40 77 -40 85 -35 c 128,-1,22
 93 -30 93 -30 95 -26 c 128,-1,23
 97 -22 97 -22 98 -14 c 2,24,-1
 101 0 l 1,25,-1
 90 0 l 2,0,1
EndSplineSet
EndChar

StartChar: hyphen
Encoding: 45 45 16
Width: 353
GlyphClass: 2
Flags: W
LayerCount: 2
Fore
SplineSet
61 231 m 1,0,-1
 79 349 l 1,1,-1
 393 349 l 1,2,-1
 375 231 l 1,3,-1
 61 231 l 1,0,-1
EndSplineSet
Substitution2: "'case' Case-Sensitive Forms lookup 18 subtable" hyphen.alt
Substitution2: "'c2sc' Capitals to Small Capitals in Latin lookup 2 subtable" hyphen.smcp
Substitution2: "'smcp' Lowercase to Small Capitals lookup 1 subtable" hyphen.smcp
EndChar

StartChar: period
Encoding: 46 46 17
Width: 262
GlyphClass: 2
Flags: W
LayerCount: 2
Fore
SplineSet
110 138 m 2,0,-1
 196 138 l 2,1,2
 218 138 218 138 218 120 c 0,3,4
 218 117 218 117 217 113 c 2,5,-1
 203 23 l 2,6,7
 199 0 199 0 175 0 c 2,8,-1
 89 0 l 2,9,10
 78 0 78 0 72 6.5 c 128,-1,11
 66 13 66 13 68 23 c 2,12,-1
 82 113 l 2,13,14
 85 138 85 138 110 138 c 2,0,-1
EndSplineSet
EndChar

StartChar: slash
Encoding: 47 47 18
Width: 456
GlyphClass: 2
Flags: W
LayerCount: 2
Fore
SplineSet
4 -72 m 1,0,-1
 418 770 l 1,1,-1
 563 770 l 1,2,-1
 149 -72 l 1,3,-1
 4 -72 l 1,0,-1
EndSplineSet
Substitution2: "'numr' Numerators in Latin lookup 13 subtable" fraction
Substitution2: "'frac' Diagonal Fractions lookup 6 subtable" fraction
EndChar

StartChar: zero
Encoding: 48 48 19
Width: 629
GlyphClass: 2
Flags: W
LayerCount: 2
Fore
SplineSet
341 732 m 2,0,-1
 505 732 l 2,1,2
 554 732 554 732 589 717 c 128,-1,3
 624 702 624 702 641 677 c 0,4,5
 668 636 668 636 668 587 c 0,6,7
 668 571 668 571 665 554 c 2,8,-1
 605 178 l 2,9,10
 591 88 591 88 543.5 44 c 128,-1,11
 496 0 496 0 411 0 c 2,12,-1
 247 0 l 2,13,14
 159 0 159 0 113 46 c 0,15,16
 77 81 77 81 77 141 c 0,17,18
 77 158 77 158 80 178 c 2,19,-1
 139 548 l 2,20,21
 154 641 154 641 203.5 686.5 c 128,-1,22
 253 732 253 732 341 732 c 2,0,-1
224 201 m 2,23,24
 222 190 222 190 222 180 c 128,-1,25
 222 170 222 170 223.5 163 c 128,-1,26
 225 156 225 156 228.5 150.5 c 128,-1,27
 232 145 232 145 235 141.5 c 128,-1,28
 238 138 238 138 243.5 135.5 c 128,-1,29
 249 133 249 133 253.5 131.5 c 128,-1,30
 258 130 258 130 265 130 c 0,31,32
 274 129 274 129 288 129 c 2,33,-1
 385 129 l 2,34,35
 421 129 421 129 441.5 145 c 128,-1,36
 462 161 462 161 468 200 c 2,37,-1
 521 532 l 2,38,39
 523 543 523 543 523 559 c 128,-1,40
 523 575 523 575 512 589 c 128,-1,41
 501 603 501 603 464 603 c 2,42,-1
 359 603 l 2,43,44
 287 603 287 603 276 532 c 2,45,-1
 224 201 l 2,23,24
EndSplineSet
Substitution2: "'dnom' Denominators in Latin lookup 19 subtable" zero.denominator
Substitution2: "'sups' Superscript lookup 17 subtable" zerosuperior
Substitution2: "'onum' Oldstyle Figures in Latin lookup 15 subtable" zero.oldstyle
Substitution2: "'tnum' Tabular Numbers in Latin lookup 14 subtable" zero.tnum
Substitution2: "'numr' Numerators in Latin lookup 13 subtable" zero.numerator
Substitution2: "'zero' Slashed Zero lookup 12 subtable" uni0338
Substitution2: "'sinf' Scientific Inferiors lookup 11 subtable" zeroinferior
Substitution2: "'frac' Diagonal Fractions lookup 5 subtable" zero.numerator
Substitution2: "'smcp' Lowercase to Small Capitals lookup 1 subtable" zero.smcp
EndChar

StartChar: one
Encoding: 49 49 20
Width: 370
GlyphClass: 2
Flags: W
LayerCount: 2
Fore
SplineSet
118 558 m 1,0,-1
 132 649 l 1,1,2
 164 649 164 649 214.5 678 c 128,-1,3
 265 707 265 707 287 732 c 1,4,-1
 425 732 l 1,5,-1
 310 0 l 1,6,-1
 170 0 l 1,7,-1
 264 588 l 1,8,9
 220 558 220 558 118 558 c 1,0,-1
EndSplineSet
Substitution2: "'dnom' Denominators in Latin lookup 19 subtable" one.denominator
Substitution2: "'sups' Superscript lookup 17 subtable" onesuperior
Substitution2: "'onum' Oldstyle Figures in Latin lookup 15 subtable" one.oldstyle
Substitution2: "'tnum' Tabular Numbers in Latin lookup 14 subtable" one.tnum
Substitution2: "'numr' Numerators in Latin lookup 13 subtable" one.numerator
Substitution2: "'sinf' Scientific Inferiors lookup 11 subtable" oneinferior
Substitution2: "'frac' Diagonal Fractions lookup 5 subtable" one.numerator
Substitution2: "'smcp' Lowercase to Small Capitals lookup 1 subtable" one.smcp
EndChar

StartChar: two
Encoding: 50 50 21
Width: 586
GlyphClass: 2
Flags: W
LayerCount: 2
Fore
SplineSet
495 539 m 0,0,1
 495 572 495 572 473 592 c 128,-1,2
 451 612 451 612 386 612 c 2,3,-1
 127 612 l 1,4,-1
 144 716 l 1,5,6
 296 742 296 742 447 742 c 0,7,8
 517 742 517 742 563 708 c 0,9,10
 635 654 635 654 635 547 c 0,11,12
 635 486 635 486 616 445 c 128,-1,13
 597 404 597 404 577.5 375.5 c 128,-1,14
 558 347 558 347 527 315 c 128,-1,15
 496 283 496 283 472 261 c 128,-1,16
 448 239 448 239 413 212 c 0,17,18
 369 177 369 177 337.5 154.5 c 128,-1,19
 306 132 306 132 301 129 c 1,20,-1
 570 129 l 1,21,-1
 549 0 l 1,22,-1
 38 0 l 1,23,-1
 57 123 l 1,24,25
 170 192 170 192 308 299 c 0,26,27
 382 357 382 357 434 415.5 c 128,-1,28
 486 474 486 474 493 515 c 0,29,30
 495 528 495 528 495 539 c 0,0,1
EndSplineSet
Substitution2: "'dnom' Denominators in Latin lookup 19 subtable" two.denominator
Substitution2: "'sups' Superscript lookup 17 subtable" twosuperior
Substitution2: "'onum' Oldstyle Figures in Latin lookup 15 subtable" two.oldstyle
Substitution2: "'tnum' Tabular Numbers in Latin lookup 14 subtable" two.tnum
Substitution2: "'numr' Numerators in Latin lookup 13 subtable" two.numerator
Substitution2: "'sinf' Scientific Inferiors lookup 11 subtable" twoinferior
Substitution2: "'frac' Diagonal Fractions lookup 5 subtable" two.numerator
Substitution2: "'smcp' Lowercase to Small Capitals lookup 1 subtable" two.smcp
EndChar

StartChar: three
Encoding: 51 51 22
Width: 583
GlyphClass: 2
Flags: W
LayerCount: 2
Fore
SplineSet
338 -7 m 2,0,-1
 280 -7 l 2,1,2
 267 -7 267 -7 261 -7 c 128,-1,3
 255 -7 255 -7 227.5 -6.5 c 128,-1,4
 200 -6 200 -6 190 -5.5 c 128,-1,5
 180 -5 180 -5 157 -3.5 c 128,-1,6
 134 -2 134 -2 122 0 c 128,-1,7
 110 2 110 2 92 5 c 0,8,9
 62 10 62 10 32 21 c 1,10,-1
 49 123 l 1,11,-1
 303 123 l 2,12,13
 366 123 366 123 391 143 c 0,14,15
 411 159 411 159 416 191 c 2,16,-1
 421 223 l 2,17,18
 427 259 427 259 417 273 c 1,19,20
 409 286 409 286 400.5 289 c 128,-1,21
 392 292 392 292 387 293.5 c 128,-1,22
 382 295 382 295 372 296 c 0,23,24
 358 298 358 298 336 299 c 2,25,-1
 138 307 l 1,26,-1
 157 420 l 1,27,-1
 357 429 l 2,28,29
 411 431 411 431 436 446.5 c 128,-1,30
 461 462 461 462 467 501 c 2,31,-1
 473 536 l 1,32,33
 475 565 475 565 471 572.5 c 128,-1,34
 467 580 467 580 463.5 585 c 128,-1,35
 460 590 460 590 452.5 593.5 c 128,-1,36
 445 597 445 597 438.5 599.5 c 128,-1,37
 432 602 432 602 422 603 c 0,38,39
 406 605 406 605 385 605 c 2,40,-1
 118 605 l 1,41,-1
 134 706 l 1,42,43
 219 735 219 735 355 735 c 0,44,45
 405 735 405 735 462 734 c 0,46,47
 541 732 541 732 585 680 c 1,48,49
 618 639 618 639 618 582 c 0,50,51
 618 565 618 565 616 547 c 1,52,-1
 607 494 l 2,53,54
 588 379 588 379 508 364 c 1,55,56
 565 343 565 343 565 252 c 0,57,58
 565 230 565 230 561 204 c 2,59,-1
 554 161 l 1,60,61
 528 -7 528 -7 338 -7 c 2,0,-1
EndSplineSet
Substitution2: "'dnom' Denominators in Latin lookup 19 subtable" three.denominator
Substitution2: "'sups' Superscript lookup 17 subtable" threesuperior
Substitution2: "'onum' Oldstyle Figures in Latin lookup 15 subtable" three.oldstyle
Substitution2: "'tnum' Tabular Numbers in Latin lookup 14 subtable" three.tnum
Substitution2: "'numr' Numerators in Latin lookup 13 subtable" three.numerator
Substitution2: "'sinf' Scientific Inferiors lookup 11 subtable" threeinferior
Substitution2: "'frac' Diagonal Fractions lookup 5 subtable" three.numerator
Substitution2: "'smcp' Lowercase to Small Capitals lookup 1 subtable" three.smcp
EndChar

StartChar: four
Encoding: 52 52 23
Width: 620
GlyphClass: 2
Flags: W
LayerCount: 2
Fore
SplineSet
50 224 m 1,0,-1
 391 732 l 1,1,-1
 547 732 l 1,2,-1
 259 292 l 1,3,-1
 436 292 l 1,4,-1
 463 459 l 1,5,-1
 508 536 l 1,6,-1
 616 536 l 1,7,-1
 577 292 l 1,8,-1
 651 292 l 1,9,-1
 634 184 l 1,10,-1
 557 160 l 1,11,-1
 532 2 l 1,12,-1
 391 2 l 1,13,-1
 415 160 l 1,14,-1
 74 160 l 1,15,-1
 50 224 l 1,0,-1
EndSplineSet
Substitution2: "'dnom' Denominators in Latin lookup 19 subtable" four.denominator
Substitution2: "'sups' Superscript lookup 17 subtable" foursuperior
Substitution2: "'onum' Oldstyle Figures in Latin lookup 15 subtable" four.oldstyle
Substitution2: "'tnum' Tabular Numbers in Latin lookup 14 subtable" four.tnum
Substitution2: "'numr' Numerators in Latin lookup 13 subtable" four.numerator
Substitution2: "'sinf' Scientific Inferiors lookup 11 subtable" fourinferior
Substitution2: "'frac' Diagonal Fractions lookup 5 subtable" four.numerator
Substitution2: "'smcp' Lowercase to Small Capitals lookup 1 subtable" four.smcp
EndChar

StartChar: five
Encoding: 53 53 24
Width: 596
GlyphClass: 2
Flags: W
LayerCount: 2
Fore
SplineSet
278 438 m 1,0,1
 314 464 314 464 386 464 c 0,2,3
 413 464 413 464 459 462 c 0,4,5
 535 458 535 458 571 405 c 0,6,7
 599 365 599 365 599 309 c 0,8,9
 599 291 599 291 596 272 c 2,10,-1
 580 160 l 1,11,12
 564 61 564 61 500 26 c 0,13,14
 444 -4 444 -4 352.5 -4 c 128,-1,15
 261 -4 261 -4 207 -0.5 c 128,-1,16
 153 3 153 3 61 20 c 1,17,-1
 79 130 l 1,18,-1
 361 130 l 2,19,20
 433 130 433 130 444 201 c 2,21,-1
 454 265 l 2,22,23
 456 276 456 276 456 286 c 0,24,25
 456 339 456 339 399 339 c 2,26,-1
 307 339 l 2,27,28
 246 339 246 339 236 280 c 1,29,-1
 103 280 l 1,30,-1
 197 732 l 1,31,-1
 642 732 l 1,32,-1
 621 603 l 1,33,-1
 312 603 l 1,34,-1
 278 438 l 1,0,1
EndSplineSet
Substitution2: "'dnom' Denominators in Latin lookup 19 subtable" five.denominator
Substitution2: "'sups' Superscript lookup 17 subtable" fivesuperior
Substitution2: "'onum' Oldstyle Figures in Latin lookup 15 subtable" five.oldstyle
Substitution2: "'tnum' Tabular Numbers in Latin lookup 14 subtable" five.tnum
Substitution2: "'numr' Numerators in Latin lookup 13 subtable" five.numerator
Substitution2: "'sinf' Scientific Inferiors lookup 11 subtable" fiveinferior
Substitution2: "'frac' Diagonal Fractions lookup 5 subtable" five.numerator
Substitution2: "'smcp' Lowercase to Small Capitals lookup 1 subtable" five.smcp
EndChar

StartChar: six
Encoding: 54 54 25
Width: 608
GlyphClass: 2
Flags: W
LayerCount: 2
Fore
SplineSet
257 424 m 1,0,1
 343 445 343 445 464 445 c 0,2,3
 545 445 545 445 578 405 c 1,4,5
 611 367 611 367 611 319 c 0,6,7
 611 297 611 297 607 263 c 1,8,-1
 590 148 l 1,9,10
 576 63 576 63 525.5 31 c 128,-1,11
 475 -1 475 -1 387 -1 c 2,12,-1
 245 -1 l 2,13,14
 132 -1 132 -1 104 119 c 0,15,16
 94 160 94 160 94 194 c 128,-1,17
 94 228 94 228 94.5 265.5 c 128,-1,18
 95 303 95 303 110 395 c 0,19,20
 161 720 161 720 338 735 c 0,21,22
 378 739 378 739 421 739 c 0,23,24
 530 739 530 739 653 715 c 1,25,-1
 637 609 l 1,26,-1
 386 609 l 2,27,28
 299 609 299 609 267 473 c 0,29,30
 262 451 262 451 257 424 c 1,0,1
231 217 m 128,-1,32
 231 177 231 177 248.5 152 c 128,-1,33
 266 127 266 127 304 127 c 2,34,-1
 384 127 l 2,35,36
 448 127 448 127 457 190 c 1,37,-1
 468 257 l 2,38,39
 471 272 471 272 471 286 c 128,-1,40
 471 300 471 300 462.5 310.5 c 128,-1,41
 454 321 454 321 418 321 c 2,42,-1
 240 321 l 1,43,31
 231 257 231 257 231 217 c 128,-1,32
EndSplineSet
Substitution2: "'dnom' Denominators in Latin lookup 19 subtable" six.denominator
Substitution2: "'sups' Superscript lookup 17 subtable" sixsuperior
Substitution2: "'onum' Oldstyle Figures in Latin lookup 15 subtable" six.oldstyle
Substitution2: "'tnum' Tabular Numbers in Latin lookup 14 subtable" six.tnum
Substitution2: "'numr' Numerators in Latin lookup 13 subtable" six.numerator
Substitution2: "'sinf' Scientific Inferiors lookup 11 subtable" sixinferior
Substitution2: "'frac' Diagonal Fractions lookup 5 subtable" six.numerator
Substitution2: "'smcp' Lowercase to Small Capitals lookup 1 subtable" six.smcp
EndChar

StartChar: seven
Encoding: 55 55 26
Width: 554
GlyphClass: 2
Flags: W
LayerCount: 2
Fore
SplineSet
118 603 m 1,0,-1
 139 732 l 1,1,-1
 610 732 l 1,2,-1
 637 668 l 1,3,-1
 287 0 l 1,4,-1
 134 0 l 1,5,-1
 454 603 l 1,6,-1
 118 603 l 1,0,-1
EndSplineSet
Substitution2: "'dnom' Denominators in Latin lookup 19 subtable" seven.denominator
Substitution2: "'sups' Superscript lookup 17 subtable" sevensuperior
Substitution2: "'onum' Oldstyle Figures in Latin lookup 15 subtable" seven.oldstyle
Substitution2: "'tnum' Tabular Numbers in Latin lookup 14 subtable" seven.tnum
Substitution2: "'numr' Numerators in Latin lookup 13 subtable" seven.numerator
Substitution2: "'sinf' Scientific Inferiors lookup 11 subtable" seveninferior
Substitution2: "'frac' Diagonal Fractions lookup 5 subtable" seven.numerator
Substitution2: "'smcp' Lowercase to Small Capitals lookup 1 subtable" seven.smcp
EndChar

StartChar: eight
Encoding: 56 56 27
Width: 623
GlyphClass: 2
Flags: W
LayerCount: 2
Fore
SplineSet
553 393 m 1,0,1
 612 378 612 378 612 275 c 0,2,3
 612 258 612 258 608 246 c 1,4,-1
 595 160 l 2,5,6
 582 77 582 77 539 37 c 0,7,8
 522 21 522 21 495 12 c 0,9,10
 456 0 456 0 393 0 c 2,11,-1
 243 0 l 2,12,13
 79 0 79 0 79 135 c 0,14,15
 79 155 79 155 83 179 c 2,16,-1
 94 252 l 2,17,18
 101 297 101 297 128 323.5 c 128,-1,19
 155 350 155 350 196 356 c 1,20,21
 132 385 132 385 132 467 c 0,22,23
 132 487 132 487 135 510 c 2,24,-1
 146 575 l 1,25,26
 161 675 161 675 221 708 c 0,27,28
 274 737 274 737 360 737 c 2,29,-1
 511 737 l 2,30,31
 638 737 638 737 658 632 c 0,32,33
 661 615 661 615 661 595.5 c 128,-1,34
 661 576 661 576 657 552 c 2,35,-1
 649 499 l 2,36,37
 645 474 645 474 630 449 c 0,38,39
 602 401 602 401 553 393 c 1,0,1
469 267 m 0,40,41
 469 315 469 315 415 315 c 2,42,-1
 313 315 l 2,43,44
 246 315 246 315 236 253 c 2,45,-1
 225 183 l 2,46,47
 224 174 224 174 224 160 c 0,48,49
 224 124 224 124 287 124 c 2,50,-1
 381 124 l 2,51,52
 448 124 448 124 457 183 c 2,53,-1
 468 253 l 2,54,55
 469 260 469 260 469 267 c 0,40,41
273 479 m 0,56,57
 273 432 273 432 331 432 c 2,58,-1
 432 432 l 2,59,60
 470 432 470 432 485.5 448 c 128,-1,61
 501 464 501 464 506 494 c 2,62,-1
 513 541 l 2,63,64
 516 557 516 557 516 573.5 c 128,-1,65
 516 590 516 590 505 602 c 128,-1,66
 494 614 494 614 459 614 c 2,67,-1
 365 614 l 2,68,69
 324 614 324 614 306 598.5 c 128,-1,70
 288 583 288 583 282 541 c 1,71,-1
 274 494 l 2,72,73
 273 486 273 486 273 479 c 0,56,57
EndSplineSet
Substitution2: "'dnom' Denominators in Latin lookup 19 subtable" eight.denominator
Substitution2: "'sups' Superscript lookup 17 subtable" eightsuperior
Substitution2: "'onum' Oldstyle Figures in Latin lookup 15 subtable" eight.oldstyle
Substitution2: "'tnum' Tabular Numbers in Latin lookup 14 subtable" eight.tnum
Substitution2: "'numr' Numerators in Latin lookup 13 subtable" eight.numerator
Substitution2: "'sinf' Scientific Inferiors lookup 11 subtable" eightinferior
Substitution2: "'frac' Diagonal Fractions lookup 5 subtable" eight.numerator
Substitution2: "'smcp' Lowercase to Small Capitals lookup 1 subtable" eight.smcp
EndChar

StartChar: nine
Encoding: 57 57 28
Width: 607
GlyphClass: 2
Flags: W
LayerCount: 2
Fore
SplineSet
469 311 m 1,0,1
 383 290 383 290 261 290 c 0,2,3
 181 290 181 290 148 331 c 0,4,5
 115 371 115 371 115 420 c 0,6,7
 115 441 115 441 119 478 c 1,8,-1
 136 581 l 1,9,10
 149 667 149 667 200 701 c 128,-1,11
 251 735 251 735 338 735 c 2,12,-1
 480 735 l 2,13,14
 631 735 631 735 631 506 c 0,15,16
 631 429 631 429 617 340.5 c 128,-1,17
 603 252 603 252 583.5 193.5 c 128,-1,18
 564 135 564 135 542.5 100 c 128,-1,19
 521 65 521 65 493 43 c 0,20,21
 447 5 447 5 395.5 0.5 c 128,-1,22
 344 -4 344 -4 299 -4 c 0,23,24
 188 -4 188 -4 72 20 c 1,25,-1
 89 126 l 1,26,-1
 339 126 l 2,27,28
 437 126 437 126 469 311 c 1,0,1
258 478 m 2,29,30
 255 463 255 463 255 448.5 c 128,-1,31
 255 434 255 434 263 424 c 128,-1,32
 271 414 271 414 308 414 c 2,33,-1
 485 414 l 1,34,35
 494 477 494 477 494 517 c 128,-1,36
 494 557 494 557 476.5 582.5 c 128,-1,37
 459 608 459 608 420 608 c 2,38,-1
 342 608 l 2,39,40
 278 608 278 608 268 545 c 2,41,-1
 258 478 l 2,29,30
EndSplineSet
Substitution2: "'dnom' Denominators in Latin lookup 19 subtable" nine.denominator
Substitution2: "'sups' Superscript lookup 17 subtable" ninesuperior
Substitution2: "'onum' Oldstyle Figures in Latin lookup 15 subtable" nine.oldstyle
Substitution2: "'tnum' Tabular Numbers in Latin lookup 14 subtable" nine.tnum
Substitution2: "'numr' Numerators in Latin lookup 13 subtable" nine.numerator
Substitution2: "'sinf' Scientific Inferiors lookup 11 subtable" nineinferior
Substitution2: "'frac' Diagonal Fractions lookup 5 subtable" nine.numerator
Substitution2: "'smcp' Lowercase to Small Capitals lookup 1 subtable" nine.smcp
EndChar

StartChar: colon
Encoding: 58 58 29
Width: 263
GlyphClass: 2
Flags: W
LayerCount: 2
Fore
SplineSet
110 138 m 2,0,-1
 196 138 l 2,1,2
 218 138 218 138 218 120 c 0,3,4
 218 117 218 117 217 113 c 2,5,-1
 203 23 l 2,6,7
 199 0 199 0 175 0 c 2,8,-1
 89 0 l 2,9,10
 78 0 78 0 72 6.5 c 128,-1,11
 66 13 66 13 68 23 c 2,12,-1
 82 113 l 2,13,14
 85 138 85 138 110 138 c 2,0,-1
173 531 m 2,16,-1
 259 531 l 2,17,18
 280 531 280 531 280 514 c 0,19,20
 280 510 280 510 279 506 c 2,21,-1
 265 416 l 2,22,23
 261 393 261 393 237 393 c 2,24,-1
 151 393 l 2,25,26
 140 393 140 393 134.5 399.5 c 128,-1,27
 129 406 129 406 130 416 c 2,28,-1
 145 506 l 1,29,15
 148 531 148 531 173 531 c 2,16,-1
EndSplineSet
EndChar

StartChar: semicolon
Encoding: 59 59 30
Width: 263
GlyphClass: 2
Flags: W
LayerCount: 2
Fore
SplineSet
90 0 m 2,0,1
 79 0 79 0 73 7 c 128,-1,2
 67 14 67 14 69 25 c 2,3,-1
 82 112 l 2,4,5
 84 124 84 124 92 131.5 c 128,-1,6
 100 139 100 139 112 139 c 2,7,-1
 196 139 l 2,8,9
 216 139 216 139 216 119 c 0,10,11
 216 116 216 116 215 112 c 2,12,-1
 196 -11 l 2,13,14
 191 -42 191 -42 174.5 -61.5 c 128,-1,15
 158 -81 158 -81 139 -86 c 0,16,17
 114 -93 114 -93 96 -93 c 128,-1,18
 78 -93 78 -93 68 -91 c 2,19,-1
 56 -88 l 1,20,-1
 63 -40 l 1,21,22
 77 -40 77 -40 85 -35 c 128,-1,23
 93 -30 93 -30 95 -26 c 128,-1,24
 97 -22 97 -22 98 -14 c 2,25,-1
 101 0 l 1,26,-1
 90 0 l 2,0,1
174 532 m 2,27,-1
 260 532 l 2,28,29
 281 532 281 532 281 514 c 0,30,31
 281 511 281 511 281 507 c 2,32,-1
 267 417 l 2,33,34
 263 394 263 394 238 394 c 2,35,-1
 152 394 l 2,36,37
 141 394 141 394 135.5 400 c 128,-1,38
 130 406 130 406 132 417 c 2,39,-1
 146 507 l 2,40,41
 149 532 149 532 174 532 c 2,27,-1
EndSplineSet
EndChar

StartChar: less
Encoding: 60 60 31
Width: 450
GlyphClass: 2
Flags: W
LayerCount: 2
Fore
SplineSet
83 288 m 1,0,-1
 104 417 l 1,1,-1
 502 562 l 1,2,-1
 481 432 l 1,3,-1
 236 349 l 1,4,-1
 454 262 l 1,5,-1
 433 134 l 1,6,-1
 83 288 l 1,0,-1
EndSplineSet
EndChar

StartChar: equal
Encoding: 61 61 32
Width: 467
GlyphClass: 2
Flags: W
LayerCount: 2
Fore
SplineSet
49 184 m 1,0,-1
 68 302 l 1,1,-1
 495 302 l 1,2,-1
 476 184 l 1,3,-1
 49 184 l 1,0,-1
82 399 m 1,4,-1
 101 517 l 1,5,-1
 528 517 l 1,6,-1
 509 399 l 1,7,-1
 82 399 l 1,4,-1
EndSplineSet
EndChar

StartChar: greater
Encoding: 62 62 33
Width: 450
GlyphClass: 2
Flags: W
LayerCount: 2
Fore
SplineSet
59 134 m 1,0,-1
 80 265 l 1,1,-1
 328 358 l 1,2,-1
 106 436 l 1,3,-1
 126 562 l 1,4,-1
 478 417 l 1,5,-1
 458 288 l 1,6,-1
 59 134 l 1,0,-1
EndSplineSet
EndChar

StartChar: question
Encoding: 63 63 34
Width: 542
GlyphClass: 2
Flags: W
LayerCount: 2
Fore
SplineSet
331 285 m 1,0,-1
 317 195 l 1,1,-1
 204 195 l 1,2,-1
 234 390 l 1,3,4
 272 389 272 389 300.5 389 c 128,-1,5
 329 389 329 389 349 390 c 0,6,7
 436 394 436 394 448 472 c 1,8,-1
 457 525 l 1,9,10
 458 537 458 537 458 546 c 0,11,12
 458 576 458 576 438.5 593.5 c 128,-1,13
 419 611 419 611 360 611 c 2,14,-1
 111 611 l 1,15,-1
 128 713 l 1,16,17
 267 740 267 740 361 740 c 0,18,19
 387 740 387 740 414 739 c 1,20,21
 483 739 483 739 529 709 c 0,22,23
 602 660 602 660 602 571 c 0,24,25
 602 555 602 555 599 537 c 2,26,-1
 587 453 l 2,27,28
 572 349 572 349 510 312 c 0,29,30
 462 283 462 283 378 283 c 0,31,32
 356 283 356 283 331 285 c 1,0,-1
208 138 m 2,33,-1
 294 138 l 2,34,35
 315 138 315 138 315 120 c 0,36,37
 315 117 315 117 315 113 c 2,38,-1
 300 23 l 2,39,40
 296 0 296 0 272 0 c 2,41,-1
 186 0 l 2,42,43
 175 0 175 0 169.5 6.5 c 128,-1,44
 164 13 164 13 165 23 c 2,45,-1
 180 113 l 1,46,47
 183 138 183 138 208 138 c 2,33,-1
EndSplineSet
Substitution2: "'smcp' Lowercase to Small Capitals lookup 1 subtable" question.smcp
EndChar

StartChar: at
Encoding: 64 64 35
Width: 896
GlyphClass: 2
Flags: W
LayerCount: 2
Fore
SplineSet
746 721 m 2,0,1
 913 721 913 721 913 547 c 0,2,3
 913 519 913 519 908 488 c 2,4,-1
 859 162 l 2,5,6
 846 72 846 72 793 35 c 0,7,8
 748 3 748 3 667 3 c 2,9,-1
 574 3 l 1,10,-1
 551 58 l 1,11,12
 502 -4 502 -4 419 -4 c 0,13,14
 325 -4 325 -4 284 68 c 0,15,16
 257 114 257 114 257 192 c 0,17,18
 257 276 257 276 281 359 c 0,19,20
 308 455 308 455 360 498 c 0,21,22
 394 526 394 526 420 534 c 0,23,24
 461 545 461 545 497 545 c 0,25,26
 655 545 655 545 723 479 c 1,27,-1
 671 116 l 1,28,29
 709 116 709 116 725.5 132 c 128,-1,30
 742 148 742 148 751 206 c 2,31,-1
 795 499 l 1,32,33
 797 524 797 524 798.5 541.5 c 128,-1,34
 800 559 800 559 794.5 571 c 128,-1,35
 789 583 789 583 783.5 590 c 128,-1,36
 778 597 778 597 767 601 c 0,37,38
 749 608 749 608 719 608 c 2,39,-1
 359 608 l 2,40,41
 291 608 291 608 266 570 c 0,42,43
 246 540 246 540 239 499 c 2,44,-1
 164 26 l 2,45,46
 162 10 162 10 162 -11 c 128,-1,47
 162 -32 162 -32 174 -50 c 0,48,49
 192 -78 192 -78 251 -78 c 2,50,-1
 637 -78 l 1,51,-1
 623 -163 l 1,52,53
 488 -190 488 -190 331 -190 c 2,54,-1
 238 -190 l 2,55,56
 142 -190 142 -190 96 -144 c 0,57,58
 47 -95 47 -95 47 -19 c 0,59,60
 47 8 47 8 51 36 c 2,61,-1
 127 521 l 2,62,63
 144 627 144 627 206.5 674 c 128,-1,64
 269 721 269 721 382 721 c 2,65,-1
 746 721 l 2,0,1
376 265 m 0,66,67
 371 222 371 222 371 203 c 128,-1,68
 371 184 371 184 373 166 c 0,69,70
 379 108 379 108 438 108 c 0,71,72
 521 108 521 108 564 174 c 1,73,-1
 603 424 l 1,74,75
 558 434 558 434 493 434 c 0,76,77
 447 434 447 434 418 397 c 128,-1,78
 389 360 389 360 376 265 c 0,66,67
EndSplineSet
Substitution2: "'case' Case-Sensitive Forms lookup 18 subtable" at.alt
Substitution2: "'smcp' Lowercase to Small Capitals lookup 1 subtable" at.smcp
EndChar

StartChar: A
Encoding: 65 65 36
Width: 688
GlyphClass: 2
Flags: W
LayerCount: 2
Fore
SplineSet
34 0 m 1,0,-1
 397 732 l 1,1,-1
 556 732 l 1,2,-1
 678 0 l 1,3,-1
 535 0 l 1,4,-1
 506 162 l 1,5,-1
 269 162 l 1,6,-1
 189 0 l 1,7,-1
 34 0 l 1,0,-1
325 286 m 1,8,-1
 492 286 l 1,9,-1
 451 552 l 1,10,-1
 325 286 l 1,8,-1
EndSplineSet
Substitution2: "'c2sc' Capitals to Small Capitals in Latin lookup 2 subtable" a.smcp
EndChar

StartChar: B
Encoding: 66 66 37
Width: 599
GlyphClass: 2
Flags: W
LayerCount: 2
Fore
SplineSet
474 732 m 2,0,1
 528 732 528 732 567 714.5 c 128,-1,2
 606 697 606 697 624 668 c 0,3,4
 653 621 653 621 653 564 c 0,5,6
 653 544 653 544 648.5 514.5 c 128,-1,7
 644 485 644 485 627 454 c 0,8,9
 591 391 591 391 524 380 c 1,10,11
 566 373 566 373 593 323 c 0,12,13
 612 286 612 286 612 236 c 0,14,15
 612 218 612 218 610 198 c 0,16,17
 594 85 594 85 537 42.5 c 128,-1,18
 480 0 480 0 360 0 c 2,19,-1
 61 0 l 1,20,-1
 177 732 l 1,21,-1
 474 732 l 2,0,1
473 249 m 0,22,23
 473 324 473 324 406 324 c 2,24,-1
 252 324 l 1,25,-1
 221 123 l 1,26,-1
 374 123 l 2,27,28
 455 123 455 123 470 221 c 0,29,30
 473 236 473 236 473 249 c 0,22,23
420 442 m 2,31,32
 457 442 457 442 480 463.5 c 128,-1,33
 503 485 503 485 509 525 c 0,34,35
 511 539 511 539 511 549 c 128,-1,36
 511 559 511 559 509 571 c 128,-1,37
 507 583 507 583 497 592 c 0,38,39
 479 608 479 608 446 608 c 2,40,-1
 298 608 l 1,41,-1
 272 442 l 1,42,-1
 420 442 l 2,31,32
EndSplineSet
Substitution2: "'c2sc' Capitals to Small Capitals in Latin lookup 2 subtable" b.smcp
EndChar

StartChar: C
Encoding: 67 67 38
Width: 571
GlyphClass: 2
Flags: W
LayerCount: 2
Fore
SplineSet
407 740 m 0,0,1
 543 740 543 740 657 704 c 1,2,-1
 640 595 l 1,3,4
 515 611 515 611 429 611 c 0,5,6
 425 611 425 611 422.5 611 c 128,-1,7
 420 611 420 611 411 611 c 128,-1,8
 402 611 402 611 394 610.5 c 128,-1,9
 386 610 386 610 371.5 608 c 128,-1,10
 357 606 357 606 348.5 601.5 c 128,-1,11
 340 597 340 597 327.5 589 c 128,-1,12
 315 581 315 581 306.5 569 c 128,-1,13
 298 557 298 557 287.5 538 c 128,-1,14
 277 519 277 519 270 495 c 0,15,16
 251 438 251 438 240 371.5 c 128,-1,17
 229 305 229 305 229 259.5 c 128,-1,18
 229 214 229 214 240 185 c 0,19,20
 262 126 262 126 341 123 c 0,21,22
 352 123 352 123 398 123 c 128,-1,23
 444 123 444 123 568 132 c 1,24,-1
 551 22 l 1,25,26
 498 4 498 4 444 -1 c 128,-1,27
 390 -6 390 -6 348.5 -6 c 128,-1,28
 307 -6 307 -6 291 -6 c 0,29,30
 223 -5 223 -5 177.5 26 c 128,-1,31
 132 57 132 57 113 111 c 0,32,33
 89 179 89 179 89 251 c 128,-1,34
 89 323 89 323 99.5 384.5 c 128,-1,35
 110 446 110 446 122 493 c 128,-1,36
 134 540 134 540 152 581 c 128,-1,37
 170 622 170 622 193 650.5 c 128,-1,38
 216 679 216 679 247 700 c 0,39,40
 308 740 308 740 407 740 c 0,0,1
EndSplineSet
Substitution2: "'c2sc' Capitals to Small Capitals in Latin lookup 2 subtable" c.smcp
EndChar

StartChar: D
Encoding: 68 68 39
Width: 655
GlyphClass: 2
Flags: W
LayerCount: 2
Fore
SplineSet
473 732 m 0,0,1
 534 732 534 732 577.5 708.5 c 128,-1,2
 621 685 621 685 643 648 c 0,3,4
 683 581 683 581 683 469 c 0,5,6
 683 415 683 415 673 346 c 1,7,8
 643 160 643 160 571.5 80 c 128,-1,9
 500 0 500 0 367 0 c 2,10,-1
 61 0 l 1,11,-1
 177 732 l 1,12,13
 177 732 177 732 473 732 c 0,0,1
533 364 m 1,14,15
 545 427 545 427 545 460 c 0,16,17
 545 557 545 557 509 587 c 0,18,19
 485 608 485 608 438 608 c 2,20,-1
 297 608 l 1,21,-1
 220 125 l 1,22,-1
 367 125 l 2,23,24
 495 125 495 125 533 364 c 1,14,15
EndSplineSet
Substitution2: "'c2sc' Capitals to Small Capitals in Latin lookup 2 subtable" d.smcp
EndChar

StartChar: E
Encoding: 69 69 40
Width: 560
GlyphClass: 2
Flags: W
LayerCount: 2
Fore
SplineSet
217 706 m 0,0,1
 243 721 243 721 268.5 726.5 c 128,-1,2
 294 732 294 732 311 732 c 128,-1,3
 328 732 328 732 452.5 728.5 c 128,-1,4
 577 725 577 725 640 716 c 1,5,-1
 622 600 l 1,6,-1
 343 600 l 2,7,8
 307 600 307 600 295 582 c 0,9,10
 286 568 286 568 283 544 c 2,11,-1
 265 432 l 1,12,-1
 548 422 l 1,13,-1
 529 307 l 1,14,-1
 244 297 l 1,15,-1
 225 181 l 2,16,17
 220 149 220 149 232 140 c 0,18,19
 236 137 236 137 238 135 c 128,-1,20
 240 133 240 133 245.5 132 c 128,-1,21
 251 131 251 131 253.5 130 c 128,-1,22
 256 129 256 129 262 129 c 0,23,24
 270 129 270 129 279 129 c 2,25,-1
 548 129 l 1,26,-1
 529 14 l 1,27,28
 472 7 472 7 346 2 c 128,-1,29
 220 -3 220 -3 205.5 -3 c 128,-1,30
 191 -3 191 -3 167 3 c 0,31,32
 77 25 77 25 77 117 c 0,33,34
 77 133 77 133 79 150 c 2,35,-1
 148 585 l 2,36,37
 162 674 162 674 217 706 c 0,0,1
EndSplineSet
Substitution2: "'c2sc' Capitals to Small Capitals in Latin lookup 2 subtable" e.smcp
EndChar

StartChar: F
Encoding: 70 70 41
Width: 561
GlyphClass: 2
Flags: W
LayerCount: 2
Fore
SplineSet
327 732 m 0,0,1
 330 732 330 732 454 728.5 c 128,-1,2
 578 725 578 725 641 716 c 1,3,-1
 624 600 l 1,4,-1
 345 600 l 2,5,6
 312 600 312 600 300 585.5 c 128,-1,7
 288 571 288 571 284 544 c 2,8,-1
 266 430 l 1,9,-1
 549 420 l 1,10,-1
 532 304 l 1,11,-1
 245 295 l 1,12,-1
 198 0 l 1,13,-1
 58 0 l 1,14,-1
 149 574 l 2,15,16
 162 660 162 660 211.5 696 c 128,-1,17
 261 732 261 732 327 732 c 0,0,1
EndSplineSet
Substitution2: "'c2sc' Capitals to Small Capitals in Latin lookup 2 subtable" f.smcp
EndChar

StartChar: G
Encoding: 71 71 42
Width: 613
GlyphClass: 2
Flags: W
LayerCount: 2
Fore
SplineSet
446 53 m 1,0,1
 388 -6 388 -6 278 -6 c 0,2,3
 187 -6 187 -6 143 52 c 0,4,5
 90 121 90 121 90 247 c 0,6,7
 90 371 90 371 133 517 c 1,8,9
 167 636 167 636 226 685 c 0,10,11
 292 740 292 740 406 740 c 0,12,13
 409 740 409 740 449 740 c 0,14,15
 540 740 540 740 674 705 c 1,16,-1
 657 598 l 1,17,18
 519 616 519 616 419 616 c 0,19,20
 348 616 348 616 316 576 c 0,21,22
 283 535 283 535 268.5 478.5 c 128,-1,23
 254 422 254 422 243.5 361 c 128,-1,24
 233 300 233 300 233 256 c 128,-1,25
 233 212 233 212 242 184 c 0,26,27
 260 125 260 125 333 125 c 1,28,29
 333 125 333 125 333 125 c 1,30,31
 364 125 364 125 396.5 137.5 c 128,-1,32
 429 150 429 150 447 163 c 2,33,-1
 464 175 l 1,34,-1
 486 303 l 1,35,-1
 383 303 l 1,36,-1
 397 392 l 1,37,38
 460 417 460 417 576 417 c 0,39,40
 608 417 608 417 644 414 c 1,41,-1
 578 0 l 1,42,-1
 477 0 l 1,43,-1
 446 53 l 1,0,1
EndSplineSet
Substitution2: "'c2sc' Capitals to Small Capitals in Latin lookup 2 subtable" g.smcp
EndChar

StartChar: H
Encoding: 72 72 43
Width: 637
GlyphClass: 2
Flags: W
LayerCount: 2
Fore
SplineSet
63 0 m 1,0,-1
 179 732 l 1,1,-1
 319 732 l 1,2,-1
 269 418 l 1,3,-1
 520 418 l 1,4,-1
 570 732 l 1,5,-1
 710 732 l 1,6,-1
 594 0 l 1,7,-1
 454 0 l 1,8,-1
 500 290 l 1,9,-1
 249 290 l 1,10,-1
 203 0 l 1,11,-1
 63 0 l 1,0,-1
EndSplineSet
Substitution2: "'c2sc' Capitals to Small Capitals in Latin lookup 2 subtable" h.smcp
EndChar

StartChar: I
Encoding: 73 73 44
Width: 256
GlyphClass: 2
Flags: W
LayerCount: 2
Fore
SplineSet
65 0 m 1,0,-1
 181 732 l 1,1,-1
 321 732 l 1,2,-1
 205 0 l 1,3,-1
 65 0 l 1,0,-1
EndSplineSet
Substitution2: "'c2sc' Capitals to Small Capitals in Latin lookup 2 subtable" i.smcp
EndChar

StartChar: J
Encoding: 74 74 45
Width: 356
GlyphClass: 2
Flags: W
LayerCount: 2
Fore
SplineSet
49 132 m 1,0,1
 80 130 80 130 98 130 c 128,-1,2
 116 130 116 130 126 130 c 0,3,4
 193 133 193 133 207 226 c 2,5,-1
 287 732 l 1,6,-1
 427 732 l 1,7,-1
 337 165 l 2,8,9
 320 53 320 53 261 18 c 0,10,11
 221 -5 221 -5 153 -5 c 0,12,13
 69 -5 69 -5 30 23 c 1,14,-1
 49 132 l 1,0,1
EndSplineSet
Substitution2: "'c2sc' Capitals to Small Capitals in Latin lookup 2 subtable" j.smcp
EndChar

StartChar: K
Encoding: 75 75 46
Width: 620
GlyphClass: 2
Flags: W
LayerCount: 2
Fore
SplineSet
61 0 m 1,0,-1
 177 732 l 1,1,-1
 311 732 l 1,2,-1
 263 426 l 1,3,-1
 318 426 l 1,4,-1
 549 732 l 1,5,-1
 719 732 l 1,6,-1
 440 355 l 1,7,-1
 603 0 l 1,8,-1
 443 0 l 1,9,-1
 312 302 l 1,10,-1
 244 302 l 1,11,-1
 196 0 l 1,12,-1
 61 0 l 1,0,-1
EndSplineSet
Substitution2: "'c2sc' Capitals to Small Capitals in Latin lookup 2 subtable" k.smcp
EndChar

StartChar: L
Encoding: 76 76 47
Width: 529
GlyphClass: 2
Flags: W
LayerCount: 2
Fore
SplineSet
283 129 m 2,0,-1
 534 129 l 1,1,-1
 514 0 l 1,2,-1
 212 0 l 2,3,4
 146 0 146 0 113 30.5 c 128,-1,5
 80 61 80 61 80 110 c 0,6,7
 80 125 80 125 82 142 c 2,8,-1
 177 732 l 1,9,-1
 316 732 l 1,10,-1
 229 181 l 2,11,12
 223 143 223 143 243 135 c 0,13,14
 257 129 257 129 283 129 c 2,0,-1
EndSplineSet
Substitution2: "'c2sc' Capitals to Small Capitals in Latin lookup 2 subtable" l.smcp
EndChar

StartChar: M
Encoding: 77 77 48
Width: 827
GlyphClass: 2
Flags: W
LayerCount: 2
Fore
SplineSet
49 0 m 1,0,-1
 229 732 l 1,1,-1
 421 732 l 1,2,-1
 465 232 l 1,3,-1
 664 732 l 1,4,-1
 861 732 l 1,5,-1
 814 0 l 1,6,-1
 675 0 l 1,7,-1
 710 489 l 1,8,-1
 512 0 l 1,9,-1
 353 0 l 1,10,-1
 308 489 l 1,11,-1
 190 0 l 1,12,-1
 49 0 l 1,0,-1
EndSplineSet
AlternateSubs2: "'salt' Stylistic Alternatives in Latin lookup 16 subtable" M.salt
Substitution2: "'c2sc' Capitals to Small Capitals in Latin lookup 2 subtable" m.smcp
EndChar

StartChar: N
Encoding: 78 78 49
Width: 669
GlyphClass: 2
Flags: W
LayerCount: 2
Fore
SplineSet
61 0 m 1,0,-1
 177 732 l 1,1,-1
 317 732 l 1,2,-1
 525 256 l 1,3,-1
 600 732 l 1,4,-1
 740 732 l 1,5,-1
 624 0 l 1,6,-1
 486 0 l 1,7,-1
 276 470 l 1,8,-1
 202 0 l 1,9,-1
 61 0 l 1,0,-1
EndSplineSet
AlternateSubs2: "'salt' Stylistic Alternatives in Latin lookup 16 subtable" N.salt
Substitution2: "'c2sc' Capitals to Small Capitals in Latin lookup 2 subtable" n.smcp
EndChar

StartChar: O
Encoding: 79 79 50
Width: 666
GlyphClass: 2
Flags: W
LayerCount: 2
Fore
SplineSet
397 736 m 128,-1,1
 420 737 420 737 456 737 c 128,-1,2
 492 737 492 737 523 733 c 128,-1,3
 554 729 554 729 584.5 718.5 c 128,-1,4
 615 708 615 708 636 690 c 0,5,6
 684 649 684 649 697 572 c 1,7,8
 704 537 704 537 704 509.5 c 128,-1,9
 704 482 704 482 703 450 c 128,-1,10
 702 418 702 418 691.5 348.5 c 128,-1,11
 681 279 681 279 665.5 226 c 128,-1,12
 650 173 650 173 632 136 c 128,-1,13
 614 99 614 99 589 73.5 c 128,-1,14
 564 48 564 48 539.5 32.5 c 128,-1,15
 515 17 515 17 481 9 c 0,16,17
 426 -4 426 -4 365 -4 c 128,-1,18
 304 -4 304 -4 273.5 -0.5 c 128,-1,19
 243 3 243 3 212 13 c 128,-1,20
 181 23 181 23 160 40 c 0,21,22
 111 80 111 80 98 154 c 0,23,24
 91 189 91 189 91 215.5 c 128,-1,25
 91 242 91 242 91.5 273.5 c 128,-1,26
 92 305 92 305 102 368 c 128,-1,27
 112 431 112 431 124 477.5 c 128,-1,28
 136 524 136 524 149 559 c 128,-1,29
 162 594 162 594 180 621 c 128,-1,30
 198 648 198 648 214.5 667 c 128,-1,31
 231 686 231 686 254.5 699 c 128,-1,32
 278 712 278 712 298 719.5 c 128,-1,33
 318 727 318 727 346 731 c 128,-1,0
 374 735 374 735 397 736 c 128,-1,1
232 231 m 0,34,35
 232 172 232 172 257 150 c 1,36,37
 288 125 288 125 360 125 c 0,38,39
 427 125 427 125 466 151 c 0,40,41
 524 191 524 191 551 361 c 0,42,43
 563 435 563 435 563 479 c 128,-1,44
 563 523 563 523 557 548 c 128,-1,45
 551 573 551 573 532.5 586.5 c 128,-1,46
 514 600 514 600 493.5 604 c 128,-1,47
 473 608 473 608 441.5 608 c 128,-1,48
 410 608 410 608 393.5 606.5 c 128,-1,49
 377 605 377 605 358 600 c 128,-1,50
 339 595 339 595 326.5 584.5 c 128,-1,51
 314 574 314 574 301 556 c 0,52,53
 279 527 279 527 255.5 428 c 128,-1,54
 232 329 232 329 232 231 c 0,34,35
EndSplineSet
Substitution2: "'c2sc' Capitals to Small Capitals in Latin lookup 2 subtable" o.smcp
EndChar

StartChar: P
Encoding: 80 80 51
Width: 597
GlyphClass: 2
Flags: W
LayerCount: 2
Fore
SplineSet
480 732 m 2,0,1
 556 732 556 732 608 683 c 0,2,3
 652 641 652 641 652 551 c 0,4,5
 652 469 652 469 623 393 c 0,6,7
 597 325 597 325 546 292 c 0,8,9
 522 277 522 277 499 274 c 0,10,11
 453 269 453 269 436 269 c 128,-1,12
 419 269 419 269 398.5 270.5 c 128,-1,13
 378 272 378 272 313 279.5 c 128,-1,14
 248 287 248 287 244 289 c 1,15,-1
 198 0 l 1,16,-1
 58 0 l 1,17,-1
 174 732 l 1,18,-1
 480 732 l 2,0,1
509 541 m 0,19,20
 509 608 509 608 449 608 c 2,21,-1
 294 608 l 1,22,-1
 260 394 l 1,23,-1
 415 394 l 2,24,25
 451 394 451 394 473.5 418.5 c 128,-1,26
 496 443 496 443 506 505 c 0,27,28
 509 525 509 525 509 541 c 0,19,20
EndSplineSet
Substitution2: "'c2sc' Capitals to Small Capitals in Latin lookup 2 subtable" p.smcp
EndChar

StartChar: Q
Encoding: 81 81 52
Width: 668
GlyphClass: 2
Flags: W
LayerCount: 2
Fore
SplineSet
371.5 734 m 128,-1,1
 403 737 403 737 448.5 737 c 128,-1,2
 494 737 494 737 525 733 c 128,-1,3
 556 729 556 729 586.5 718 c 128,-1,4
 617 707 617 707 638 689 c 0,5,6
 705 630 705 630 705 487 c 0,7,8
 705 371 705 371 674 248 c 0,9,10
 651 157 651 157 627 121 c 128,-1,11
 603 85 603 85 586 66.5 c 128,-1,12
 569 48 569 48 546.5 35.5 c 128,-1,13
 524 23 524 23 503.5 15 c 128,-1,14
 483 7 483 7 455 3 c 0,15,16
 363 -11 363 -11 275 0 c 1,17,18
 202 8 202 8 162 41 c 0,19,20
 113 82 113 82 99 156 c 0,21,22
 93 191 93 191 93 218 c 128,-1,23
 93 245 93 245 93.5 276 c 128,-1,24
 94 307 94 307 106 384 c 128,-1,25
 118 461 118 461 137 523 c 128,-1,26
 156 585 156 585 182.5 623.5 c 128,-1,27
 209 662 209 662 235 685.5 c 128,-1,28
 261 709 261 709 300.5 720 c 128,-1,0
 340 731 340 731 371.5 734 c 128,-1,1
233 231 m 0,29,30
 233 172 233 172 259 150 c 0,31,32
 289 125 289 125 361 125 c 0,33,34
 429 125 429 125 468 151 c 0,35,36
 526 191 526 191 553 361 c 0,37,38
 565 435 565 435 565 479 c 128,-1,39
 565 523 565 523 559 548 c 128,-1,40
 553 573 553 573 534.5 586.5 c 128,-1,41
 516 600 516 600 495 604 c 128,-1,42
 474 608 474 608 443 608 c 128,-1,43
 412 608 412 608 395.5 606.5 c 128,-1,44
 379 605 379 605 359.5 600 c 128,-1,45
 340 595 340 595 328 584.5 c 128,-1,46
 316 574 316 574 303 556 c 0,47,48
 281 527 281 527 257 428 c 128,-1,49
 233 329 233 329 233 231 c 0,29,30
451 -73 m 0,50,51
 484 -73 484 -73 531 -61 c 1,52,-1
 513 -174 l 1,53,54
 476 -180 476 -180 445.5 -180 c 128,-1,55
 415 -180 415 -180 386 -171 c 0,56,57
 292 -139 292 -139 292 -50 c 0,58,59
 292 -42 292 -42 293 -33 c 1,60,-1
 373 -33 l 1,61,62
 390 -73 390 -73 451 -73 c 0,50,51
EndSplineSet
Substitution2: "'c2sc' Capitals to Small Capitals in Latin lookup 2 subtable" q.smcp
EndChar

StartChar: R
Encoding: 82 82 53
Width: 603
GlyphClass: 2
Flags: W
LayerCount: 2
Fore
SplineSet
483 732 m 2,0,1
 572 732 572 732 617 673 c 0,2,3
 651 630 651 630 651 552 c 0,4,5
 651 467 651 467 624 400 c 0,6,7
 609 361 609 361 594 341.5 c 128,-1,8
 579 322 579 322 557 309 c 128,-1,9
 535 296 535 296 523.5 293.5 c 128,-1,10
 512 291 512 291 496 288 c 1,11,-1
 600 0 l 1,12,-1
 442 0 l 1,13,-1
 356 280 l 1,14,-1
 244 289 l 1,15,-1
 198 0 l 1,16,-1
 58 0 l 1,17,-1
 174 732 l 1,18,-1
 483 732 l 2,0,1
414 398 m 2,19,20
 455 398 455 398 477 423 c 1,21,22
 508 456 508 456 508 540 c 0,23,24
 508 572 508 572 499 586 c 0,25,26
 487 607 487 607 450 607 c 2,27,-1
 295 607 l 1,28,-1
 262 398 l 1,29,-1
 414 398 l 2,19,20
EndSplineSet
Substitution2: "'c2sc' Capitals to Small Capitals in Latin lookup 2 subtable" r.smcp
EndChar

StartChar: S
Encoding: 83 83 54
Width: 579
GlyphClass: 2
Flags: W
LayerCount: 2
Fore
SplineSet
335 121 m 0,0,1
 426 121 426 121 436 184 c 2,2,-1
 442 223 l 2,3,4
 444 237 444 237 444 246 c 128,-1,5
 444 255 444 255 443 265 c 128,-1,6
 442 275 442 275 428 283.5 c 128,-1,7
 414 292 414 292 386 292 c 2,8,-1
 285 292 l 2,9,10
 199 292 199 292 162 330 c 256,11,12
 125 368 125 368 120 411 c 0,13,14
 117 433 117 433 117 451 c 128,-1,15
 117 469 117 469 120 488 c 2,16,-1
 130 564 l 1,17,18
 149 686 149 686 238 720 c 0,19,20
 286 738 286 738 358 738 c 2,21,-1
 359 738 l 2,22,23
 370 738 370 738 380 738 c 0,24,25
 533 738 533 738 632 709 c 1,26,-1
 614 599 l 1,27,28
 473 609 473 609 422 609 c 128,-1,29
 371 609 371 609 366 609 c 0,30,31
 321 609 321 609 299 597 c 128,-1,32
 277 585 277 585 269 538 c 1,33,-1
 264 502 l 1,34,35
 263 486 263 486 261.5 474.5 c 128,-1,36
 260 463 260 463 265 455 c 128,-1,37
 270 447 270 447 274 442.5 c 128,-1,38
 278 438 278 438 289 436 c 0,39,40
 305 432 305 432 332 432 c 2,41,-1
 436 432 l 2,42,43
 503 432 503 432 538 399 c 0,44,45
 573 367 573 367 580 324 c 0,46,47
 585 292 585 292 585 272.5 c 128,-1,48
 585 253 585 253 582 238 c 1,49,-1
 576 172 l 2,50,51
 563 20 563 20 421 -2 c 0,52,53
 385 -8 385 -8 337 -8 c 0,54,55
 163 -8 163 -8 71 22 c 1,56,-1
 88 132 l 1,57,58
 176 121 176 121 335 121 c 0,0,1
EndSplineSet
Substitution2: "'c2sc' Capitals to Small Capitals in Latin lookup 2 subtable" s.smcp
EndChar

StartChar: T
Encoding: 84 84 55
Width: 588
GlyphClass: 2
Flags: W
LayerCount: 2
Fore
SplineSet
122 603 m 1,0,-1
 143 732 l 1,1,-1
 684 732 l 1,2,-1
 663 603 l 1,3,-1
 459 603 l 1,4,-1
 364 0 l 1,5,-1
 224 0 l 1,6,-1
 319 603 l 1,7,-1
 122 603 l 1,0,-1
EndSplineSet
Substitution2: "'c2sc' Capitals to Small Capitals in Latin lookup 2 subtable" t.smcp
EndChar

StartChar: U
Encoding: 85 85 56
Width: 653
GlyphClass: 2
Flags: W
LayerCount: 2
Fore
SplineSet
249 312 m 2,0,1
 241 266 241 266 241 227 c 128,-1,2
 241 188 241 188 253 165 c 0,3,4
 275 124 275 124 353 124 c 128,-1,5
 431 124 431 124 466 167.5 c 128,-1,6
 501 211 501 211 517 312 c 2,7,-1
 584 732 l 1,8,-1
 725 732 l 1,9,-1
 661 295 l 1,10,11
 633 119 633 119 549 54 c 0,12,13
 506 21 506 21 455.5 8 c 128,-1,14
 405 -5 405 -5 355 -5 c 128,-1,15
 305 -5 305 -5 280.5 -2 c 128,-1,16
 256 1 256 1 231 7.5 c 128,-1,17
 206 14 206 14 186.5 26 c 128,-1,18
 167 38 167 38 150 56 c 0,19,20
 118 88 118 88 105 157 c 0,21,22
 100 184 100 184 100 205 c 0,23,24
 100 268 100 268 110 328 c 2,25,-1
 175 732 l 1,26,-1
 315 732 l 1,27,-1
 249 312 l 2,0,1
EndSplineSet
Substitution2: "'c2sc' Capitals to Small Capitals in Latin lookup 2 subtable" u.smcp
EndChar

StartChar: V
Encoding: 86 86 57
Width: 685
GlyphClass: 2
Flags: W
LayerCount: 2
Fore
SplineSet
139 732 m 1,0,-1
 286 732 l 1,1,-1
 360 184 l 1,2,-1
 616 732 l 1,3,-1
 772 732 l 1,4,-1
 414 0 l 1,5,-1
 252 0 l 1,6,-1
 139 732 l 1,0,-1
EndSplineSet
Substitution2: "'c2sc' Capitals to Small Capitals in Latin lookup 2 subtable" v.smcp
EndChar

StartChar: W
Encoding: 87 87 58
Width: 1010
GlyphClass: 2
Flags: W
LayerCount: 2
Fore
SplineSet
139 732 m 1,0,-1
 285 732 l 1,1,-1
 360 191 l 1,2,-1
 600 732 l 1,3,-1
 750 732 l 1,4,-1
 656 530 l 1,5,-1
 707 188 l 1,6,-1
 949 732 l 1,7,-1
 1097 732 l 1,8,-1
 762 0 l 1,9,-1
 604 0 l 1,10,-1
 558 301 l 1,11,-1
 418 0 l 1,12,-1
 252 0 l 1,13,-1
 139 732 l 1,0,-1
EndSplineSet
Substitution2: "'c2sc' Capitals to Small Capitals in Latin lookup 2 subtable" w.smcp
EndChar

StartChar: X
Encoding: 88 88 59
Width: 643
GlyphClass: 2
Flags: W
LayerCount: 2
Fore
SplineSet
32 0 m 1,0,-1
 303 374 l 1,1,-1
 145 732 l 1,2,-1
 299 732 l 1,3,-1
 399 484 l 1,4,-1
 578 732 l 1,5,-1
 736 732 l 1,6,-1
 458 348 l 1,7,-1
 612 0 l 1,8,-1
 458 0 l 1,9,-1
 362 238 l 1,10,-1
 191 0 l 1,11,-1
 32 0 l 1,0,-1
EndSplineSet
AlternateSubs2: "'salt' Stylistic Alternatives in Latin lookup 16 subtable" X.salt
Substitution2: "'c2sc' Capitals to Small Capitals in Latin lookup 2 subtable" x.smcp
EndChar

StartChar: Y
Encoding: 89 89 60
Width: 656
GlyphClass: 2
Flags: W
LayerCount: 2
Fore
SplineSet
139 732 m 1,0,-1
 290 732 l 1,1,-1
 374 382 l 1,2,-1
 583 732 l 1,3,-1
 743 732 l 1,4,-1
 422 227 l 1,5,-1
 386 0 l 1,6,-1
 246 0 l 1,7,-1
 282 227 l 1,8,-1
 139 732 l 1,0,-1
EndSplineSet
Substitution2: "'c2sc' Capitals to Small Capitals in Latin lookup 2 subtable" y.smcp
EndChar

StartChar: Z
Encoding: 90 90 61
Width: 557
GlyphClass: 2
Flags: W
LayerCount: 2
Fore
SplineSet
27 0 m 1,0,-1
 48 129 l 1,1,-1
 455 603 l 1,2,-1
 122 603 l 1,3,-1
 143 732 l 1,4,-1
 647 732 l 1,5,-1
 626 603 l 1,6,-1
 229 129 l 1,7,-1
 552 129 l 1,8,-1
 531 0 l 1,9,-1
 27 0 l 1,0,-1
EndSplineSet
Substitution2: "'c2sc' Capitals to Small Capitals in Latin lookup 2 subtable" z.smcp
EndChar

StartChar: bracketleft
Encoding: 91 91 62
Width: 334
GlyphClass: 2
Flags: W
LayerCount: 2
Fore
SplineSet
373 809 m 2,0,-1
 453 809 l 1,1,-1
 434 691 l 1,2,-1
 382 691 l 2,3,4
 351 691 351 691 333 674 c 128,-1,5
 315 657 315 657 307 612 c 2,6,-1
 203 -38 l 2,7,8
 199 -60 199 -60 199 -78.5 c 128,-1,9
 199 -97 199 -97 205 -107 c 0,10,11
 216 -125 216 -125 250 -125 c 2,12,-1
 305 -125 l 1,13,-1
 286 -243 l 1,14,-1
 197 -243 l 2,15,16
 157 -243 157 -243 128 -228 c 0,17,18
 57 -193 57 -193 57 -86 c 0,19,20
 57 -59 57 -59 63 -28 c 2,21,-1
 171 643 l 2,22,23
 185 731 185 731 229.5 770 c 128,-1,24
 274 809 274 809 373 809 c 2,0,-1
EndSplineSet
EndChar

StartChar: backslash
Encoding: 92 92 63
Width: 449
GlyphClass: 2
Flags: W
LayerCount: 2
Fore
SplineSet
136 770 m 1,0,-1
 276 770 l 1,1,-1
 424 -72 l 1,2,-1
 284 -72 l 1,3,-1
 136 770 l 1,0,-1
EndSplineSet
EndChar

StartChar: bracketright
Encoding: 93 93 64
Width: 331
GlyphClass: 2
Flags: W
LayerCount: 2
Fore
SplineSet
53 -125 m 2,0,1
 84 -125 84 -125 102.5 -108 c 128,-1,2
 121 -91 121 -91 128 -46 c 2,3,-1
 231 604 l 2,4,5
 234 625 234 625 234 644 c 128,-1,6
 234 663 234 663 228 673 c 0,7,8
 217 691 217 691 182 691 c 2,9,-1
 130 691 l 1,10,-1
 149 809 l 1,11,-1
 231 809 l 2,12,13
 278 809 278 809 310.5 790.5 c 128,-1,14
 343 772 343 772 356 743 c 0,15,16
 376 698 376 698 376 661.5 c 128,-1,17
 376 625 376 625 372 603 c 2,18,-1
 270 -76 l 2,19,20
 259 -151 259 -151 222 -194 c 0,21,22
 180 -243 180 -243 73 -243 c 2,23,-1
 -18 -243 l 1,24,-1
 1 -125 l 1,25,-1
 53 -125 l 2,0,1
EndSplineSet
EndChar

StartChar: asciicircum
Encoding: 94 94 65
Width: 384
GlyphClass: 2
Flags: W
LayerCount: 2
Fore
SplineSet
122 531 m 1,0,-1
 251 667 l 1,1,-1
 355 667 l 1,2,-1
 430 531 l 1,3,-1
 338 531 l 1,4,-1
 298 595 l 1,5,-1
 232 531 l 1,6,-1
 122 531 l 1,0,-1
EndSplineSet
EndChar

StartChar: underscore
Encoding: 95 95 66
Width: 673
GlyphClass: 2
Flags: W
LayerCount: 2
Fore
SplineSet
24 -1 m 1,0,-1
 43 117 l 1,1,-1
 677 117 l 1,2,-1
 658 -1 l 1,3,-1
 24 -1 l 1,0,-1
EndSplineSet
EndChar

StartChar: grave
Encoding: 96 96 67
Width: 247
GlyphClass: 2
Flags: W
LayerCount: 2
Fore
SplineSet
121 670 m 1,0,-1
 239 670 l 1,1,-1
 317 531 l 1,2,-1
 226 531 l 1,3,-1
 121 670 l 1,0,-1
EndSplineSet
Substitution2: "'smcp' Lowercase to Small Capitals lookup 1 subtable" grave.smcp
EndChar

StartChar: a
Encoding: 97 97 68
Width: 542
GlyphClass: 2
Flags: W
LayerCount: 2
Fore
SplineSet
268.5 535 m 128,-1,1
 293 539 293 539 315.5 540.5 c 128,-1,2
 338 542 338 542 354 542 c 128,-1,3
 370 542 370 542 398 539.5 c 128,-1,4
 426 537 426 537 461 530 c 0,5,6
 540 514 540 514 576 479 c 1,7,-1
 506 1 l 1,8,-1
 398 1 l 1,9,-1
 377 56 l 1,10,11
 349 21 349 21 280 3 c 0,12,13
 247 -6 247 -6 211.5 -6 c 128,-1,14
 176 -6 176 -6 145 10.5 c 128,-1,15
 114 27 114 27 92 63 c 0,16,17
 66 107 66 107 66 169.5 c 128,-1,18
 66 232 66 232 77.5 296 c 128,-1,19
 89 360 89 360 110.5 406 c 128,-1,20
 132 452 132 452 155.5 476.5 c 128,-1,21
 179 501 179 501 211.5 516 c 128,-1,0
 244 531 244 531 268.5 535 c 128,-1,1
427 419 m 1,22,23
 392 431 392 431 363.5 431 c 128,-1,24
 335 431 335 431 317.5 427.5 c 128,-1,25
 300 424 300 424 287 418 c 128,-1,26
 274 412 274 412 259 397 c 0,27,28
 228 368 228 368 213 271 c 0,29,30
 206 230 206 230 206 201.5 c 128,-1,31
 206 173 206 173 211 154 c 0,32,33
 223 113 223 113 265.5 113 c 128,-1,34
 308 113 308 113 335.5 125 c 128,-1,35
 363 137 363 137 389 163 c 1,36,-1
 427 419 l 1,22,23
EndSplineSet
AlternateSubs2: "'salt' Stylistic Alternatives in Latin lookup 16 subtable" a.salt
Substitution2: "'smcp' Lowercase to Small Capitals lookup 1 subtable" a.smcp
EndChar

StartChar: b
Encoding: 98 98 69
Width: 556
GlyphClass: 2
Flags: W
LayerCount: 2
Fore
SplineSet
428 539 m 0,0,1
 551 539 551 539 569 414 c 0,2,3
 573 385 573 385 573 365 c 0,4,5
 573 311 573 311 561 241 c 0,6,7
 540 112 540 112 493 53 c 128,-1,8
 446 -6 446 -6 355 -6 c 0,9,10
 305 -6 305 -6 262 12.5 c 128,-1,11
 219 31 219 31 194 54 c 1,12,-1
 161 0 l 1,13,-1
 46 0 l 1,14,-1
 170 785 l 1,15,-1
 309 785 l 1,16,-1
 265 504 l 1,17,18
 346 539 346 539 428 539 c 0,0,1
328 114 m 0,19,20
 366 114 366 114 387.5 148 c 128,-1,21
 409 182 409 182 420 252 c 128,-1,22
 431 322 431 322 431 350.5 c 128,-1,23
 431 379 431 379 427 393 c 0,24,25
 418 429 418 429 377 429 c 0,26,27
 306 429 306 429 251 409 c 1,28,-1
 209 146 l 1,29,30
 254 114 254 114 328 114 c 0,19,20
EndSplineSet
AlternateSubs2: "'salt' Stylistic Alternatives in Latin lookup 16 subtable" b.salt
Substitution2: "'smcp' Lowercase to Small Capitals lookup 1 subtable" b.smcp
EndChar

StartChar: c
Encoding: 99 99 70
Width: 492
GlyphClass: 2
Flags: W
LayerCount: 2
Fore
SplineSet
239 535 m 128,-1,1
 263 540 263 540 303 540 c 128,-1,2
 343 540 343 540 414.5 531.5 c 128,-1,3
 486 523 486 523 536 507 c 1,4,-1
 522 420 l 1,5,6
 427 427 427 427 371.5 427 c 128,-1,7
 316 427 316 427 303.5 425 c 128,-1,8
 291 423 291 423 276.5 415 c 128,-1,9
 262 407 262 407 253 389 c 0,10,11
 232 348 232 348 218 263 c 1,12,13
 209 198 209 198 209 173.5 c 128,-1,14
 209 149 209 149 219 133.5 c 128,-1,15
 229 118 229 118 244.5 112.5 c 128,-1,16
 260 107 260 107 294 107 c 0,17,18
 369 107 369 107 453 114 c 2,19,-1
 481 116 l 1,20,-1
 467 28 l 1,21,22
 410 7 410 7 359 0.5 c 128,-1,23
 308 -6 308 -6 267.5 -6 c 128,-1,24
 227 -6 227 -6 215 -5 c 1,25,26
 133 -5 133 -5 94 66 c 0,27,28
 69 110 69 110 69 168.5 c 128,-1,29
 69 227 69 227 79.5 288 c 128,-1,30
 90 349 90 349 107 396.5 c 128,-1,31
 124 444 124 444 143 471.5 c 128,-1,32
 162 499 162 499 188.5 514.5 c 128,-1,0
 215 530 215 530 239 535 c 128,-1,1
EndSplineSet
Substitution2: "'smcp' Lowercase to Small Capitals lookup 1 subtable" c.smcp
EndChar

StartChar: d
Encoding: 100 100 71
Width: 550
GlyphClass: 2
Flags: W
LayerCount: 2
Fore
SplineSet
451 504 m 1,0,-1
 496 785 l 1,1,-1
 635 785 l 1,2,-1
 510 0 l 1,3,-1
 395 0 l 1,4,-1
 379 54 l 1,5,6
 295 -6 295 -6 214 -6 c 0,7,8
 168 -6 168 -6 135 18 c 0,9,10
 69 66 69 66 69 200 c 0,11,12
 69 241 69 241 77.5 287 c 128,-1,13
 86 333 86 333 96 368.5 c 128,-1,14
 106 404 106 404 123 437.5 c 128,-1,15
 140 471 140 471 163 492 c 0,16,17
 212 539 212 539 296 539 c 128,-1,18
 380 539 380 539 451 504 c 1,0,-1
212 192 m 0,19,20
 212 114 212 114 265 114 c 0,21,22
 338 114 338 114 394 146 c 1,23,-1
 435 409 l 1,24,25
 387 429 387 429 314 429 c 0,26,27
 291 429 291 429 275 418 c 0,28,29
 239 392 239 392 219 268 c 0,30,31
 212 223 212 223 212 192 c 0,19,20
EndSplineSet
AlternateSubs2: "'salt' Stylistic Alternatives in Latin lookup 16 subtable" d.salt
Substitution2: "'smcp' Lowercase to Small Capitals lookup 1 subtable" d.smcp
EndChar

StartChar: e
Encoding: 101 101 72
Width: 527
GlyphClass: 2
Flags: W
LayerCount: 2
Fore
SplineSet
315 194 m 0,0,1
 244 194 244 194 211 208 c 1,2,3
 207 185 207 185 207 162.5 c 128,-1,4
 207 140 207 140 217 127 c 0,5,6
 234 106 234 106 288 105 c 0,7,8
 303 105 303 105 320 105 c 0,9,10
 401 105 401 105 505 122 c 1,11,-1
 488 22 l 1,12,13
 386 -9 386 -9 268 -9 c 0,14,15
 240 -9 240 -9 211 -7 c 0,16,17
 66 0 66 0 66 179 c 0,18,19
 66 232 66 232 77.5 292.5 c 128,-1,20
 89 353 89 353 100.5 388 c 128,-1,21
 112 423 112 423 131 454.5 c 128,-1,22
 150 486 150 486 179 503 c 1,23,24
 239 541 239 541 351 541 c 0,25,26
 557 541 557 541 557 402 c 0,27,28
 557 346 557 346 536.5 305 c 128,-1,29
 516 264 516 264 488 244 c 0,30,31
 421 194 421 194 315 194 c 0,0,1
222 300 m 1,32,33
 247 296 247 296 266.5 296 c 128,-1,34
 286 296 286 296 297.5 296.5 c 128,-1,35
 309 297 309 297 330.5 301 c 128,-1,36
 352 305 352 305 368 313 c 0,37,38
 415 334 415 334 415 385 c 0,39,40
 415 407 415 407 399.5 418 c 128,-1,41
 384 429 384 429 342 429 c 0,42,43
 290 429 290 429 269 409 c 0,44,45
 261 401 261 401 255.5 396.5 c 128,-1,46
 250 392 250 392 244.5 380 c 128,-1,47
 239 368 239 368 237 363 c 128,-1,48
 235 358 235 358 231 342 c 256,49,50
 227 326 227 326 222 300 c 1,32,33
EndSplineSet
Substitution2: "'smcp' Lowercase to Small Capitals lookup 1 subtable" e.smcp
EndChar

StartChar: f
Encoding: 102 102 73
Width: 404
GlyphClass: 2
Flags: W
LayerCount: 2
Fore
SplineSet
311 776.5 m 128,-1,1
 343 786 343 786 402 786 c 128,-1,2
 461 786 461 786 510 762 c 1,3,-1
 497 678 l 1,4,-1
 407 679 l 2,5,6
 406 679 406 679 405 679 c 0,7,8
 365 679 365 679 352.5 658.5 c 128,-1,9
 340 638 340 638 330 569 c 2,10,-1
 324 531 l 1,11,-1
 452 531 l 1,12,-1
 435 424 l 1,13,-1
 306 424 l 1,14,-1
 237 0 l 1,15,-1
 97 0 l 1,16,-1
 166 424 l 1,17,-1
 82 424 l 1,18,-1
 96 513 l 1,19,-1
 184 531 l 1,20,-1
 195 602 l 2,21,22
 211 704 211 704 255 745 c 0,23,0
 279 767 279 767 311 776.5 c 128,-1,1
EndSplineSet
AlternateSubs2: "'salt' Stylistic Alternatives in Latin lookup 16 subtable" f.salt
Substitution2: "'smcp' Lowercase to Small Capitals lookup 1 subtable" f.smcp
EndChar

StartChar: g
Encoding: 103 103 74
Width: 556
GlyphClass: 2
Flags: W
LayerCount: 2
Fore
SplineSet
259 -155 m 2,0,1
 320 -155 320 -155 346 -102 c 0,2,3
 355 -84 355 -84 359 -60 c 2,4,-1
 374 37 l 1,5,6
 312 -1 312 -1 245.5 -1 c 128,-1,7
 179 -1 179 -1 142 20.5 c 128,-1,8
 105 42 105 42 90 81 c 0,9,10
 71 128 71 128 71 184.5 c 128,-1,11
 71 241 71 241 81 296 c 1,12,13
 101 425 101 425 160.5 482.5 c 128,-1,14
 220 540 220 540 314 540 c 0,15,16
 389 540 389 540 470 530.5 c 128,-1,17
 551 521 551 521 591 510 c 1,18,-1
 498 -76 l 2,19,20
 481 -181 481 -181 421 -232 c 1,21,22
 370 -274 370 -274 291 -274 c 0,23,24
 275 -274 275 -274 257 -272 c 2,25,-1
 19 -248 l 1,26,-1
 34 -155 l 1,27,-1
 259 -155 l 2,0,1
259 395 m 0,28,29
 249 380 249 380 236 344.5 c 128,-1,30
 223 309 223 309 216.5 254 c 128,-1,31
 210 199 210 199 210 190.5 c 128,-1,32
 210 182 210 182 212 164 c 128,-1,33
 214 146 214 146 218.5 138.5 c 128,-1,34
 223 131 223 131 230 123 c 0,35,36
 243 109 243 109 270.5 109 c 128,-1,37
 298 109 298 109 314 111 c 0,38,39
 346 114 346 114 389 131 c 1,40,-1
 437 433 l 1,41,-1
 330 433 l 2,42,43
 286 433 286 433 259 395 c 0,28,29
EndSplineSet
AlternateSubs2: "'salt' Stylistic Alternatives in Latin lookup 16 subtable" g.salt
Substitution2: "'smcp' Lowercase to Small Capitals lookup 1 subtable" g.smcp
EndChar

StartChar: h
Encoding: 104 104 75
Width: 550
GlyphClass: 2
Flags: W
LayerCount: 2
Fore
SplineSet
440 540 m 0,0,1
 574 540 574 540 574 408 c 0,2,3
 574 383 574 383 569 354 c 2,4,-1
 513 0 l 1,5,-1
 373 0 l 1,6,-1
 429 356 l 2,7,8
 431 367 431 367 431 377 c 0,9,10
 431 428 431 428 382 428 c 0,11,12
 322 428 322 428 273 398 c 0,13,14
 261 391 261 391 246 382 c 1,15,-1
 186 0 l 1,16,-1
 46 0 l 1,17,-1
 170 783 l 1,18,-1
 309 783 l 1,19,-1
 260 474 l 1,20,21
 294 497 294 497 312.5 507 c 128,-1,22
 331 517 331 517 367 528.5 c 128,-1,23
 403 540 403 540 440 540 c 0,0,1
EndSplineSet
Substitution2: "'smcp' Lowercase to Small Capitals lookup 1 subtable" h.smcp
EndChar

StartChar: i
Encoding: 105 105 76
Width: 226
GlyphClass: 2
Flags: W
LayerCount: 2
Fore
SplineSet
43 0 m 1,0,-1
 127 531 l 1,1,-1
 267 531 l 1,2,-1
 183 0 l 1,3,-1
 43 0 l 1,0,-1
175 723 m 2,4,-1
 280 723 l 2,5,6
 299 723 299 723 299 705 c 0,7,8
 299 702 299 702 299 698 c 2,9,-1
 285 609 l 2,10,11
 282 586 282 586 259 586 c 2,12,-1
 154 586 l 2,13,14
 143 586 143 586 137.5 592.5 c 128,-1,15
 132 599 132 599 134 609 c 2,16,-1
 147 698 l 2,17,18
 151 723 151 723 175 723 c 2,4,-1
EndSplineSet
Substitution2: "'smcp' Lowercase to Small Capitals lookup 1 subtable" i.smcp
EndChar

StartChar: j
Encoding: 106 106 77
Width: 243
GlyphClass: 2
Flags: W
LayerCount: 2
Fore
SplineSet
9 -270 m 1,0,-1
 136 531 l 1,1,-1
 276 531 l 1,2,-1
 191 -4 l 1,3,4
 165 -177 165 -177 112 -270 c 1,5,-1
 9 -270 l 1,0,-1
290 723 m 2,6,7
 309 723 309 723 309 703 c 0,8,9
 309 701 309 701 309 698 c 2,10,-1
 294 609 l 2,11,12
 291 586 291 586 268 586 c 2,13,-1
 163 586 l 2,14,15
 152 586 152 586 146.5 592.5 c 128,-1,16
 141 599 141 599 142 609 c 2,17,-1
 157 698 l 1,18,19
 160 723 160 723 185 723 c 2,20,-1
 290 723 l 2,6,7
EndSplineSet
Substitution2: "'smcp' Lowercase to Small Capitals lookup 1 subtable" j.smcp
EndChar

StartChar: k
Encoding: 107 107 78
Width: 530
GlyphClass: 2
Flags: W
LayerCount: 2
Fore
SplineSet
46 0 m 1,0,-1
 170 782 l 1,1,-1
 310 782 l 1,2,-1
 239 338 l 1,3,4
 301 361 301 361 360 415.5 c 128,-1,5
 419 470 419 470 437 531 c 1,6,-1
 586 531 l 1,7,8
 561 443 561 443 505 380.5 c 128,-1,9
 449 318 449 318 391 288 c 1,10,-1
 554 0 l 1,11,-1
 398 0 l 1,12,-1
 263 244 l 1,13,-1
 225 243 l 1,14,-1
 186 0 l 1,15,-1
 46 0 l 1,0,-1
EndSplineSet
Substitution2: "'smcp' Lowercase to Small Capitals lookup 1 subtable" k.smcp
EndChar

StartChar: l
Encoding: 108 108 79
Width: 307
GlyphClass: 2
Flags: W
LayerCount: 2
Fore
SplineSet
203 0 m 2,0,1
 69 0 69 0 69 134 c 0,2,3
 69 159 69 159 74 189 c 2,4,-1
 168 783 l 1,5,-1
 308 783 l 1,6,-1
 217 211 l 1,7,8
 214 179 214 179 212.5 161.5 c 128,-1,9
 211 144 211 144 217 132.5 c 128,-1,10
 223 121 223 121 229 116.5 c 128,-1,11
 235 112 235 112 268.5 99.5 c 128,-1,12
 302 87 302 87 306 87 c 1,13,-1
 293 0 l 1,14,-1
 203 0 l 2,0,1
EndSplineSet
Substitution2: "'smcp' Lowercase to Small Capitals lookup 1 subtable" l.smcp
EndChar

StartChar: m
Encoding: 109 109 80
Width: 875
GlyphClass: 2
Flags: W
LayerCount: 2
Fore
SplineSet
765 539 m 0,0,1
 898 539 898 539 898 402 c 0,2,3
 898 378 898 378 894 352 c 2,4,-1
 838 0 l 1,5,-1
 698 0 l 1,6,-1
 754 354 l 2,7,8
 756 364 756 364 756 372 c 128,-1,9
 756 380 756 380 754.5 390 c 128,-1,10
 753 400 753 400 746 409 c 0,11,12
 733 426 733 426 699 426 c 0,13,14
 627 426 627 426 571 384 c 0,15,16
 570 383 570 383 569 375 c 0,17,18
 566 354 566 354 566 351 c 2,19,-1
 510 0 l 1,20,-1
 370 0 l 1,21,-1
 426 354 l 2,22,23
 428 365 428 365 428 380 c 128,-1,24
 428 395 428 395 416.5 410.5 c 128,-1,25
 405 426 405 426 371.5 426 c 128,-1,26
 338 426 338 426 310.5 416 c 128,-1,27
 283 406 283 406 246 381 c 1,28,-1
 186 0 l 1,29,-1
 46 0 l 1,30,-1
 130 531 l 1,31,-1
 242 531 l 1,32,-1
 261 474 l 1,33,34
 264 476 264 476 277.5 484.5 c 128,-1,35
 291 493 291 493 295 495.5 c 128,-1,36
 299 498 299 498 311.5 505.5 c 128,-1,37
 324 513 324 513 329.5 515 c 128,-1,38
 335 517 335 517 346.5 522.5 c 128,-1,39
 358 528 358 528 366.5 529.5 c 128,-1,40
 375 531 375 531 387 534 c 0,41,42
 407 539 407 539 438 539 c 128,-1,43
 469 539 469 539 494 529 c 1,44,45
 545 511 545 511 561 466 c 1,46,47
 611 500 611 500 659 519.5 c 128,-1,48
 707 539 707 539 765 539 c 0,0,1
EndSplineSet
AlternateSubs2: "'salt' Stylistic Alternatives in Latin lookup 16 subtable" m.salt
Substitution2: "'smcp' Lowercase to Small Capitals lookup 1 subtable" m.smcp
EndChar

StartChar: n
Encoding: 110 110 81
Width: 550
GlyphClass: 2
Flags: W
LayerCount: 2
Fore
SplineSet
440 540 m 0,0,1
 574 540 574 540 574 408 c 0,2,3
 574 383 574 383 569 354 c 2,4,-1
 513 0 l 1,5,-1
 373 0 l 1,6,-1
 429 356 l 2,7,8
 431 367 431 367 431 377 c 0,9,10
 431 428 431 428 382 428 c 0,11,12
 322 428 322 428 273 398 c 0,13,14
 261 391 261 391 246 382 c 1,15,-1
 186 0 l 1,16,-1
 46 0 l 1,17,-1
 130 531 l 1,18,-1
 242 531 l 1,19,-1
 261 474 l 1,20,21
 297 498 297 498 314 507.5 c 128,-1,22
 331 517 331 517 366.5 528.5 c 128,-1,23
 402 540 402 540 440 540 c 0,0,1
EndSplineSet
AlternateSubs2: "'salt' Stylistic Alternatives in Latin lookup 16 subtable" n.salt
Substitution2: "'smcp' Lowercase to Small Capitals lookup 1 subtable" n.smcp
EndChar

StartChar: o
Encoding: 111 111 82
Width: 557
GlyphClass: 2
Flags: W
LayerCount: 2
Fore
SplineSet
362 538 m 0,0,1
 494 538 494 538 540 467 c 0,2,3
 570 421 570 421 570 340 c 0,4,5
 570 297 570 297 560 233 c 128,-1,6
 550 169 550 169 531 122 c 128,-1,7
 512 75 512 75 479 46 c 128,-1,8
 446 17 446 17 400 6 c 128,-1,9
 354 -5 354 -5 283 -5 c 0,10,11
 149 -5 149 -5 102 61 c 0,12,13
 70 106 70 106 70 186 c 0,14,15
 70 225 70 225 80 289.5 c 128,-1,16
 90 354 90 354 110.5 405 c 128,-1,17
 131 456 131 456 166 486 c 128,-1,18
 201 516 201 516 246.5 527 c 128,-1,19
 292 538 292 538 362 538 c 0,0,1
244 367 m 128,-1,21
 230 333 230 333 220 273 c 128,-1,22
 210 213 210 213 210 187 c 128,-1,23
 210 161 210 161 214 145.5 c 128,-1,24
 218 130 218 130 230 121 c 1,25,26
 250 108 250 108 289 108 c 128,-1,27
 328 108 328 108 345.5 111.5 c 128,-1,28
 363 115 363 115 379 130.5 c 128,-1,29
 395 146 395 146 404 175.5 c 128,-1,30
 413 205 413 205 422 259 c 0,31,32
 432 319 432 319 432 348 c 128,-1,33
 432 377 432 377 423 395 c 128,-1,34
 414 413 414 413 396.5 419 c 128,-1,35
 379 425 379 425 340.5 425 c 128,-1,36
 302 425 302 425 280 413 c 128,-1,20
 258 401 258 401 244 367 c 128,-1,21
EndSplineSet
Substitution2: "'smcp' Lowercase to Small Capitals lookup 1 subtable" o.smcp
EndChar

StartChar: p
Encoding: 112 112 83
Width: 556
GlyphClass: 2
Flags: W
LayerCount: 2
Fore
SplineSet
407 536 m 0,0,1
 460 536 460 536 495.5 513 c 128,-1,2
 531 490 531 490 548 451 c 0,3,4
 570 398 570 398 570 342.5 c 128,-1,5
 570 287 570 287 563 245 c 0,6,7
 544 115 544 115 489.5 53 c 128,-1,8
 435 -9 435 -9 338 -9 c 128,-1,9
 241 -9 241 -9 191 29 c 1,10,-1
 143 -270 l 1,11,-1
 3 -270 l 1,12,-1
 130 510 l 1,13,14
 238 536 238 536 407 536 c 0,0,1
290 100 m 0,15,16
 304 100 304 100 325 102 c 128,-1,17
 346 104 346 104 364 117 c 0,18,19
 403 144 403 144 423 270 c 1,20,21
 430 307 430 307 430 336 c 0,22,23
 430 429 430 429 367 429 c 2,24,-1
 257 429 l 1,25,-1
 206 122 l 1,26,27
 244 100 244 100 290 100 c 0,15,16
EndSplineSet
AlternateSubs2: "'salt' Stylistic Alternatives in Latin lookup 16 subtable" p.salt
Substitution2: "'smcp' Lowercase to Small Capitals lookup 1 subtable" p.smcp
EndChar

StartChar: q
Encoding: 113 113 84
Width: 553
GlyphClass: 2
Flags: W
LayerCount: 2
Fore
SplineSet
491.5 527.5 m 128,-1,1
 564 516 564 516 589 509 c 1,2,-1
 466 -270 l 1,3,-1
 326 -270 l 1,4,-1
 373 29 l 1,5,6
 309 -10 309 -10 234.5 -10 c 128,-1,7
 160 -10 160 -10 120 27 c 128,-1,8
 80 64 80 64 73 130 c 0,9,10
 71 152 71 152 71 188.5 c 128,-1,11
 71 225 71 225 79 284 c 1,12,13
 101 420 101 420 159.5 479.5 c 128,-1,14
 218 539 218 539 318.5 539 c 128,-1,0
 419 539 419 539 491.5 527.5 c 128,-1,1
259 394 m 0,15,16
 221 339 221 339 210 194 c 0,17,18
 209 178 209 178 209 170 c 128,-1,19
 209 162 209 162 210 154 c 128,-1,20
 211 146 211 146 215 133 c 128,-1,21
 219 120 219 120 226 114 c 0,22,23
 257 91 257 91 331 105 c 0,24,25
 354 109 354 109 388 122 c 1,26,-1
 437 432 l 1,27,-1
 327 432 l 2,28,29
 285 432 285 432 259 394 c 0,15,16
EndSplineSet
Substitution2: "'smcp' Lowercase to Small Capitals lookup 1 subtable" q.smcp
EndChar

StartChar: r
Encoding: 114 114 85
Width: 417
GlyphClass: 2
Flags: W
LayerCount: 2
Fore
SplineSet
423 536 m 0,0,1
 466 536 466 536 481 530 c 1,2,-1
 460 395 l 1,3,4
 431 398 431 398 383.5 398 c 128,-1,5
 336 398 336 398 302.5 385.5 c 128,-1,6
 269 373 269 373 239 339 c 1,7,-1
 186 0 l 1,8,-1
 46 0 l 1,9,-1
 130 531 l 1,10,-1
 248 531 l 1,11,-1
 259 464 l 1,12,13
 346 536 346 536 423 536 c 0,0,1
EndSplineSet
AlternateSubs2: "'salt' Stylistic Alternatives in Latin lookup 16 subtable" r.salt
Substitution2: "'smcp' Lowercase to Small Capitals lookup 1 subtable" r.smcp
EndChar

StartChar: s
Encoding: 115 115 86
Width: 509
GlyphClass: 2
Flags: W
LayerCount: 2
Fore
SplineSet
320 109 m 2,0,1
 355 109 355 109 361 143 c 2,2,-1
 366 170 l 1,3,4
 369 194 369 194 359 199 c 128,-1,5
 349 204 349 204 335 204 c 2,6,-1
 216 204 l 2,7,8
 144 204 144 204 109 244 c 0,9,10
 82 274 82 274 82 323 c 0,11,12
 82 339 82 339 85 358 c 2,13,-1
 93 406 l 2,14,15
 103 472 103 472 141 505 c 128,-1,16
 179 538 179 538 254 538 c 0,17,18
 490 538 490 538 532 511 c 1,19,-1
 518 423 l 1,20,-1
 278 423 l 2,21,22
 254 423 254 423 244 413 c 128,-1,23
 234 403 234 403 231 386 c 2,24,-1
 227 360 l 2,25,26
 223 335 223 335 233 330 c 0,27,28
 236 328 236 328 238 327 c 128,-1,29
 240 326 240 326 244 326 c 128,-1,30
 248 326 248 326 250 326 c 128,-1,31
 252 326 252 326 256.5 326 c 128,-1,32
 261 326 261 326 263 326 c 2,33,-1
 385 326 l 2,34,35
 457 326 457 326 488 283 c 0,36,37
 511 251 511 251 511 208 c 0,38,39
 511 193 511 193 508 178 c 2,40,-1
 499 117 l 2,41,42
 487 39 487 39 439 14 c 0,43,44
 399 -7 399 -7 347 -7 c 0,45,46
 95 -7 95 -7 56 22 c 1,47,-1
 70 109 l 1,48,-1
 320 109 l 2,0,1
EndSplineSet
Substitution2: "'smcp' Lowercase to Small Capitals lookup 1 subtable" s.smcp
EndChar

StartChar: t
Encoding: 116 116 87
Width: 376
GlyphClass: 2
Flags: W
LayerCount: 2
Fore
SplineSet
248 -1 m 2,0,1
 178 -1 178 -1 144 46 c 0,2,3
 121 78 121 78 121 134 c 0,4,5
 121 159 121 159 125 190 c 2,6,-1
 162 425 l 1,7,-1
 77 425 l 1,8,-1
 89 503 l 1,9,-1
 179 532 l 1,10,-1
 226 680 l 1,11,-1
 343 680 l 1,12,-1
 319 532 l 1,13,-1
 438 532 l 1,14,-1
 421 425 l 1,15,-1
 302 425 l 1,16,-1
 269 212 l 2,17,18
 259 151 259 151 266 136 c 128,-1,19
 273 121 273 121 279.5 116 c 128,-1,20
 286 111 286 111 319.5 99 c 128,-1,21
 353 87 353 87 358 87 c 1,22,-1
 344 -1 l 1,23,-1
 248 -1 l 2,0,1
EndSplineSet
AlternateSubs2: "'salt' Stylistic Alternatives in Latin lookup 16 subtable" t.salt
Substitution2: "'smcp' Lowercase to Small Capitals lookup 1 subtable" t.smcp
EndChar

StartChar: u
Encoding: 117 117 88
Width: 549
GlyphClass: 2
Flags: W
LayerCount: 2
Fore
SplineSet
206 175 m 2,0,1
 203 162 203 162 203 146 c 128,-1,2
 203 130 203 130 213.5 117 c 128,-1,3
 224 104 224 104 258.5 104 c 128,-1,4
 293 104 293 104 322.5 114.5 c 128,-1,5
 352 125 352 125 389 150 c 1,6,-1
 449 531 l 1,7,-1
 589 531 l 1,8,-1
 504 0 l 1,9,-1
 392 0 l 1,10,-1
 374 56 l 1,11,12
 325 23 325 23 287.5 7 c 128,-1,13
 250 -9 250 -9 195 -9 c 0,14,15
 61 -9 61 -9 61 123 c 0,16,17
 61 148 61 148 66 178 c 2,18,-1
 122 531 l 1,19,-1
 262 531 l 1,20,-1
 206 175 l 2,0,1
EndSplineSet
AlternateSubs2: "'salt' Stylistic Alternatives in Latin lookup 16 subtable" u.salt
Substitution2: "'smcp' Lowercase to Small Capitals lookup 1 subtable" u.smcp
EndChar

StartChar: v
Encoding: 118 118 89
Width: 534
GlyphClass: 2
Flags: W
LayerCount: 2
Fore
SplineSet
581 495 m 0,0,1
 581 439 581 439 549 376 c 2,2,-1
 355 0 l 1,3,-1
 185 0 l 1,4,-1
 84 531 l 1,5,-1
 232 531 l 1,6,-1
 289 156 l 1,7,-1
 416 420 l 2,8,9
 442 474 442 474 448 532 c 1,10,-1
 577 532 l 1,11,12
 581 514 581 514 581 495 c 0,0,1
EndSplineSet
Substitution2: "'smcp' Lowercase to Small Capitals lookup 1 subtable" v.smcp
EndChar

StartChar: w
Encoding: 119 119 90
Width: 828
GlyphClass: 2
Flags: W
LayerCount: 2
Fore
SplineSet
572 531 m 1,0,1
 577 512 577 512 577 481.5 c 128,-1,2
 577 451 577 451 559 408 c 2,3,-1
 543 370 l 1,4,-1
 582 161 l 1,5,-1
 713 420 l 1,6,7
 739 474 739 474 745 532 c 1,8,-1
 872 532 l 1,9,10
 876 513 876 513 876 492 c 0,11,12
 876 436 876 436 844 376 c 2,13,-1
 642 0 l 1,14,-1
 487 0 l 1,15,-1
 449 204 l 1,16,-1
 350 0 l 1,17,-1
 185 0 l 1,18,-1
 84 531 l 1,19,-1
 230 531 l 1,20,-1
 287 158 l 1,21,-1
 414 419 l 2,22,23
 440 473 440 473 446 531 c 1,24,-1
 572 531 l 1,0,1
EndSplineSet
Substitution2: "'smcp' Lowercase to Small Capitals lookup 1 subtable" w.smcp
EndChar

StartChar: x
Encoding: 120 120 91
Width: 572
GlyphClass: 2
Flags: W
LayerCount: 2
Fore
SplineSet
18 0 m 1,0,-1
 244 275 l 1,1,-1
 102 531 l 1,2,-1
 268 531 l 1,3,-1
 343 372 l 1,4,-1
 468 531 l 1,5,-1
 638 531 l 1,6,-1
 411 250 l 1,7,-1
 549 0 l 1,8,-1
 387 0 l 1,9,-1
 312 153 l 1,10,-1
 191 0 l 1,11,-1
 18 0 l 1,0,-1
EndSplineSet
AlternateSubs2: "'salt' Stylistic Alternatives in Latin lookup 16 subtable" x.salt
Substitution2: "'smcp' Lowercase to Small Capitals lookup 1 subtable" x.smcp
EndChar

StartChar: y
Encoding: 121 121 92
Width: 563
GlyphClass: 2
Flags: W
LayerCount: 2
Fore
SplineSet
607 491 m 0,0,1
 607 437 607 437 579 375 c 2,2,-1
 408 0 l 2,3,4
 326 -180 326 -180 208 -247 c 1,5,6
 153 -277 153 -277 92 -288 c 1,7,-1
 92 -190 l 1,8,9
 153 -157 153 -157 192.5 -110 c 128,-1,10
 232 -63 232 -63 264 0 c 1,11,12
 206 0 206 0 169.5 33.5 c 128,-1,13
 133 67 133 67 126 135 c 2,14,-1
 84 531 l 1,15,-1
 229 531 l 1,16,-1
 262 159 l 2,17,18
 266 123 266 123 313 120 c 1,19,-1
 448 421 l 1,20,21
 466 464 466 464 473 532 c 1,22,-1
 603 532 l 1,23,24
 607 512 607 512 607 491 c 0,0,1
EndSplineSet
Substitution2: "'smcp' Lowercase to Small Capitals lookup 1 subtable" y.smcp
EndChar

StartChar: z
Encoding: 122 122 93
Width: 473
GlyphClass: 2
Flags: W
LayerCount: 2
Fore
SplineSet
38 1 m 1,0,-1
 55 118 l 1,1,-1
 338 413 l 1,2,-1
 89 413 l 1,3,-1
 107 531 l 1,4,-1
 536 531 l 1,5,-1
 518 413 l 1,6,-1
 246 119 l 1,7,-1
 470 119 l 1,8,-1
 452 1 l 1,9,-1
 38 1 l 1,0,-1
EndSplineSet
Substitution2: "'smcp' Lowercase to Small Capitals lookup 1 subtable" z.smcp
EndChar

StartChar: braceleft
Encoding: 123 123 94
Width: 320
GlyphClass: 2
Flags: W
LayerCount: 2
Fore
SplineSet
266 222 m 0,0,1
 266 215 266 215 265 207 c 2,2,-1
 229 -14 l 2,3,4
 225 -41 225 -41 225 -66 c 0,5,6
 225 -131 225 -131 286 -131 c 0,7,8
 288 -131 288 -131 290 -130 c 1,9,-1
 272 -243 l 1,10,11
 154 -243 154 -243 112 -182 c 1,12,13
 81 -139 81 -139 81 -81 c 0,14,15
 81 -59 81 -59 86 -36 c 1,16,-1
 123 195 l 2,17,18
 124 200 124 200 124 205 c 0,19,20
 124 225 124 225 108 239 c 128,-1,21
 92 253 92 253 66 253 c 0,22,23
 63 253 63 253 59 252 c 1,24,-1
 76 358 l 1,25,26
 132 361 132 361 147 381 c 0,27,28
 155 391 155 391 157 406 c 2,29,-1
 194 640 l 2,30,31
 208 728 208 728 267 768.5 c 128,-1,32
 326 809 326 809 438 809 c 1,33,-1
 420 691 l 1,34,35
 369 691 369 691 349 657 c 0,36,37
 333 631 333 631 324 579 c 2,38,-1
 296 398 l 2,39,40
 282 313 282 313 185 302 c 1,41,42
 227 294 227 294 246.5 271.5 c 128,-1,43
 266 249 266 249 266 222 c 0,0,1
EndSplineSet
EndChar

StartChar: bar
Encoding: 124 124 95
Width: 247
GlyphClass: 2
Flags: W
LayerCount: 2
Fore
SplineSet
53 -72 m 1,0,-1
 186 770 l 1,1,-1
 304 770 l 1,2,-1
 171 -72 l 1,3,-1
 53 -72 l 1,0,-1
EndSplineSet
EndChar

StartChar: braceright
Encoding: 125 125 96
Width: 318
GlyphClass: 2
Flags: W
LayerCount: 2
Fore
SplineSet
1 -131 m 1,0,1
 55 -131 55 -131 77 -87 c 0,2,3
 88 -64 88 -64 94 -26 c 2,4,-1
 129 189 l 2,5,6
 141 265 141 265 239 284 c 1,7,8
 195 288 195 288 176 309.5 c 128,-1,9
 157 331 157 331 157 360 c 0,10,11
 157 370 157 370 159 380 c 2,12,-1
 188 567 l 2,13,14
 194 606 194 606 194 630 c 0,15,16
 194 675 194 675 165 686 c 0,17,18
 153 691 153 691 142.5 691 c 128,-1,19
 132 691 132 691 130 691 c 1,20,-1
 149 809 l 1,21,22
 205 809 205 809 245 791.5 c 128,-1,23
 285 774 285 774 304 744 c 0,24,25
 333 697 333 697 333 639 c 0,26,27
 333 618 333 618 328 595 c 1,28,-1
 300 390 l 2,29,30
 299 386 299 386 299 382 c 0,31,32
 299 360 299 360 317 346.5 c 128,-1,33
 335 333 335 333 365 333 c 1,34,-1
 348 228 l 1,35,36
 345 228 345 228 342 228 c 0,37,38
 275 228 275 228 267 179 c 2,39,-1
 226 -70 l 2,40,41
 210 -164 210 -164 154.5 -203.5 c 128,-1,42
 99 -243 99 -243 -18 -243 c 1,43,-1
 0 -130 l 1,44,45
 1 -131 1 -131 1 -131 c 1,0,1
EndSplineSet
EndChar

StartChar: asciitilde
Encoding: 126 126 97
Width: 418
GlyphClass: 2
Flags: W
LayerCount: 2
Fore
SplineSet
210.5 646 m 128,-1,1
 236 658 236 658 260 658 c 128,-1,2
 284 658 284 658 313 640.5 c 128,-1,3
 342 623 342 623 362 623 c 0,4,5
 363 623 363 623 364 623 c 0,6,7
 407 623 407 623 462 663 c 1,8,-1
 476 603 l 1,9,10
 406 531 406 531 352 531 c 0,11,12
 329 531 329 531 296 548.5 c 128,-1,13
 263 566 263 566 249.5 566 c 128,-1,14
 236 566 236 566 228.5 565.5 c 128,-1,15
 221 565 221 565 213.5 562.5 c 128,-1,16
 206 560 206 560 201 558.5 c 128,-1,17
 196 557 196 557 187 552.5 c 128,-1,18
 178 548 178 548 174.5 546.5 c 128,-1,19
 171 545 171 545 160 539 c 128,-1,20
 149 533 149 533 146 531 c 1,21,-1
 130 586 l 1,22,23
 155 609 155 609 170 621.5 c 128,-1,0
 185 634 185 634 210.5 646 c 128,-1,1
EndSplineSet
EndChar

StartChar: exclamdown
Encoding: 161 161 98
Width: 276
GlyphClass: 2
Flags: W
LayerCount: 2
Fore
SplineSet
22 -270 m 1,0,-1
 123 264 l 1,1,-1
 238 264 l 1,2,-1
 168 -270 l 1,3,-1
 22 -270 l 1,0,-1
126 345 m 0,4,5
 126 348 126 348 127 351 c 2,6,-1
 140 438 l 2,7,8
 143 460 143 460 168 461 c 1,9,-1
 253 461 l 2,10,11
 262 461 262 461 268 453.5 c 128,-1,12
 274 446 274 446 273 435 c 2,13,-1
 259 351 l 2,14,15
 255 327 255 327 234 325 c 1,16,-1
 145 325 l 2,17,18
 126 325 126 325 126 345 c 0,4,5
EndSplineSet
Substitution2: "'case' Case-Sensitive Forms lookup 18 subtable" exclamdown.alt
Substitution2: "'smcp' Lowercase to Small Capitals lookup 1 subtable" exclamdown.smcp
EndChar

StartChar: cent
Encoding: 162 162 99
Width: 485
GlyphClass: 2
Flags: W
LayerCount: 2
Fore
SplineSet
182.5 515 m 128,-1,1
 210 530 210 530 233 533.5 c 128,-1,2
 256 537 256 537 273 537 c 128,-1,3
 290 537 290 537 295 537 c 1,4,-1
 311 634 l 1,5,-1
 398 634 l 1,6,-1
 381 534 l 1,7,8
 467 525 467 525 529 504 c 1,9,-1
 515 418 l 1,10,11
 420 424 420 424 365.5 424 c 128,-1,12
 311 424 311 424 301.5 423.5 c 128,-1,13
 292 423 292 423 278 418 c 128,-1,14
 264 413 264 413 256.5 403 c 128,-1,15
 249 393 249 393 240 376 c 0,16,17
 225 346 225 346 210 263 c 1,18,19
 202 198 202 198 202 173.5 c 128,-1,20
 202 149 202 149 212 133.5 c 128,-1,21
 222 118 222 118 237 112.5 c 128,-1,22
 252 107 252 107 287 107 c 0,23,24
 362 107 362 107 446 114 c 2,25,-1
 474 116 l 1,26,-1
 460 28 l 1,27,28
 391 -3 391 -3 294 -6 c 1,29,-1
 280 -95 l 1,30,-1
 194 -95 l 1,31,-1
 208 -5 l 1,32,33
 125 -4 125 -4 86 66 c 0,34,35
 62 110 62 110 62 168.5 c 128,-1,36
 62 227 62 227 72 288.5 c 128,-1,37
 82 350 82 350 99.5 397.5 c 128,-1,38
 117 445 117 445 136 472.5 c 128,-1,0
 155 500 155 500 182.5 515 c 128,-1,1
EndSplineSet
EndChar

StartChar: sterling
Encoding: 163 163 100
Width: 582
GlyphClass: 2
Flags: W
LayerCount: 2
Fore
SplineSet
625 720 m 2,0,-1
 658 716 l 1,1,-1
 641 604 l 1,2,-1
 455 604 l 2,3,4
 419 604 419 604 398 600.5 c 128,-1,5
 377 597 377 597 361 585 c 128,-1,6
 345 573 345 573 336.5 552 c 128,-1,7
 328 531 328 531 323 495 c 2,8,-1
 309 408 l 1,9,-1
 528 392 l 1,10,-1
 516 314 l 1,11,-1
 294 314 l 1,12,-1
 265 129 l 1,13,-1
 565 129 l 1,14,-1
 544 0 l 1,15,-1
 38 0 l 1,16,-1
 55 108 l 1,17,-1
 125 129 l 1,18,-1
 154 314 l 1,19,-1
 88 314 l 1,20,-1
 99 386 l 1,21,-1
 169 408 l 1,22,-1
 184 500 l 2,23,24
 206 639 206 639 266 685 c 0,25,26
 288 702 288 702 307.5 711 c 128,-1,27
 327 720 327 720 358 725 c 0,28,29
 403 732 403 732 465 732 c 128,-1,30
 527 732 527 732 625 720 c 2,0,-1
EndSplineSet
Substitution2: "'smcp' Lowercase to Small Capitals lookup 1 subtable" sterling.smcp
EndChar

StartChar: currency
Encoding: 164 164 101
Width: 449
GlyphClass: 2
Flags: W
LayerCount: 2
Fore
SplineSet
435 333 m 0,0,1
 435 266 435 266 391 214 c 1,2,-1
 432 167 l 1,3,-1
 376 117 l 1,4,-1
 332 168 l 1,5,6
 297 148 297 148 249.5 148 c 128,-1,7
 202 148 202 148 166 175 c 1,8,-1
 113 127 l 1,9,-1
 69 180 l 1,10,-1
 124 228 l 1,11,12
 110 260 110 260 110 291 c 0,13,14
 110 347 110 347 144 392 c 1,15,-1
 104 438 l 1,16,-1
 160 487 l 1,17,-1
 198 442 l 1,18,19
 243 471 243 471 294 471 c 128,-1,20
 345 471 345 471 381 443 c 1,21,-1
 435 491 l 1,22,-1
 480 440 l 1,23,-1
 423 391 l 1,24,25
 435 363 435 363 435 333 c 0,0,1
190 296 m 0,26,27
 190 271 190 271 208 250 c 0,28,29
 226 228 226 228 261.5 228 c 128,-1,30
 297 228 297 228 322 251 c 0,31,32
 356 281 356 281 356 325 c 0,33,34
 356 349 356 349 338.5 370.5 c 128,-1,35
 321 392 321 392 286 392 c 0,36,37
 249 392 249 392 223 369 c 0,38,39
 190 339 190 339 190 296 c 0,26,27
EndSplineSet
EndChar

StartChar: yen
Encoding: 165 165 102
Width: 634
GlyphClass: 2
Flags: W
LayerCount: 2
Fore
SplineSet
119 139 m 1,0,-1
 132 220 l 1,1,-1
 270 220 l 1,2,-1
 275 256 l 1,3,-1
 138 256 l 1,4,-1
 151 338 l 1,5,-1
 252 338 l 1,6,-1
 130 732 l 1,7,-1
 282 732 l 1,8,-1
 364 404 l 1,9,-1
 567 732 l 1,10,-1
 734 732 l 1,11,-1
 464 338 l 1,12,-1
 578 338 l 1,13,-1
 565 256 l 1,14,-1
 415 256 l 1,15,-1
 410 220 l 1,16,-1
 559 220 l 1,17,-1
 546 139 l 1,18,-1
 398 139 l 1,19,-1
 378 0 l 1,20,-1
 238 0 l 1,21,-1
 258 139 l 1,22,-1
 119 139 l 1,0,-1
EndSplineSet
Substitution2: "'smcp' Lowercase to Small Capitals lookup 1 subtable" yen.smcp
EndChar

StartChar: brokenbar
Encoding: 166 166 103
Width: 248
GlyphClass: 2
Flags: W
LayerCount: 2
Fore
SplineSet
53 -72 m 1,0,-1
 105 256 l 1,1,-1
 223 256 l 1,2,-1
 171 -72 l 1,3,-1
 53 -72 l 1,0,-1
132 429 m 1,4,-1
 186 770 l 1,5,-1
 304 770 l 1,6,-1
 250 429 l 1,7,-1
 132 429 l 1,4,-1
EndSplineSet
EndChar

StartChar: section
Encoding: 167 167 104
Width: 540
GlyphClass: 2
Flags: W
LayerCount: 2
Fore
SplineSet
487 292 m 1,0,1
 531 282 531 282 531 213 c 0,2,3
 531 198 531 198 529 183 c 2,4,-1
 521 126 l 1,5,6
 507 42 507 42 463 15 c 0,7,8
 425 -8 425 -8 357 -8 c 128,-1,9
 289 -8 289 -8 201 -2.5 c 128,-1,10
 113 3 113 3 80 11 c 1,11,-1
 95 110 l 1,12,-1
 333 110 l 2,13,14
 355 110 355 110 366.5 116.5 c 128,-1,15
 378 123 378 123 382 141 c 1,16,-1
 388 181 l 1,17,18
 390 202 390 202 384 206 c 0,19,20
 374 214 374 214 352 214 c 2,21,-1
 230 214 l 2,22,23
 161 214 161 214 124 246 c 0,24,25
 93 273 93 273 93 321 c 0,26,27
 93 334 93 334 95 348 c 2,28,-1
 101 382 l 2,29,30
 109 432 109 432 126 453 c 0,31,32
 145 476 145 476 179 486 c 1,33,34
 133 513 133 513 133 571 c 0,35,36
 133 585 133 585 135 601 c 2,37,-1
 142 649 l 2,38,39
 161 784 161 784 306 784 c 0,40,41
 369 784 369 784 457.5 778.5 c 128,-1,42
 546 773 546 773 582 765 c 1,43,-1
 567 666 l 1,44,-1
 326 666 l 2,45,46
 287 666 287 666 281 630 c 2,47,-1
 275 595 l 2,48,49
 275 592 275 592 275 588 c 0,50,51
 275 561 275 561 310 561 c 2,52,-1
 433 561 l 2,53,54
 508 561 508 561 539 530 c 128,-1,55
 570 499 570 499 570 455 c 0,56,57
 570 443 570 443 568 429 c 2,58,-1
 563 395 l 2,59,60
 550 309 550 309 487 292 c 1,0,1
425 424 m 0,61,62
 425 448 425 448 383 448 c 2,63,-1
 297 448 l 2,64,65
 269 448 269 448 259 438.5 c 128,-1,66
 249 429 249 429 245 403 c 2,67,-1
 239 366 l 2,68,69
 238 358 238 358 238 349 c 0,70,71
 238 326 238 326 278 326 c 2,72,-1
 364 326 l 2,73,74
 394 326 394 326 404 335 c 128,-1,75
 414 344 414 344 417 367 c 2,76,-1
 423 405 l 2,77,78
 425 416 425 416 425 424 c 0,61,62
EndSplineSet
EndChar

StartChar: dieresis
Encoding: 168 168 105
Width: 447
GlyphClass: 2
Flags: W
LayerCount: 2
Fore
SplineSet
167.5 632.5 m 128,-1,1
 182 640 182 640 202.5 640 c 128,-1,2
 223 640 223 640 235.5 625 c 128,-1,3
 248 610 248 610 248 598.5 c 128,-1,4
 248 587 248 587 247 578.5 c 128,-1,5
 246 570 246 570 239.5 559 c 128,-1,6
 233 548 233 548 224 540 c 0,7,8
 204 523 204 523 179.5 523 c 128,-1,9
 155 523 155 523 142 538.5 c 128,-1,10
 129 554 129 554 129 565.5 c 128,-1,11
 129 577 129 577 130.5 587.5 c 128,-1,12
 132 598 132 598 142.5 611.5 c 128,-1,0
 153 625 153 625 167.5 632.5 c 128,-1,1
422.5 632.5 m 128,-1,14
 437 640 437 640 457.5 640 c 128,-1,15
 478 640 478 640 490.5 625 c 128,-1,16
 503 610 503 610 503 598 c 0,17,18
 503 562 503 562 481 542.5 c 128,-1,19
 459 523 459 523 434.5 523 c 128,-1,20
 410 523 410 523 397 538.5 c 128,-1,21
 384 554 384 554 384 565.5 c 128,-1,22
 384 577 384 577 385.5 587.5 c 128,-1,23
 387 598 387 598 397.5 611.5 c 128,-1,13
 408 625 408 625 422.5 632.5 c 128,-1,14
EndSplineSet
Substitution2: "'smcp' Lowercase to Small Capitals lookup 1 subtable" dieresis.smcp
EndChar

StartChar: copyright
Encoding: 169 169 106
Width: 797
GlyphClass: 2
Flags: W
LayerCount: 2
Fore
SplineSet
409 732 m 2,0,-1
 636 732 l 2,1,2
 733 732 733 732 777 672 c 256,3,4
 821 612 821 612 825 527 c 0,5,6
 827 505 827 505 827 483 c 0,7,8
 827 422 827 422 815 352 c 0,9,10
 788 180 788 180 714.5 90 c 128,-1,11
 641 0 641 0 528 0 c 2,12,-1
 301 0 l 2,13,14
 207 0 207 0 156 61 c 0,15,16
 90 140 90 140 90 284 c 0,17,18
 90 380 90 380 121 488 c 0,19,20
 153 601 153 601 216 662 c 0,21,22
 289 732 289 732 409 732 c 2,0,-1
192 383 m 0,23,24
 182 316 182 316 182 282 c 128,-1,25
 182 248 182 248 184 227 c 0,26,27
 190 165 190 165 222 125.5 c 128,-1,28
 254 86 254 86 309 86 c 2,29,-1
 533 86 l 2,30,31
 600 86 600 86 651 154 c 0,32,33
 712 237 712 237 732 431 c 0,34,35
 737 472 737 472 737 502 c 128,-1,36
 737 532 737 532 732 554.5 c 128,-1,37
 727 577 727 577 715 600 c 0,38,39
 693 646 693 646 628 646 c 2,40,-1
 397 646 l 2,41,42
 231 646 231 646 192 383 c 0,23,24
396.5 574 m 128,-1,44
 423 583 423 583 458.5 583 c 128,-1,45
 494 583 494 583 547 576.5 c 128,-1,46
 600 570 600 570 637 559 c 1,47,-1
 626 485 l 1,48,49
 543 497 543 497 466 497 c 0,50,51
 425 497 425 497 403.5 466.5 c 128,-1,52
 382 436 382 436 370 362 c 0,53,54
 366 334 366 334 366 309 c 0,55,56
 366 233 366 233 428 233 c 0,57,58
 501 233 501 233 594 249 c 1,59,-1
 583 175 l 1,60,61
 510 147 510 147 393 147 c 0,62,63
 328 147 328 147 294 202 c 1,64,65
 273 238 273 238 273 285.5 c 128,-1,66
 273 333 273 333 281 384.5 c 128,-1,67
 289 436 289 436 306 477.5 c 128,-1,68
 323 519 323 519 346.5 542 c 128,-1,43
 370 565 370 565 396.5 574 c 128,-1,44
EndSplineSet
EndChar

StartChar: ordfeminine
Encoding: 170 170 107
Width: 364
GlyphClass: 3
Flags: W
LayerCount: 2
Fore
SplineSet
64 262 m 1,0,-1
 74 332 l 1,1,-1
 395 332 l 1,2,-1
 385 262 l 1,3,-1
 64 262 l 1,0,-1
230 729.5 m 128,-1,5
 246 732 246 732 260.5 732.5 c 128,-1,6
 275 733 275 733 297.5 733 c 128,-1,7
 320 733 320 733 369.5 723 c 128,-1,8
 419 713 419 713 442 690 c 1,9,-1
 396 375 l 1,10,-1
 325 375 l 1,11,-1
 309 423 l 1,12,13
 295 401 295 401 261 385.5 c 128,-1,14
 227 370 227 370 195 370 c 0,15,16
 142 370 142 370 111 423 c 0,17,18
 91 456 91 456 91 496 c 128,-1,19
 91 536 91 536 98.5 575.5 c 128,-1,20
 106 615 106 615 121 645.5 c 128,-1,21
 136 676 136 676 152 692 c 128,-1,22
 168 708 168 708 191 717.5 c 128,-1,4
 214 727 214 727 230 729.5 c 128,-1,5
338 644 m 1,23,24
 314 653 314 653 292 653 c 128,-1,25
 270 653 270 653 259.5 650 c 128,-1,26
 249 647 249 647 240.5 643 c 128,-1,27
 232 639 232 639 223 630 c 0,28,29
 203 611 203 611 195 558 c 0,30,31
 191 536 191 536 191 520 c 0,32,33
 191 463 191 463 231 463 c 0,34,35
 282 463 282 463 318 503 c 1,36,-1
 338 644 l 1,23,24
EndSplineSet
Substitution2: "'smcp' Lowercase to Small Capitals lookup 1 subtable" ordfeminine.smcp
Ligature2: "'ordn' Ordinals lookup 0 subtable" a
EndChar

StartChar: guillemotleft
Encoding: 171 171 108
Width: 578
GlyphClass: 2
Flags: W
LayerCount: 2
Fore
SplineSet
94 354 m 1,0,-1
 332 557 l 1,1,-1
 398 480 l 1,2,-1
 240 345 l 1,3,-1
 356 210 l 1,4,-1
 272 146 l 1,5,-1
 94 354 l 1,0,-1
309 354 m 1,6,-1
 547 557 l 1,7,-1
 613 480 l 1,8,-1
 455 345 l 1,9,-1
 571 210 l 1,10,-1
 487 146 l 1,11,-1
 309 354 l 1,6,-1
EndSplineSet
EndChar

StartChar: logicalnot
Encoding: 172 172 109
Width: 493
GlyphClass: 2
Flags: W
LayerCount: 2
Fore
SplineSet
516 352 m 1,0,-1
 485 159 l 1,1,-1
 372 159 l 1,2,-1
 385 240 l 1,3,-1
 71 240 l 1,4,-1
 89 352 l 1,5,-1
 516 352 l 1,0,-1
EndSplineSet
EndChar

StartChar: uni00AD
Encoding: 173 173 110
Width: 353
GlyphClass: 2
Flags: W
LayerCount: 2
Fore
SplineSet
56 231 m 1,0,-1
 75 349 l 1,1,-1
 389 349 l 1,2,-1
 370 231 l 1,3,-1
 56 231 l 1,0,-1
EndSplineSet
Substitution2: "'case' Case-Sensitive Forms lookup 18 subtable" uni00AD.alt
Substitution2: "'c2sc' Capitals to Small Capitals in Latin lookup 2 subtable" uni00AD.smcp
Substitution2: "'smcp' Lowercase to Small Capitals lookup 1 subtable" uni00AD.smcp
EndChar

StartChar: registered
Encoding: 174 174 111
Width: 797
GlyphClass: 2
Flags: W
LayerCount: 2
Fore
SplineSet
409 732 m 2,0,-1
 636 732 l 2,1,2
 733 732 733 732 777 672 c 256,3,4
 821 612 821 612 825 527 c 0,5,6
 827 505 827 505 827 483 c 0,7,8
 827 422 827 422 815 352 c 0,9,10
 788 180 788 180 714.5 90 c 128,-1,11
 641 0 641 0 528 0 c 2,12,-1
 301 0 l 2,13,14
 207 0 207 0 156 61 c 0,15,16
 90 140 90 140 90 284 c 0,17,18
 90 380 90 380 121 488 c 0,19,20
 153 601 153 601 216 662 c 0,21,22
 289 732 289 732 409 732 c 2,0,-1
192 383 m 0,23,24
 182 316 182 316 182 282 c 128,-1,25
 182 248 182 248 184 227 c 0,26,27
 190 165 190 165 222 125.5 c 128,-1,28
 254 86 254 86 309 86 c 2,29,-1
 533 86 l 2,30,31
 600 86 600 86 651 154 c 0,32,33
 712 237 712 237 732 431 c 0,34,35
 737 472 737 472 737 502 c 128,-1,36
 737 532 737 532 732 554.5 c 128,-1,37
 727 577 727 577 715 600 c 0,38,39
 693 646 693 646 628 646 c 2,40,-1
 397 646 l 2,41,42
 231 646 231 646 192 383 c 0,23,24
520 580 m 2,43,44
 570 580 570 580 604 554 c 0,45,46
 635 530 635 530 635 475 c 0,47,48
 635 432 635 432 624 402 c 128,-1,49
 613 372 613 372 604.5 359.5 c 128,-1,50
 596 347 596 347 582 337 c 0,51,52
 563 324 563 324 533 316 c 1,53,-1
 595 153 l 1,54,-1
 496 153 l 1,55,-1
 438 312 l 1,56,-1
 388 324 l 1,57,-1
 361 153 l 1,58,-1
 269 153 l 1,59,-1
 337 580 l 1,60,-1
 520 580 l 2,43,44
474 390 m 2,61,62
 512 390 512 390 523.5 400 c 128,-1,63
 535 410 535 410 538.5 432.5 c 128,-1,64
 542 455 542 455 542 467.5 c 128,-1,65
 542 480 542 480 532 487 c 128,-1,66
 522 494 522 494 490 494 c 2,67,-1
 415 494 l 1,68,-1
 399 390 l 1,69,-1
 474 390 l 2,61,62
EndSplineSet
EndChar

StartChar: macron
Encoding: 175 175 112
Width: 367
GlyphClass: 2
Flags: W
LayerCount: 2
Fore
SplineSet
122 531 m 1,0,-1
 135 610 l 1,1,-1
 427 610 l 1,2,-1
 414 531 l 1,3,-1
 122 531 l 1,0,-1
EndSplineSet
Substitution2: "'smcp' Lowercase to Small Capitals lookup 1 subtable" macron.smcp
EndChar

StartChar: degree
Encoding: 176 176 113
Width: 275
GlyphClass: 2
Flags: W
LayerCount: 2
Fore
SplineSet
235 733 m 0,0,1
 301 733 301 733 328 683 c 0,2,3
 339 662 339 662 339 648.5 c 128,-1,4
 339 635 339 635 339 632 c 0,5,6
 337 590 337 590 306.5 561.5 c 128,-1,7
 276 533 276 533 233.5 533 c 128,-1,8
 191 533 191 533 163.5 560.5 c 128,-1,9
 136 588 136 588 136 626 c 0,10,11
 136 672 136 672 168 702.5 c 128,-1,12
 200 733 200 733 235 733 c 0,0,1
270 664 m 128,-1,14
 258 677 258 677 236 677 c 128,-1,15
 214 677 214 677 200 654 c 0,16,17
 193 643 193 643 193 631 c 128,-1,18
 193 619 193 619 198.5 609.5 c 128,-1,19
 204 600 204 600 214 594 c 128,-1,20
 224 588 224 588 236 588 c 128,-1,21
 248 588 248 588 259 594 c 0,22,23
 282 607 282 607 282 629 c 128,-1,13
 282 651 282 651 270 664 c 128,-1,14
EndSplineSet
Substitution2: "'smcp' Lowercase to Small Capitals lookup 1 subtable" degree.smcp
EndChar

StartChar: plusminus
Encoding: 177 177 114
Width: 500
GlyphClass: 2
Flags: W
LayerCount: 2
Fore
SplineSet
54 70 m 1,0,-1
 72 188 l 1,1,-1
 488 188 l 1,2,-1
 470 70 l 1,3,-1
 54 70 l 1,0,-1
104 382 m 1,4,-1
 122 500 l 1,5,-1
 270 500 l 1,6,-1
 294 648 l 1,7,-1
 412 648 l 1,8,-1
 388 500 l 1,9,-1
 538 500 l 1,10,-1
 520 382 l 1,11,-1
 370 382 l 1,12,-1
 346 232 l 1,13,-1
 228 232 l 1,14,-1
 252 382 l 1,15,-1
 104 382 l 1,4,-1
EndSplineSet
EndChar

StartChar: twosuperior
Encoding: 178 178 115
Width: 398
GlyphClass: 2
Flags: W
LayerCount: 2
Fore
SplineSet
351 687 m 0,0,1
 353 696 353 696 353 709 c 0,2,3
 353 744 353 744 284 744 c 2,4,-1
 125 744 l 2,5,6
 124 744 124 744 135 805 c 1,7,-1
 138 825 l 1,8,9
 248 844 248 844 336 844 c 0,10,11
 384 844 384 844 415 819 c 1,12,13
 465 781 465 781 465 716 c 0,14,15
 465 612 465 612 338 506 c 0,16,17
 325 495 325 495 300 475.5 c 128,-1,18
 275 456 275 456 274 455 c 1,19,-1
 424 455 l 1,20,-1
 408 355 l 1,21,-1
 67 355 l 1,22,-1
 82 451 l 1,23,24
 340 613 340 613 351 687 c 0,0,1
EndSplineSet
EndChar

StartChar: threesuperior
Encoding: 179 179 116
Width: 407
GlyphClass: 2
Flags: W
LayerCount: 2
Fore
SplineSet
271 351 m 1,0,-1
 241 351 l 2,1,2
 147 351 147 351 117 357 c 128,-1,3
 87 363 87 363 69 371 c 1,4,-1
 82 450 l 1,5,-1
 242 451 l 2,6,7
 278 451 278 451 295.5 459.5 c 128,-1,8
 313 468 313 468 317 492 c 2,9,-1
 319 505 l 2,10,11
 320 510 320 510 320 520.5 c 128,-1,12
 320 531 320 531 307 539.5 c 128,-1,13
 294 548 294 548 261 549 c 2,14,-1
 139 554 l 1,15,-1
 152 641 l 1,16,-1
 278 646 l 2,17,18
 323 648 323 648 335 660 c 128,-1,19
 347 672 347 672 349 687 c 2,20,-1
 351 699 l 2,21,22
 352 705 352 705 352 714 c 0,23,24
 352 740 352 740 292 740 c 2,25,-1
 123 740 l 1,26,-1
 136 819 l 1,27,28
 195 839 195 839 299 839 c 0,29,30
 324 839 324 839 353 839 c 0,31,32
 409 838 409 838 436 805.5 c 128,-1,33
 463 773 463 773 463 735 c 0,34,35
 463 724 463 724 461 712 c 2,36,-1
 456 682 l 2,37,38
 443 605 443 605 386 593 c 1,39,40
 428 577 428 577 428 516 c 0,41,42
 428 503 428 503 426 490 c 2,43,-1
 422 466 l 2,44,45
 403 351 403 351 272 351 c 0,46,47
 271 351 271 351 271 351 c 1,0,-1
EndSplineSet
EndChar

StartChar: acute
Encoding: 180 180 117
Width: 243
GlyphClass: 2
Flags: W
LayerCount: 2
Fore
SplineSet
99 531 m 1,0,-1
 212 670 l 1,1,-1
 334 670 l 1,2,-1
 190 531 l 1,3,-1
 99 531 l 1,0,-1
EndSplineSet
Substitution2: "'smcp' Lowercase to Small Capitals lookup 1 subtable" acute.smcp
EndChar

StartChar: uni00B5
Encoding: 181 181 118
Width: 587
GlyphClass: 2
Flags: W
LayerCount: 2
Fore
SplineSet
234 154 m 0,0,1
 234 104 234 104 283 104 c 0,2,3
 324 104 324 104 353 114.5 c 128,-1,4
 382 125 382 125 419 150 c 1,5,-1
 480 531 l 1,6,-1
 620 531 l 1,7,-1
 536 0 l 1,8,-1
 423 0 l 1,9,-1
 404 56 l 1,10,11
 398 53 398 53 382.5 44.5 c 128,-1,12
 367 36 367 36 359.5 32 c 128,-1,13
 352 28 352 28 338.5 21.5 c 128,-1,14
 325 15 325 15 316 11 c 0,15,16
 256 -11 256 -11 209 4 c 1,17,-1
 166 -270 l 1,18,-1
 26 -270 l 1,19,-1
 153 531 l 1,20,-1
 293 531 l 1,21,-1
 236 175 l 2,22,23
 234 164 234 164 234 154 c 0,0,1
EndSplineSet
EndChar

StartChar: paragraph
Encoding: 182 182 119
Width: 576
GlyphClass: 2
Flags: W
LayerCount: 2
Fore
SplineSet
302 732 m 2,0,-1
 678 732 l 1,1,-1
 661 628 l 1,2,-1
 609 628 l 1,3,-1
 509 0 l 1,4,-1
 408 0 l 1,5,-1
 508 630 l 1,6,-1
 441 630 l 1,7,-1
 299 -270 l 1,8,-1
 197 -270 l 1,9,-1
 299 372 l 1,10,11
 297 372 297 372 291 368.5 c 128,-1,12
 285 365 285 365 279 363 c 0,13,14
 261 355 261 355 230.5 355 c 128,-1,15
 200 355 200 355 171 369 c 0,16,17
 107 401 107 401 107 485 c 0,18,19
 107 498 107 498 109 511 c 2,20,-1
 123 604 l 2,21,22
 134 679 134 679 186 707 c 0,23,24
 232 732 232 732 302 732 c 2,0,-1
212 511 m 2,25,26
 211 502 211 502 211 494 c 128,-1,27
 211 486 211 486 213 477 c 128,-1,28
 215 468 215 468 225 464 c 1,29,30
 238 457 238 457 262 457 c 2,31,-1
 311 457 l 1,32,-1
 340 632 l 1,33,-1
 291 632 l 2,34,35
 255 632 255 632 241 619 c 128,-1,36
 227 606 227 606 222 572 c 2,37,-1
 212 511 l 2,25,26
EndSplineSet
EndChar

StartChar: periodcentered
Encoding: 183 183 120
Width: 262
GlyphClass: 2
Flags: W
LayerCount: 2
Fore
SplineSet
160 455 m 2,0,-1
 246 455 l 2,1,2
 268 455 268 455 268 437 c 0,3,4
 268 434 268 434 267 430 c 2,5,-1
 252 340 l 2,6,7
 249 317 249 317 224 317 c 2,8,-1
 138 317 l 2,9,10
 128 317 128 317 122 323 c 128,-1,11
 116 329 116 329 117 340 c 2,12,-1
 132 430 l 1,13,14
 135 455 135 455 160 455 c 2,0,-1
EndSplineSet
Substitution2: "'smcp' Lowercase to Small Capitals lookup 1 subtable" periodcentered.smcp
EndChar

StartChar: cedilla
Encoding: 184 184 121
Width: 243
GlyphClass: 2
Flags: W
LayerCount: 2
Fore
SplineSet
66 -178 m 2,0,-1
 10 -178 l 1,1,-1
 20 -118 l 1,2,-1
 66 -103 l 1,3,4
 93 -93 93 -93 100 -69 c 0,5,6
 103 -59 103 -59 106 -37 c 1,7,-1
 201 -37 l 1,8,9
 193 -90 193 -90 178 -120 c 0,10,11
 149 -178 149 -178 66 -178 c 2,0,-1
EndSplineSet
EndChar

StartChar: onesuperior
Encoding: 185 185 122
Width: 279
GlyphClass: 2
Flags: W
LayerCount: 2
Fore
SplineSet
110 704 m 1,0,-1
 121 778 l 1,1,2
 146 778 146 778 186 799.5 c 128,-1,3
 226 821 226 821 241 838 c 1,4,-1
 347 838 l 1,5,-1
 270 355 l 1,6,-1
 162 355 l 1,7,-1
 222 727 l 1,8,9
 193 704 193 704 110 704 c 1,0,-1
EndSplineSet
EndChar

StartChar: ordmasculine
Encoding: 186 186 123
Width: 385
GlyphClass: 3
Flags: W
LayerCount: 2
Fore
SplineSet
77 264 m 1,0,-1
 88 333 l 1,1,-1
 410 333 l 1,2,-1
 399 264 l 1,3,-1
 77 264 l 1,0,-1
432 690 m 1,4,5
 456 660 456 660 456 602 c 0,6,7
 456 574 456 574 449 532 c 128,-1,8
 442 490 442 490 429.5 459 c 128,-1,9
 417 428 417 428 394 408 c 128,-1,10
 371 388 371 388 338 380.5 c 128,-1,11
 305 373 305 373 255 373 c 0,12,13
 166 373 166 373 132 418 c 0,14,15
 109 449 109 449 109 504 c 0,16,17
 109 529 109 529 113 558 c 0,18,19
 130 662 130 662 172 698 c 0,20,21
 214 735 214 735 306 735 c 128,-1,22
 398 735 398 735 432 690 c 1,4,5
254 642 m 0,23,24
 228 631 228 631 217 560 c 0,25,26
 211 525 211 525 211 508 c 128,-1,27
 211 491 211 491 214 481.5 c 128,-1,28
 217 472 217 472 225 467 c 0,29,30
 239 460 239 460 264.5 460 c 128,-1,31
 290 460 290 460 299.5 461.5 c 128,-1,32
 309 463 309 463 320 472 c 0,33,34
 338 486 338 486 346.5 538 c 128,-1,35
 355 590 355 590 355 606.5 c 128,-1,36
 355 623 355 623 348.5 633 c 128,-1,37
 342 643 342 643 331 645 c 0,38,39
 320 648 320 648 293.5 648 c 128,-1,40
 267 648 267 648 254 642 c 0,23,24
EndSplineSet
Substitution2: "'smcp' Lowercase to Small Capitals lookup 1 subtable" ordmasculine.smcp
Ligature2: "'ordn' Ordinals lookup 0 subtable" o
EndChar

StartChar: guillemotright
Encoding: 187 187 124
Width: 576
GlyphClass: 2
Flags: W
LayerCount: 2
Fore
SplineSet
73 224 m 1,0,-1
 232 363 l 1,1,-1
 121 489 l 1,2,-1
 202 557 l 1,3,-1
 377 352 l 1,4,-1
 141 146 l 1,5,-1
 73 224 l 1,0,-1
290 224 m 1,6,-1
 449 363 l 1,7,-1
 338 489 l 1,8,-1
 418 557 l 1,9,-1
 594 352 l 1,10,-1
 358 146 l 1,11,-1
 290 224 l 1,6,-1
EndSplineSet
EndChar

StartChar: onequarter
Encoding: 188 188 125
Width: 967
GlyphClass: 3
Flags: W
LayerCount: 2
Fore
SplineSet
110 604 m 1,0,-1
 121 678 l 1,1,2
 146 678 146 678 186 699.5 c 128,-1,3
 226 721 226 721 241 738 c 1,4,-1
 347 738 l 1,5,-1
 270 255 l 1,6,-1
 162 255 l 1,7,-1
 222 627 l 1,8,9
 193 604 193 604 110 604 c 1,0,-1
192 0 m 1,10,-1
 725 770 l 1,11,-1
 830 770 l 1,12,-1
 297 0 l 1,13,-1
 192 0 l 1,10,-1
561 144 m 1,14,-1
 786 481 l 1,15,-1
 904 481 l 1,16,-1
 721 200 l 1,17,-1
 830 200 l 1,18,-1
 846 303 l 1,19,-1
 879 352 l 1,20,-1
 959 352 l 1,21,-1
 935 200 l 1,22,-1
 984 200 l 1,23,-1
 970 115 l 1,24,-1
 917 98 l 1,25,-1
 904 1 l 1,26,-1
 799 1 l 1,27,-1
 814 97 l 1,28,-1
 583 97 l 1,29,-1
 561 144 l 1,14,-1
EndSplineSet
Ligature2: "'frac' Diagonal Fractions lookup 7 subtable" one slash four
Ligature2: "'frac' Diagonal Fractions lookup 7 subtable" one fraction four
EndChar

StartChar: onehalf
Encoding: 189 189 126
Width: 1014
GlyphClass: 3
Flags: W
LayerCount: 2
Fore
SplineSet
110 604 m 1,0,-1
 121 678 l 1,1,2
 146 678 146 678 186 699.5 c 128,-1,3
 226 721 226 721 241 738 c 1,4,-1
 347 738 l 1,5,-1
 270 255 l 1,6,-1
 162 255 l 1,7,-1
 222 627 l 1,8,9
 193 604 193 604 110 604 c 1,0,-1
186 0 m 1,10,-1
 719 770 l 1,11,-1
 824 770 l 1,12,-1
 291 0 l 1,13,-1
 186 0 l 1,10,-1
928 331 m 0,14,15
 929 340 929 340 929 353 c 0,16,17
 929 388 929 388 861 388 c 2,18,-1
 702 388 l 2,19,20
 701 388 701 388 711 449 c 1,21,-1
 715 469 l 1,22,23
 825 488 825 488 913 488 c 0,24,25
 949 488 949 488 976 474 c 0,26,27
 1026 448 1026 448 1038 387 c 0,28,29
 1041 372 1041 372 1041 359 c 128,-1,30
 1041 346 1041 346 1038 326.5 c 128,-1,31
 1035 307 1035 307 1021 278.5 c 128,-1,32
 1007 250 1007 250 992.5 230 c 128,-1,33
 978 210 978 210 953 185.5 c 128,-1,34
 928 161 928 161 915 150 c 128,-1,35
 902 139 902 139 876.5 119.5 c 128,-1,36
 851 100 851 100 850 99 c 1,37,-1
 1001 99 l 1,38,-1
 985 -1 l 1,39,-1
 644 -1 l 1,40,-1
 659 95 l 1,41,42
 916 257 916 257 928 331 c 0,14,15
EndSplineSet
Ligature2: "'frac' Diagonal Fractions lookup 7 subtable" one slash two
Ligature2: "'frac' Diagonal Fractions lookup 7 subtable" one fraction two
EndChar

StartChar: threequarters
Encoding: 190 190 127
Width: 1079
GlyphClass: 3
Flags: W
LayerCount: 2
Fore
SplineSet
271 251 m 1,0,-1
 241 251 l 2,1,2
 147 251 147 251 117 257 c 128,-1,3
 87 263 87 263 69 271 c 1,4,-1
 82 350 l 1,5,-1
 242 351 l 2,6,7
 289 351 289 351 301.5 363.5 c 128,-1,8
 314 376 314 376 317 392 c 2,9,-1
 319 405 l 2,10,11
 324 437 324 437 295 445 c 0,12,13
 283 449 283 449 261 449 c 2,14,-1
 139 454 l 1,15,-1
 152 541 l 1,16,-1
 278 546 l 2,17,18
 323 548 323 548 335 560 c 128,-1,19
 347 572 347 572 349 587 c 2,20,-1
 351 599 l 2,21,22
 352 605 352 605 352 614 c 0,23,24
 352 640 352 640 292 640 c 2,25,-1
 123 640 l 1,26,-1
 136 719 l 1,27,28
 195 739 195 739 299 739 c 0,29,30
 324 739 324 739 353 739 c 0,31,32
 409 738 409 738 436 705.5 c 128,-1,33
 463 673 463 673 463 635 c 0,34,35
 463 624 463 624 461 612 c 2,36,-1
 456 582 l 2,37,38
 443 505 443 505 386 493 c 1,39,40
 428 477 428 477 428 416 c 0,41,42
 428 403 428 403 426 390 c 2,43,-1
 422 366 l 2,44,45
 403 251 403 251 272 251 c 0,46,47
 271 251 271 251 271 251 c 1,0,-1
292 0 m 1,48,-1
 825 770 l 1,49,-1
 930 770 l 1,50,-1
 397 0 l 1,51,-1
 292 0 l 1,48,-1
650 144 m 1,52,-1
 876 481 l 1,53,-1
 993 481 l 1,54,-1
 809 200 l 1,55,-1
 919 200 l 1,56,-1
 935 303 l 1,57,-1
 967 352 l 1,58,-1
 1048 352 l 1,59,-1
 1024 200 l 1,60,-1
 1072 200 l 1,61,-1
 1059 115 l 1,62,-1
 1006 98 l 1,63,-1
 993 1 l 1,64,-1
 887 1 l 1,65,-1
 903 97 l 1,66,-1
 671 97 l 1,67,-1
 650 144 l 1,52,-1
EndSplineSet
Ligature2: "'frac' Diagonal Fractions lookup 7 subtable" three slash four
Ligature2: "'frac' Diagonal Fractions lookup 7 subtable" three fraction four
EndChar

StartChar: questiondown
Encoding: 191 191 128
Width: 540
GlyphClass: 2
Flags: W
LayerCount: 2
Fore
SplineSet
285 186 m 1,0,-1
 300 276 l 1,1,-1
 413 276 l 1,2,-1
 382 81 l 1,3,4
 344 81 344 81 315.5 81 c 128,-1,5
 287 81 287 81 268 81 c 0,6,7
 181 77 181 77 168 -1 c 1,8,-1
 160 -55 l 2,9,10
 158 -66 158 -66 158 -79.5 c 128,-1,11
 158 -93 158 -93 165 -108 c 0,12,13
 180 -140 180 -140 256 -140 c 2,14,-1
 505 -140 l 1,15,-1
 489 -243 l 1,16,17
 350 -270 350 -270 255 -270 c 0,18,19
 230 -270 230 -270 202 -268 c 1,20,21
 150 -268 150 -268 111 -250 c 0,22,23
 39 -216 39 -216 20 -134 c 0,24,25
 15 -113 15 -113 15 -94.5 c 128,-1,26
 15 -76 15 -76 18 -60 c 2,27,-1
 29 13 l 1,28,29
 46 117 46 117 107 156 c 0,30,31
 157 188 157 188 241 188 c 0,32,33
 262 188 262 188 285 186 c 1,0,-1
346 471 m 2,34,-1
 433 471 l 2,35,36
 443 471 443 471 449 464.5 c 128,-1,37
 455 458 455 458 453 448 c 2,38,-1
 439 358 l 2,39,40
 436 333 436 333 411 333 c 2,41,-1
 324 333 l 2,42,43
 304 333 304 333 304 351 c 0,44,45
 304 354 304 354 304 358 c 2,46,-1
 318 448 l 2,47,48
 322 471 322 471 346 471 c 2,34,-1
EndSplineSet
Substitution2: "'case' Case-Sensitive Forms lookup 18 subtable" questiondown.alt
Substitution2: "'smcp' Lowercase to Small Capitals lookup 1 subtable" questiondown.smcp
EndChar

StartChar: Agrave
Encoding: 192 192 129
Width: 688
GlyphClass: 2
Flags: W
LayerCount: 2
Fore
SplineSet
336 936 m 1,0,-1
 455 936 l 1,1,-1
 532 797 l 1,2,-1
 441 797 l 1,3,-1
 336 936 l 1,0,-1
34 0 m 1,4,-1
 397 732 l 1,5,-1
 556 732 l 1,6,-1
 678 0 l 1,7,-1
 535 0 l 1,8,-1
 506 162 l 1,9,-1
 269 162 l 1,10,-1
 189 0 l 1,11,-1
 34 0 l 1,4,-1
325 286 m 1,12,-1
 492 286 l 1,13,-1
 451 552 l 1,14,-1
 325 286 l 1,12,-1
EndSplineSet
Substitution2: "'c2sc' Capitals to Small Capitals in Latin lookup 2 subtable" agrave.smcp
EndChar

StartChar: Aacute
Encoding: 193 193 130
Width: 688
GlyphClass: 2
Flags: W
LayerCount: 2
Fore
SplineSet
441 797 m 1,0,-1
 554 936 l 1,1,-1
 676 936 l 1,2,-1
 532 797 l 1,3,-1
 441 797 l 1,0,-1
34 0 m 1,4,-1
 397 732 l 1,5,-1
 556 732 l 1,6,-1
 678 0 l 1,7,-1
 535 0 l 1,8,-1
 506 162 l 1,9,-1
 269 162 l 1,10,-1
 189 0 l 1,11,-1
 34 0 l 1,4,-1
325 286 m 1,12,-1
 492 286 l 1,13,-1
 451 552 l 1,14,-1
 325 286 l 1,12,-1
EndSplineSet
Substitution2: "'c2sc' Capitals to Small Capitals in Latin lookup 2 subtable" aacute.smcp
EndChar

StartChar: Acircumflex
Encoding: 194 194 131
Width: 688
GlyphClass: 2
Flags: W
LayerCount: 2
Fore
SplineSet
333 797 m 1,0,-1
 462 932 l 1,1,-1
 566 932 l 1,2,-1
 641 797 l 1,3,-1
 551 797 l 1,4,-1
 508 862 l 1,5,-1
 436 797 l 1,6,-1
 333 797 l 1,0,-1
34 0 m 1,7,-1
 397 732 l 1,8,-1
 556 732 l 1,9,-1
 678 0 l 1,10,-1
 535 0 l 1,11,-1
 506 162 l 1,12,-1
 269 162 l 1,13,-1
 189 0 l 1,14,-1
 34 0 l 1,7,-1
325 286 m 1,15,-1
 492 286 l 1,16,-1
 451 552 l 1,17,-1
 325 286 l 1,15,-1
EndSplineSet
Substitution2: "'c2sc' Capitals to Small Capitals in Latin lookup 2 subtable" acircumflex.smcp
EndChar

StartChar: Atilde
Encoding: 195 195 132
Width: 688
GlyphClass: 2
Flags: W
LayerCount: 2
Fore
SplineSet
556 887 m 0,0,1
 558 887 558 887 569.5 887 c 128,-1,2
 581 887 581 887 611 899.5 c 128,-1,3
 641 912 641 912 656 925 c 1,4,-1
 670 865 l 1,5,6
 647 844 647 844 632.5 832.5 c 128,-1,7
 618 821 618 821 593 809 c 128,-1,8
 568 797 568 797 557 797 c 128,-1,9
 546 797 546 797 535 798 c 1,10,11
 521 798 521 798 488 815 c 128,-1,12
 455 832 455 832 440 832 c 0,13,14
 404 832 404 832 372 815 c 0,15,16
 362 810 362 810 340 797 c 1,17,-1
 324 852 l 1,18,19
 399 922 399 922 456 922 c 1,20,21
 481 921 481 921 510.5 904 c 128,-1,22
 540 887 540 887 556 887 c 0,0,1
34 0 m 1,23,-1
 397 732 l 1,24,-1
 556 732 l 1,25,-1
 678 0 l 1,26,-1
 535 0 l 1,27,-1
 506 162 l 1,28,-1
 269 162 l 1,29,-1
 189 0 l 1,30,-1
 34 0 l 1,23,-1
325 286 m 1,31,-1
 492 286 l 1,32,-1
 451 552 l 1,33,-1
 325 286 l 1,31,-1
EndSplineSet
Substitution2: "'c2sc' Capitals to Small Capitals in Latin lookup 2 subtable" atilde.smcp
EndChar

StartChar: Adieresis
Encoding: 196 196 133
Width: 688
GlyphClass: 2
Flags: W
LayerCount: 2
Fore
SplineSet
379 914 m 128,-1,1
 403 914 403 914 416 899 c 128,-1,2
 429 884 429 884 429 873 c 0,3,4
 429 836 429 836 406.5 816.5 c 128,-1,5
 384 797 384 797 364 797 c 128,-1,6
 344 797 344 797 332 805 c 0,7,8
 305 822 305 822 309.5 851 c 128,-1,9
 314 880 314 880 334.5 897 c 128,-1,0
 355 914 355 914 379 914 c 128,-1,1
634 914 m 128,-1,11
 658 914 658 914 671 899 c 128,-1,12
 684 884 684 884 684 873 c 0,13,14
 684 836 684 836 661.5 816.5 c 128,-1,15
 639 797 639 797 619 797 c 128,-1,16
 599 797 599 797 587 805 c 0,17,18
 560 822 560 822 564.5 851 c 128,-1,19
 569 880 569 880 589.5 897 c 128,-1,10
 610 914 610 914 634 914 c 128,-1,11
34 0 m 1,20,-1
 397 732 l 1,21,-1
 556 732 l 1,22,-1
 678 0 l 1,23,-1
 535 0 l 1,24,-1
 506 162 l 1,25,-1
 269 162 l 1,26,-1
 189 0 l 1,27,-1
 34 0 l 1,20,-1
325 286 m 1,28,-1
 492 286 l 1,29,-1
 451 552 l 1,30,-1
 325 286 l 1,28,-1
EndSplineSet
Substitution2: "'c2sc' Capitals to Small Capitals in Latin lookup 2 subtable" adieresis.smcp
EndChar

StartChar: Aring
Encoding: 197 197 134
Width: 688
GlyphClass: 2
Flags: W
LayerCount: 2
Fore
SplineSet
445.5 919 m 128,-1,1
 421 906 421 906 404 880.5 c 128,-1,2
 387 855 387 855 387 821 c 0,3,4
 387 785 387 785 413.5 757.5 c 128,-1,5
 440 730 440 730 482 730 c 128,-1,6
 524 730 524 730 557.5 761 c 128,-1,7
 591 792 591 792 591 841 c 0,8,9
 591 877 591 877 565 904.5 c 128,-1,10
 539 932 539 932 504.5 932 c 128,-1,0
 470 932 470 932 445.5 919 c 128,-1,1
493 874 m 128,-1,12
 511 874 511 874 521.5 862.5 c 128,-1,13
 532 851 532 851 532 833 c 128,-1,14
 532 815 532 815 517 801 c 0,15,16
 504 789 504 789 485.5 789 c 128,-1,17
 467 789 467 789 456.5 800.5 c 128,-1,18
 446 812 446 812 446 829.5 c 128,-1,19
 446 847 446 847 460.5 860.5 c 128,-1,11
 475 874 475 874 493 874 c 128,-1,12
34 0 m 1,20,-1
 397 732 l 1,21,-1
 556 732 l 1,22,-1
 678 0 l 1,23,-1
 535 0 l 1,24,-1
 506 162 l 1,25,-1
 269 162 l 1,26,-1
 189 0 l 1,27,-1
 34 0 l 1,20,-1
325 286 m 1,28,-1
 492 286 l 1,29,-1
 451 552 l 1,30,-1
 325 286 l 1,28,-1
EndSplineSet
Substitution2: "'c2sc' Capitals to Small Capitals in Latin lookup 2 subtable" aring.smcp
EndChar

StartChar: AE
Encoding: 198 198 135
Width: 1016
GlyphClass: 2
Flags: W
LayerCount: 2
Fore
SplineSet
735 600 m 2,0,1
 699 600 699 600 688 582 c 0,2,3
 680 568 680 568 676 545 c 2,4,-1
 657 428 l 1,5,-1
 940 417 l 1,6,-1
 923 302 l 1,7,-1
 635 293 l 1,8,-1
 617 180 l 1,9,10
 612 142 612 142 631 134 c 0,11,12
 646 128 646 128 672 128 c 2,13,-1
 940 128 l 1,14,-1
 922 13 l 1,15,16
 870 6 870 6 682 -1 c 1,17,-1
 619 -4 l 2,18,19
 613 -4 613 -4 599 -4 c 128,-1,20
 585 -4 585 -4 561 0 c 0,21,22
 496 13 496 13 475 59 c 0,23,24
 466 77 466 77 466 94 c 128,-1,25
 466 111 466 111 468 123 c 2,26,-1
 479 195 l 1,27,-1
 308 195 l 1,28,-1
 179 0 l 1,29,-1
 23 0 l 1,30,-1
 397 575 l 2,31,32
 456 665 456 665 523 699 c 0,33,34
 590 732 590 732 655 732 c 0,35,36
 688 732 688 732 829 728.5 c 128,-1,37
 970 725 970 725 1033 716 c 1,38,-1
 1015 600 l 1,39,-1
 735 600 l 2,0,1
386 319 m 1,40,-1
 499 319 l 1,41,-1
 538 553 l 1,42,-1
 386 319 l 1,40,-1
EndSplineSet
EndChar

StartChar: Ccedilla
Encoding: 199 199 136
Width: 571
GlyphClass: 2
Flags: W
LayerCount: 2
Fore
SplineSet
407 740 m 0,0,1
 543 740 543 740 657 704 c 1,2,-1
 640 595 l 1,3,4
 515 611 515 611 429 611 c 0,5,6
 425 611 425 611 422.5 611 c 128,-1,7
 420 611 420 611 411 611 c 128,-1,8
 402 611 402 611 394 610.5 c 128,-1,9
 386 610 386 610 371.5 608 c 128,-1,10
 357 606 357 606 349 601.5 c 128,-1,11
 341 597 341 597 328 589 c 128,-1,12
 315 581 315 581 307 569 c 128,-1,13
 299 557 299 557 288.5 538 c 128,-1,14
 278 519 278 519 271 495 c 0,15,16
 252 438 252 438 241 371 c 128,-1,17
 230 304 230 304 230 259 c 128,-1,18
 230 214 230 214 240 185 c 0,19,20
 262 126 262 126 341 123 c 0,21,22
 352 123 352 123 398 123 c 128,-1,23
 444 123 444 123 568 132 c 1,24,-1
 551 22 l 1,25,26
 498 4 498 4 444 -1 c 128,-1,27
 390 -6 390 -6 348.5 -6 c 128,-1,28
 307 -6 307 -6 291 -6 c 0,29,30
 223 -5 223 -5 177.5 26 c 128,-1,31
 132 57 132 57 113 111 c 0,32,33
 89 179 89 179 89 251 c 128,-1,34
 89 323 89 323 99.5 384.5 c 128,-1,35
 110 446 110 446 122 493 c 128,-1,36
 134 540 134 540 152 581 c 128,-1,37
 170 622 170 622 193 650.5 c 128,-1,38
 216 679 216 679 247 700 c 0,39,40
 308 740 308 740 407 740 c 0,0,1
232 -178 m 2,41,-1
 176 -178 l 1,42,-1
 186 -118 l 1,43,-1
 232 -103 l 2,44,45
 253 -96 253 -96 260.5 -82 c 128,-1,46
 268 -68 268 -68 273 -36 c 1,47,-1
 367 -36 l 1,48,49
 355 -113 355 -113 326 -145 c 0,50,51
 297 -178 297 -178 232 -178 c 2,41,-1
EndSplineSet
Substitution2: "'c2sc' Capitals to Small Capitals in Latin lookup 2 subtable" ccedilla.smcp
EndChar

StartChar: Egrave
Encoding: 200 200 137
Width: 560
GlyphClass: 2
Flags: W
LayerCount: 2
Fore
SplineSet
275 930 m 1,0,-1
 394 930 l 1,1,-1
 471 792 l 1,2,-1
 380 792 l 1,3,-1
 275 930 l 1,0,-1
217 706 m 0,4,5
 243 721 243 721 268.5 726.5 c 128,-1,6
 294 732 294 732 311 732 c 128,-1,7
 328 732 328 732 452.5 728.5 c 128,-1,8
 577 725 577 725 640 716 c 1,9,-1
 622 600 l 1,10,-1
 343 600 l 2,11,12
 295 600 295 600 286 561 c 0,13,14
 284 554 284 554 283 544 c 2,15,-1
 265 432 l 1,16,-1
 548 422 l 1,17,-1
 529 307 l 1,18,-1
 244 297 l 1,19,-1
 225 181 l 2,20,21
 220 149 220 149 232 140 c 0,22,23
 236 137 236 137 238 135 c 128,-1,24
 240 133 240 133 245.5 132 c 128,-1,25
 251 131 251 131 253.5 130 c 128,-1,26
 256 129 256 129 262 129 c 0,27,28
 270 129 270 129 279 129 c 2,29,-1
 548 129 l 1,30,-1
 529 14 l 1,31,32
 474 7 474 7 250 -2 c 2,33,-1
 224 -3 l 2,34,35
 220 -3 220 -3 205.5 -3 c 128,-1,36
 191 -3 191 -3 167 3 c 0,37,38
 77 25 77 25 77 117 c 0,39,40
 77 133 77 133 79 150 c 2,41,-1
 148 586 l 2,42,43
 162 674 162 674 217 706 c 0,4,5
EndSplineSet
Substitution2: "'c2sc' Capitals to Small Capitals in Latin lookup 2 subtable" egrave.smcp
EndChar

StartChar: Eacute
Encoding: 201 201 138
Width: 560
GlyphClass: 2
Flags: W
LayerCount: 2
Fore
SplineSet
382 792 m 1,0,-1
 494 930 l 1,1,-1
 617 930 l 1,2,-1
 472 792 l 1,3,-1
 382 792 l 1,0,-1
217 706 m 0,4,5
 243 721 243 721 268.5 726.5 c 128,-1,6
 294 732 294 732 311 732 c 128,-1,7
 328 732 328 732 452.5 728.5 c 128,-1,8
 577 725 577 725 640 716 c 1,9,-1
 622 600 l 1,10,-1
 343 600 l 2,11,12
 295 600 295 600 286 561 c 0,13,14
 284 554 284 554 283 544 c 2,15,-1
 265 432 l 1,16,-1
 548 422 l 1,17,-1
 529 307 l 1,18,-1
 244 297 l 1,19,-1
 225 181 l 2,20,21
 220 149 220 149 232 140 c 0,22,23
 236 137 236 137 238 135 c 128,-1,24
 240 133 240 133 245.5 132 c 128,-1,25
 251 131 251 131 253.5 130 c 128,-1,26
 256 129 256 129 262 129 c 0,27,28
 270 129 270 129 279 129 c 2,29,-1
 548 129 l 1,30,-1
 529 14 l 1,31,32
 474 7 474 7 250 -2 c 2,33,-1
 224 -3 l 2,34,35
 220 -3 220 -3 205.5 -3 c 128,-1,36
 191 -3 191 -3 167 3 c 0,37,38
 77 25 77 25 77 117 c 0,39,40
 77 133 77 133 79 150 c 2,41,-1
 148 586 l 2,42,43
 162 674 162 674 217 706 c 0,4,5
EndSplineSet
Substitution2: "'c2sc' Capitals to Small Capitals in Latin lookup 2 subtable" eacute.smcp
EndChar

StartChar: Ecircumflex
Encoding: 202 202 139
Width: 560
GlyphClass: 2
Flags: W
LayerCount: 2
Fore
SplineSet
275 792 m 1,0,-1
 404 928 l 1,1,-1
 508 928 l 1,2,-1
 584 792 l 1,3,-1
 492 792 l 1,4,-1
 451 856 l 1,5,-1
 386 792 l 1,6,-1
 275 792 l 1,0,-1
217 706 m 0,7,8
 243 721 243 721 268.5 726.5 c 128,-1,9
 294 732 294 732 311 732 c 128,-1,10
 328 732 328 732 452.5 728.5 c 128,-1,11
 577 725 577 725 640 716 c 1,12,-1
 622 600 l 1,13,-1
 343 600 l 2,14,15
 295 600 295 600 286 561 c 0,16,17
 284 554 284 554 283 544 c 2,18,-1
 265 432 l 1,19,-1
 548 422 l 1,20,-1
 529 307 l 1,21,-1
 244 297 l 1,22,-1
 225 181 l 2,23,24
 220 149 220 149 232 140 c 0,25,26
 236 137 236 137 238 135 c 128,-1,27
 240 133 240 133 245.5 132 c 128,-1,28
 251 131 251 131 253.5 130 c 128,-1,29
 256 129 256 129 262 129 c 0,30,31
 270 129 270 129 279 129 c 2,32,-1
 548 129 l 1,33,-1
 529 14 l 1,34,35
 474 7 474 7 250 -2 c 2,36,-1
 224 -3 l 2,37,38
 220 -3 220 -3 205.5 -3 c 128,-1,39
 191 -3 191 -3 167 3 c 0,40,41
 77 25 77 25 77 117 c 0,42,43
 77 133 77 133 79 150 c 2,44,-1
 148 586 l 2,45,46
 162 674 162 674 217 706 c 0,7,8
EndSplineSet
Substitution2: "'c2sc' Capitals to Small Capitals in Latin lookup 2 subtable" ecircumflex.smcp
EndChar

StartChar: Edieresis
Encoding: 203 203 140
Width: 560
GlyphClass: 2
Flags: W
LayerCount: 2
Fore
SplineSet
309.5 901 m 128,-1,1
 334 901 334 901 347 886 c 128,-1,2
 360 871 360 871 360 859 c 0,3,4
 360 823 360 823 337.5 803.5 c 128,-1,5
 315 784 315 784 291 784 c 128,-1,6
 267 784 267 784 254 799.5 c 128,-1,7
 241 815 241 815 241 826 c 0,8,9
 241 863 241 863 263 882 c 128,-1,0
 285 901 285 901 309.5 901 c 128,-1,1
564.5 901 m 128,-1,11
 589 901 589 901 602 886 c 128,-1,12
 615 871 615 871 615 859 c 0,13,14
 615 823 615 823 592.5 803.5 c 128,-1,15
 570 784 570 784 546 784 c 128,-1,16
 522 784 522 784 509 799.5 c 128,-1,17
 496 815 496 815 496 826 c 0,18,19
 496 863 496 863 518 882 c 128,-1,10
 540 901 540 901 564.5 901 c 128,-1,11
217 706 m 0,20,21
 243 721 243 721 268.5 726.5 c 128,-1,22
 294 732 294 732 311 732 c 128,-1,23
 328 732 328 732 452.5 728.5 c 128,-1,24
 577 725 577 725 640 716 c 1,25,-1
 622 600 l 1,26,-1
 343 600 l 2,27,28
 295 600 295 600 286 561 c 0,29,30
 284 554 284 554 283 544 c 2,31,-1
 265 432 l 1,32,-1
 548 422 l 1,33,-1
 529 307 l 1,34,-1
 244 297 l 1,35,-1
 225 181 l 2,36,37
 220 149 220 149 232 140 c 0,38,39
 236 137 236 137 238 135 c 128,-1,40
 240 133 240 133 245.5 132 c 128,-1,41
 251 131 251 131 253.5 130 c 128,-1,42
 256 129 256 129 262 129 c 0,43,44
 270 129 270 129 279 129 c 2,45,-1
 548 129 l 1,46,-1
 529 14 l 1,47,48
 474 7 474 7 250 -2 c 2,49,-1
 224 -3 l 2,50,51
 220 -3 220 -3 205.5 -3 c 128,-1,52
 191 -3 191 -3 167 3 c 0,53,54
 77 25 77 25 77 117 c 0,55,56
 77 133 77 133 79 150 c 2,57,-1
 148 586 l 2,58,59
 162 674 162 674 217 706 c 0,20,21
EndSplineSet
Substitution2: "'c2sc' Capitals to Small Capitals in Latin lookup 2 subtable" edieresis.smcp
EndChar

StartChar: Igrave
Encoding: 204 204 141
Width: 256
GlyphClass: 2
Flags: W
LayerCount: 2
Fore
SplineSet
111 936 m 1,0,-1
 230 936 l 1,1,-1
 307 797 l 1,2,-1
 216 797 l 1,3,-1
 111 936 l 1,0,-1
65 0 m 1,4,-1
 181 732 l 1,5,-1
 321 732 l 1,6,-1
 205 0 l 1,7,-1
 65 0 l 1,4,-1
EndSplineSet
Substitution2: "'c2sc' Capitals to Small Capitals in Latin lookup 2 subtable" igrave.smcp
EndChar

StartChar: Iacute
Encoding: 205 205 142
Width: 256
GlyphClass: 2
Flags: W
LayerCount: 2
Fore
SplineSet
216 797 m 1,0,-1
 329 936 l 1,1,-1
 451 936 l 1,2,-1
 307 797 l 1,3,-1
 216 797 l 1,0,-1
65 0 m 1,4,-1
 181 732 l 1,5,-1
 321 732 l 1,6,-1
 205 0 l 1,7,-1
 65 0 l 1,4,-1
EndSplineSet
Substitution2: "'c2sc' Capitals to Small Capitals in Latin lookup 2 subtable" iacute.smcp
EndChar

StartChar: Icircumflex
Encoding: 206 206 143
Width: 256
GlyphClass: 2
Flags: W
LayerCount: 2
Fore
SplineSet
107 797 m 1,0,-1
 236 932 l 1,1,-1
 340 932 l 1,2,-1
 416 797 l 1,3,-1
 325 797 l 1,4,-1
 283 862 l 1,5,-1
 210 797 l 1,6,-1
 107 797 l 1,0,-1
65 0 m 1,7,-1
 181 732 l 1,8,-1
 321 732 l 1,9,-1
 205 0 l 1,10,-1
 65 0 l 1,7,-1
EndSplineSet
Substitution2: "'c2sc' Capitals to Small Capitals in Latin lookup 2 subtable" icircumflex.smcp
EndChar

StartChar: Idieresis
Encoding: 207 207 144
Width: 256
GlyphClass: 2
Flags: W
LayerCount: 2
Fore
SplineSet
153.5 914 m 128,-1,1
 178 914 178 914 190.5 899 c 128,-1,2
 203 884 203 884 203 873 c 0,3,4
 203 836 203 836 181 816.5 c 128,-1,5
 159 797 159 797 139 797 c 128,-1,6
 119 797 119 797 106 805 c 0,7,8
 80 822 80 822 84.5 851 c 128,-1,9
 89 880 89 880 109 897 c 128,-1,0
 129 914 129 914 153.5 914 c 128,-1,1
408.5 914 m 128,-1,11
 433 914 433 914 445.5 899 c 128,-1,12
 458 884 458 884 458 873 c 0,13,14
 458 836 458 836 436 816.5 c 128,-1,15
 414 797 414 797 394 797 c 128,-1,16
 374 797 374 797 361 805 c 0,17,18
 335 822 335 822 339.5 851 c 128,-1,19
 344 880 344 880 364 897 c 128,-1,10
 384 914 384 914 408.5 914 c 128,-1,11
65 0 m 1,20,-1
 181 732 l 1,21,-1
 321 732 l 1,22,-1
 205 0 l 1,23,-1
 65 0 l 1,20,-1
EndSplineSet
Substitution2: "'c2sc' Capitals to Small Capitals in Latin lookup 2 subtable" idieresis.smcp
EndChar

StartChar: Eth
Encoding: 208 208 145
Width: 652
GlyphClass: 2
Flags: W
LayerCount: 2
Fore
SplineSet
477 732 m 0,0,1
 580 732 580 732 628 669 c 0,2,3
 675 607 675 607 681 521 c 0,4,5
 683 494 683 494 683 473 c 0,6,7
 683 410 683 410 673 346 c 0,8,9
 643 166 643 166 572.5 83 c 128,-1,10
 502 0 502 0 372 0 c 2,11,-1
 60 0 l 1,12,-1
 114 340 l 1,13,-1
 49 340 l 1,14,-1
 60 406 l 1,15,-1
 125 406 l 1,16,-1
 176 732 l 1,17,18
 176 732 176 732 477 732 c 0,0,1
532 364 m 1,19,20
 544 429 544 429 544 462 c 0,21,22
 544 557 544 557 512 587 c 0,23,24
 489 608 489 608 446 608 c 2,25,-1
 297 608 l 1,26,-1
 265 406 l 1,27,-1
 376 406 l 1,28,-1
 366 340 l 1,29,-1
 254 340 l 1,30,-1
 220 125 l 1,31,-1
 370 125 l 2,32,33
 494 125 494 125 532 364 c 1,19,20
EndSplineSet
Substitution2: "'c2sc' Capitals to Small Capitals in Latin lookup 2 subtable" eth.smcp
EndChar

StartChar: Ntilde
Encoding: 209 209 146
Width: 669
GlyphClass: 2
Flags: W
LayerCount: 2
Fore
SplineSet
534 885 m 0,0,1
 536 885 536 885 547.5 885 c 128,-1,2
 559 885 559 885 589 897.5 c 128,-1,3
 619 910 619 910 634 922 c 1,4,-1
 648 863 l 1,5,6
 625 842 625 842 610.5 830.5 c 128,-1,7
 596 819 596 819 571 807 c 128,-1,8
 546 795 546 795 535 795 c 0,9,10
 498 795 498 795 466.5 812.5 c 128,-1,11
 435 830 435 830 416.5 830 c 128,-1,12
 398 830 398 830 380 824 c 0,13,14
 356 817 356 817 318 795 c 1,15,-1
 302 850 l 1,16,17
 377 920 377 920 434 920 c 1,18,19
 459 919 459 919 488.5 902 c 128,-1,20
 518 885 518 885 534 885 c 0,0,1
61 0 m 1,21,-1
 177 732 l 1,22,-1
 317 732 l 1,23,-1
 525 256 l 1,24,-1
 600 732 l 1,25,-1
 740 732 l 1,26,-1
 624 0 l 1,27,-1
 486 0 l 1,28,-1
 276 470 l 1,29,-1
 202 0 l 1,30,-1
 61 0 l 1,21,-1
EndSplineSet
AlternateSubs2: "'salt' Stylistic Alternatives in Latin lookup 16 subtable" Ntilde.salt
Substitution2: "'c2sc' Capitals to Small Capitals in Latin lookup 2 subtable" ntilde.smcp
EndChar

StartChar: Ograve
Encoding: 210 210 147
Width: 666
GlyphClass: 2
Flags: W
LayerCount: 2
Fore
SplineSet
311 936 m 1,0,-1
 430 936 l 1,1,-1
 507 797 l 1,2,-1
 416 797 l 1,3,-1
 311 936 l 1,0,-1
397 736 m 128,-1,5
 420 737 420 737 456 737 c 128,-1,6
 492 737 492 737 523 733 c 128,-1,7
 554 729 554 729 584.5 718.5 c 128,-1,8
 615 708 615 708 636 690 c 0,9,10
 684 649 684 649 697 572 c 1,11,12
 704 537 704 537 704 509.5 c 128,-1,13
 704 482 704 482 703 450 c 128,-1,14
 702 418 702 418 691.5 348.5 c 128,-1,15
 681 279 681 279 665.5 226 c 128,-1,16
 650 173 650 173 632 136 c 128,-1,17
 614 99 614 99 589 73.5 c 128,-1,18
 564 48 564 48 539.5 32.5 c 128,-1,19
 515 17 515 17 481 9 c 0,20,21
 426 -4 426 -4 365 -4 c 128,-1,22
 304 -4 304 -4 273.5 -0.5 c 128,-1,23
 243 3 243 3 212 13 c 128,-1,24
 181 23 181 23 160 40 c 0,25,26
 111 80 111 80 98 154 c 0,27,28
 91 189 91 189 91 215.5 c 128,-1,29
 91 242 91 242 91.5 273.5 c 128,-1,30
 92 305 92 305 102 368 c 128,-1,31
 112 431 112 431 124 477.5 c 128,-1,32
 136 524 136 524 149 559 c 128,-1,33
 162 594 162 594 180 621 c 128,-1,34
 198 648 198 648 214.5 667 c 128,-1,35
 231 686 231 686 254.5 699 c 128,-1,36
 278 712 278 712 298 719.5 c 128,-1,37
 318 727 318 727 346 731 c 128,-1,4
 374 735 374 735 397 736 c 128,-1,5
232 231 m 0,38,39
 232 172 232 172 257 150 c 1,40,41
 288 125 288 125 360 125 c 0,42,43
 427 125 427 125 466 151 c 0,44,45
 524 191 524 191 551 361 c 0,46,47
 563 435 563 435 563 479 c 128,-1,48
 563 523 563 523 557 548 c 128,-1,49
 551 573 551 573 532.5 586.5 c 128,-1,50
 514 600 514 600 493.5 604 c 128,-1,51
 473 608 473 608 441.5 608 c 128,-1,52
 410 608 410 608 393.5 606.5 c 128,-1,53
 377 605 377 605 358 600 c 128,-1,54
 339 595 339 595 326.5 584.5 c 128,-1,55
 314 574 314 574 301 556 c 0,56,57
 279 527 279 527 255.5 428 c 128,-1,58
 232 329 232 329 232 231 c 0,38,39
EndSplineSet
Substitution2: "'c2sc' Capitals to Small Capitals in Latin lookup 2 subtable" ograve.smcp
EndChar

StartChar: Oacute
Encoding: 211 211 148
Width: 666
GlyphClass: 2
Flags: W
LayerCount: 2
Fore
SplineSet
416 797 m 1,0,-1
 529 936 l 1,1,-1
 652 936 l 1,2,-1
 507 797 l 1,3,-1
 416 797 l 1,0,-1
397 736 m 128,-1,5
 420 737 420 737 456 737 c 128,-1,6
 492 737 492 737 523 733 c 128,-1,7
 554 729 554 729 584.5 718.5 c 128,-1,8
 615 708 615 708 636 690 c 0,9,10
 684 649 684 649 697 572 c 1,11,12
 704 537 704 537 704 509.5 c 128,-1,13
 704 482 704 482 703 450 c 128,-1,14
 702 418 702 418 691.5 348.5 c 128,-1,15
 681 279 681 279 665.5 226 c 128,-1,16
 650 173 650 173 632 136 c 128,-1,17
 614 99 614 99 589 73.5 c 128,-1,18
 564 48 564 48 539.5 32.5 c 128,-1,19
 515 17 515 17 481 9 c 0,20,21
 426 -4 426 -4 365 -4 c 128,-1,22
 304 -4 304 -4 273.5 -0.5 c 128,-1,23
 243 3 243 3 212 13 c 128,-1,24
 181 23 181 23 160 40 c 0,25,26
 111 80 111 80 98 154 c 0,27,28
 91 189 91 189 91 215.5 c 128,-1,29
 91 242 91 242 91.5 273.5 c 128,-1,30
 92 305 92 305 102 368 c 128,-1,31
 112 431 112 431 124 477.5 c 128,-1,32
 136 524 136 524 149 559 c 128,-1,33
 162 594 162 594 180 621 c 128,-1,34
 198 648 198 648 214.5 667 c 128,-1,35
 231 686 231 686 254.5 699 c 128,-1,36
 278 712 278 712 298 719.5 c 128,-1,37
 318 727 318 727 346 731 c 128,-1,4
 374 735 374 735 397 736 c 128,-1,5
232 231 m 0,38,39
 232 172 232 172 257 150 c 1,40,41
 288 125 288 125 360 125 c 0,42,43
 427 125 427 125 466 151 c 0,44,45
 524 191 524 191 551 361 c 0,46,47
 563 435 563 435 563 479 c 128,-1,48
 563 523 563 523 557 548 c 128,-1,49
 551 573 551 573 532.5 586.5 c 128,-1,50
 514 600 514 600 493.5 604 c 128,-1,51
 473 608 473 608 441.5 608 c 128,-1,52
 410 608 410 608 393.5 606.5 c 128,-1,53
 377 605 377 605 358 600 c 128,-1,54
 339 595 339 595 326.5 584.5 c 128,-1,55
 314 574 314 574 301 556 c 0,56,57
 279 527 279 527 255.5 428 c 128,-1,58
 232 329 232 329 232 231 c 0,38,39
EndSplineSet
Substitution2: "'c2sc' Capitals to Small Capitals in Latin lookup 2 subtable" oacute.smcp
EndChar

StartChar: Ocircumflex
Encoding: 212 212 149
Width: 666
GlyphClass: 2
Flags: W
LayerCount: 2
Fore
SplineSet
308 797 m 1,0,-1
 437 932 l 1,1,-1
 541 932 l 1,2,-1
 616 797 l 1,3,-1
 526 797 l 1,4,-1
 484 862 l 1,5,-1
 411 797 l 1,6,-1
 308 797 l 1,0,-1
397 736 m 128,-1,8
 420 737 420 737 456 737 c 128,-1,9
 492 737 492 737 523 733 c 128,-1,10
 554 729 554 729 584.5 718.5 c 128,-1,11
 615 708 615 708 636 690 c 0,12,13
 684 649 684 649 697 572 c 1,14,15
 704 537 704 537 704 509.5 c 128,-1,16
 704 482 704 482 703 450 c 128,-1,17
 702 418 702 418 691.5 348.5 c 128,-1,18
 681 279 681 279 665.5 226 c 128,-1,19
 650 173 650 173 632 136 c 128,-1,20
 614 99 614 99 589 73.5 c 128,-1,21
 564 48 564 48 539.5 32.5 c 128,-1,22
 515 17 515 17 481 9 c 0,23,24
 426 -4 426 -4 365 -4 c 128,-1,25
 304 -4 304 -4 273.5 -0.5 c 128,-1,26
 243 3 243 3 212 13 c 128,-1,27
 181 23 181 23 160 40 c 0,28,29
 111 80 111 80 98 154 c 0,30,31
 91 189 91 189 91 215.5 c 128,-1,32
 91 242 91 242 91.5 273.5 c 128,-1,33
 92 305 92 305 102 368 c 128,-1,34
 112 431 112 431 124 477.5 c 128,-1,35
 136 524 136 524 149 559 c 128,-1,36
 162 594 162 594 180 621 c 128,-1,37
 198 648 198 648 214.5 667 c 128,-1,38
 231 686 231 686 254.5 699 c 128,-1,39
 278 712 278 712 298 719.5 c 128,-1,40
 318 727 318 727 346 731 c 128,-1,7
 374 735 374 735 397 736 c 128,-1,8
232 231 m 0,41,42
 232 172 232 172 257 150 c 1,43,44
 288 125 288 125 360 125 c 0,45,46
 427 125 427 125 466 151 c 0,47,48
 524 191 524 191 551 361 c 0,49,50
 563 435 563 435 563 479 c 128,-1,51
 563 523 563 523 557 548 c 128,-1,52
 551 573 551 573 532.5 586.5 c 128,-1,53
 514 600 514 600 493.5 604 c 128,-1,54
 473 608 473 608 441.5 608 c 128,-1,55
 410 608 410 608 393.5 606.5 c 128,-1,56
 377 605 377 605 358 600 c 128,-1,57
 339 595 339 595 326.5 584.5 c 128,-1,58
 314 574 314 574 301 556 c 0,59,60
 279 527 279 527 255.5 428 c 128,-1,61
 232 329 232 329 232 231 c 0,41,42
EndSplineSet
Substitution2: "'c2sc' Capitals to Small Capitals in Latin lookup 2 subtable" ocircumflex.smcp
EndChar

StartChar: Otilde
Encoding: 213 213 150
Width: 666
GlyphClass: 2
Flags: W
LayerCount: 2
Fore
SplineSet
530 887 m 0,0,1
 532 887 532 887 543.5 887 c 128,-1,2
 555 887 555 887 585.5 899.5 c 128,-1,3
 616 912 616 912 630 925 c 1,4,-1
 645 865 l 1,5,6
 621 844 621 844 606.5 832.5 c 128,-1,7
 592 821 592 821 567.5 809 c 128,-1,8
 543 797 543 797 531.5 797 c 128,-1,9
 520 797 520 797 512 797.5 c 128,-1,10
 504 798 504 798 488.5 803.5 c 128,-1,11
 473 809 473 809 463 815 c 0,12,13
 436 832 436 832 415 832 c 128,-1,14
 394 832 394 832 376 826 c 0,15,16
 353 819 353 819 314 797 c 1,17,-1
 299 852 l 1,18,19
 373 922 373 922 430 922 c 1,20,21
 455 921 455 921 484.5 904 c 128,-1,22
 514 887 514 887 530 887 c 0,0,1
397 736 m 128,-1,24
 420 737 420 737 456 737 c 128,-1,25
 492 737 492 737 523 733 c 128,-1,26
 554 729 554 729 584.5 718.5 c 128,-1,27
 615 708 615 708 636 690 c 0,28,29
 684 649 684 649 697 572 c 1,30,31
 704 537 704 537 704 509.5 c 128,-1,32
 704 482 704 482 703 450 c 128,-1,33
 702 418 702 418 691.5 348.5 c 128,-1,34
 681 279 681 279 665.5 226 c 128,-1,35
 650 173 650 173 632 136 c 128,-1,36
 614 99 614 99 589 73.5 c 128,-1,37
 564 48 564 48 539.5 32.5 c 128,-1,38
 515 17 515 17 481 9 c 0,39,40
 426 -4 426 -4 365 -4 c 128,-1,41
 304 -4 304 -4 273.5 -0.5 c 128,-1,42
 243 3 243 3 212 13 c 128,-1,43
 181 23 181 23 160 40 c 0,44,45
 111 80 111 80 98 154 c 0,46,47
 91 189 91 189 91 215.5 c 128,-1,48
 91 242 91 242 91.5 273.5 c 128,-1,49
 92 305 92 305 102 368 c 128,-1,50
 112 431 112 431 124 477.5 c 128,-1,51
 136 524 136 524 149 559 c 128,-1,52
 162 594 162 594 180 621 c 128,-1,53
 198 648 198 648 214.5 667 c 128,-1,54
 231 686 231 686 254.5 699 c 128,-1,55
 278 712 278 712 298 719.5 c 128,-1,56
 318 727 318 727 346 731 c 128,-1,23
 374 735 374 735 397 736 c 128,-1,24
232 231 m 0,57,58
 232 172 232 172 257 150 c 1,59,60
 288 125 288 125 360 125 c 0,61,62
 427 125 427 125 466 151 c 0,63,64
 524 191 524 191 551 361 c 0,65,66
 563 435 563 435 563 479 c 128,-1,67
 563 523 563 523 557 548 c 128,-1,68
 551 573 551 573 532.5 586.5 c 128,-1,69
 514 600 514 600 493.5 604 c 128,-1,70
 473 608 473 608 441.5 608 c 128,-1,71
 410 608 410 608 393.5 606.5 c 128,-1,72
 377 605 377 605 358 600 c 128,-1,73
 339 595 339 595 326.5 584.5 c 128,-1,74
 314 574 314 574 301 556 c 0,75,76
 279 527 279 527 255.5 428 c 128,-1,77
 232 329 232 329 232 231 c 0,57,58
EndSplineSet
Substitution2: "'c2sc' Capitals to Small Capitals in Latin lookup 2 subtable" otilde.smcp
EndChar

StartChar: Odieresis
Encoding: 214 214 151
Width: 666
GlyphClass: 2
Flags: W
LayerCount: 2
Fore
SplineSet
354 914 m 128,-1,1
 378 914 378 914 391 899 c 128,-1,2
 404 884 404 884 404 873 c 0,3,4
 404 836 404 836 382 816.5 c 128,-1,5
 360 797 360 797 335.5 797 c 128,-1,6
 311 797 311 797 298 812.5 c 128,-1,7
 285 828 285 828 285 840 c 0,8,9
 285 877 285 877 307.5 895.5 c 128,-1,0
 330 914 330 914 354 914 c 128,-1,1
609 914 m 128,-1,11
 633 914 633 914 646 899 c 128,-1,12
 659 884 659 884 659 873 c 0,13,14
 659 836 659 836 637 816.5 c 128,-1,15
 615 797 615 797 590.5 797 c 128,-1,16
 566 797 566 797 553 812.5 c 128,-1,17
 540 828 540 828 540 840 c 0,18,19
 540 877 540 877 562.5 895.5 c 128,-1,10
 585 914 585 914 609 914 c 128,-1,11
397 736 m 128,-1,21
 420 737 420 737 456 737 c 128,-1,22
 492 737 492 737 523 733 c 128,-1,23
 554 729 554 729 584.5 718.5 c 128,-1,24
 615 708 615 708 636 690 c 0,25,26
 684 649 684 649 697 572 c 1,27,28
 704 537 704 537 704 509.5 c 128,-1,29
 704 482 704 482 703 450 c 128,-1,30
 702 418 702 418 691.5 348.5 c 128,-1,31
 681 279 681 279 665.5 226 c 128,-1,32
 650 173 650 173 632 136 c 128,-1,33
 614 99 614 99 589 73.5 c 128,-1,34
 564 48 564 48 539.5 32.5 c 128,-1,35
 515 17 515 17 481 9 c 0,36,37
 426 -4 426 -4 365 -4 c 128,-1,38
 304 -4 304 -4 273.5 -0.5 c 128,-1,39
 243 3 243 3 212 13 c 128,-1,40
 181 23 181 23 160 40 c 0,41,42
 111 80 111 80 98 154 c 0,43,44
 91 189 91 189 91 215.5 c 128,-1,45
 91 242 91 242 91.5 273.5 c 128,-1,46
 92 305 92 305 102 368 c 128,-1,47
 112 431 112 431 124 477.5 c 128,-1,48
 136 524 136 524 149 559 c 128,-1,49
 162 594 162 594 180 621 c 128,-1,50
 198 648 198 648 214.5 667 c 128,-1,51
 231 686 231 686 254.5 699 c 128,-1,52
 278 712 278 712 298 719.5 c 128,-1,53
 318 727 318 727 346 731 c 128,-1,20
 374 735 374 735 397 736 c 128,-1,21
232 231 m 0,54,55
 232 172 232 172 257 150 c 1,56,57
 288 125 288 125 360 125 c 0,58,59
 427 125 427 125 466 151 c 0,60,61
 524 191 524 191 551 361 c 0,62,63
 563 435 563 435 563 479 c 128,-1,64
 563 523 563 523 557 548 c 128,-1,65
 551 573 551 573 532.5 586.5 c 128,-1,66
 514 600 514 600 493.5 604 c 128,-1,67
 473 608 473 608 441.5 608 c 128,-1,68
 410 608 410 608 393.5 606.5 c 128,-1,69
 377 605 377 605 358 600 c 128,-1,70
 339 595 339 595 326.5 584.5 c 128,-1,71
 314 574 314 574 301 556 c 0,72,73
 279 527 279 527 255.5 428 c 128,-1,74
 232 329 232 329 232 231 c 0,54,55
EndSplineSet
Substitution2: "'c2sc' Capitals to Small Capitals in Latin lookup 2 subtable" odieresis.smcp
EndChar

StartChar: multiply
Encoding: 215 215 152
Width: 461
GlyphClass: 2
Flags: W
LayerCount: 2
Fore
SplineSet
82 251 m 1,0,-1
 203 356 l 1,1,-1
 115 461 l 1,2,-1
 206 541 l 1,3,-1
 294 436 l 1,4,-1
 423 546 l 1,5,-1
 493 462 l 1,6,-1
 364 350 l 1,7,-1
 452 245 l 1,8,-1
 362 170 l 1,9,-1
 276 272 l 1,10,-1
 154 164 l 1,11,-1
 82 251 l 1,0,-1
EndSplineSet
EndChar

StartChar: Oslash
Encoding: 216 216 153
Width: 666
GlyphClass: 2
Flags: W
LayerCount: 2
Fore
SplineSet
116 86 m 1,0,1
 89 138 89 138 89 217 c 128,-1,2
 89 296 89 296 99.5 365 c 128,-1,3
 110 434 110 434 122 480 c 128,-1,4
 134 526 134 526 147.5 561 c 128,-1,5
 161 596 161 596 178.5 623 c 128,-1,6
 196 650 196 650 212.5 668.5 c 128,-1,7
 229 687 229 687 252.5 700 c 128,-1,8
 276 713 276 713 296 720 c 128,-1,9
 316 727 316 727 344 731 c 0,10,11
 388 737 388 737 451 737 c 0,12,13
 577 737 577 737 630 698 c 1,14,-1
 659 732 l 1,15,-1
 734 732 l 1,16,-1
 670 656 l 1,17,18
 703 601 703 601 703 496 c 0,19,20
 703 430 703 430 691 353 c 128,-1,21
 679 276 679 276 663.5 223.5 c 128,-1,22
 648 171 648 171 630 134 c 128,-1,23
 612 97 612 97 587 71.5 c 128,-1,24
 562 46 562 46 538 31.5 c 128,-1,25
 514 17 514 17 479 9 c 0,26,27
 425 -4 425 -4 350 -4 c 128,-1,28
 275 -4 275 -4 229 5 c 128,-1,29
 183 14 183 14 151 40 c 1,30,-1
 117 0 l 1,31,-1
 43 0 l 1,32,-1
 116 86 l 1,0,1
258 448 m 128,-1,34
 249 411 249 411 240.5 356.5 c 128,-1,35
 232 302 232 302 232 272 c 128,-1,36
 232 242 232 242 235 226 c 1,37,-1
 534 586 l 1,38,39
 509 608 509 608 435 608 c 0,40,41
 352 608 352 608 324 584 c 0,42,43
 292 556 292 556 279.5 520.5 c 128,-1,33
 267 485 267 485 258 448 c 128,-1,34
358 125 m 0,44,45
 403 125 403 125 431.5 134 c 128,-1,46
 460 143 460 143 483 169 c 0,47,48
 527 216 527 216 550 361 c 1,49,50
 560 432 560 432 560 469 c 128,-1,51
 560 506 560 506 557 525 c 1,52,-1
 251 157 l 1,53,54
 276 125 276 125 358 125 c 0,44,45
EndSplineSet
Substitution2: "'c2sc' Capitals to Small Capitals in Latin lookup 2 subtable" oslash.smcp
EndChar

StartChar: Ugrave
Encoding: 217 217 154
Width: 653
GlyphClass: 2
Flags: W
LayerCount: 2
Fore
SplineSet
309 936 m 1,0,-1
 428 936 l 1,1,-1
 505 797 l 1,2,-1
 414 797 l 1,3,-1
 309 936 l 1,0,-1
249 312 m 2,4,5
 241 266 241 266 241 227 c 128,-1,6
 241 188 241 188 253 165 c 0,7,8
 275 124 275 124 353 124 c 128,-1,9
 431 124 431 124 466 167.5 c 128,-1,10
 501 211 501 211 517 312 c 2,11,-1
 584 732 l 1,12,-1
 725 732 l 1,13,-1
 661 295 l 1,14,15
 642 175 642 175 598 110 c 0,16,17
 554 44 554 44 489 19 c 0,18,19
 425 -5 425 -5 335 -5 c 0,20,21
 224 -5 224 -5 170 37 c 0,22,23
 101 91 101 91 101 222 c 0,24,25
 101 270 101 270 110 328 c 2,26,-1
 175 732 l 1,27,-1
 315 732 l 1,28,-1
 249 312 l 2,4,5
EndSplineSet
Substitution2: "'c2sc' Capitals to Small Capitals in Latin lookup 2 subtable" ugrave.smcp
EndChar

StartChar: Uacute
Encoding: 218 218 155
Width: 653
GlyphClass: 2
Flags: W
LayerCount: 2
Fore
SplineSet
414 797 m 1,0,-1
 527 936 l 1,1,-1
 649 936 l 1,2,-1
 505 797 l 1,3,-1
 414 797 l 1,0,-1
249 312 m 2,4,5
 241 266 241 266 241 227 c 128,-1,6
 241 188 241 188 253 165 c 0,7,8
 275 124 275 124 353 124 c 128,-1,9
 431 124 431 124 466 167.5 c 128,-1,10
 501 211 501 211 517 312 c 2,11,-1
 584 732 l 1,12,-1
 725 732 l 1,13,-1
 661 295 l 1,14,15
 642 175 642 175 598 110 c 0,16,17
 554 44 554 44 489 19 c 0,18,19
 425 -5 425 -5 335 -5 c 0,20,21
 224 -5 224 -5 170 37 c 0,22,23
 101 91 101 91 101 222 c 0,24,25
 101 270 101 270 110 328 c 2,26,-1
 175 732 l 1,27,-1
 315 732 l 1,28,-1
 249 312 l 2,4,5
EndSplineSet
Substitution2: "'c2sc' Capitals to Small Capitals in Latin lookup 2 subtable" uacute.smcp
EndChar

StartChar: Ucircumflex
Encoding: 219 219 156
Width: 653
GlyphClass: 2
Flags: W
LayerCount: 2
Fore
SplineSet
306 797 m 1,0,-1
 435 932 l 1,1,-1
 539 932 l 1,2,-1
 614 797 l 1,3,-1
 524 797 l 1,4,-1
 481 862 l 1,5,-1
 409 797 l 1,6,-1
 306 797 l 1,0,-1
249 312 m 2,7,8
 241 266 241 266 241 227 c 128,-1,9
 241 188 241 188 253 165 c 0,10,11
 275 124 275 124 353 124 c 128,-1,12
 431 124 431 124 466 167.5 c 128,-1,13
 501 211 501 211 517 312 c 2,14,-1
 584 732 l 1,15,-1
 725 732 l 1,16,-1
 661 295 l 1,17,18
 642 175 642 175 598 110 c 0,19,20
 554 44 554 44 489 19 c 0,21,22
 425 -5 425 -5 335 -5 c 0,23,24
 224 -5 224 -5 170 37 c 0,25,26
 101 91 101 91 101 222 c 0,27,28
 101 270 101 270 110 328 c 2,29,-1
 175 732 l 1,30,-1
 315 732 l 1,31,-1
 249 312 l 2,7,8
EndSplineSet
Substitution2: "'c2sc' Capitals to Small Capitals in Latin lookup 2 subtable" ucircumflex.smcp
EndChar

StartChar: Udieresis
Encoding: 220 220 157
Width: 653
GlyphClass: 2
Flags: W
LayerCount: 2
Fore
SplineSet
352 914 m 128,-1,1
 376 914 376 914 389 899 c 128,-1,2
 402 884 402 884 402 873 c 0,3,4
 402 836 402 836 379.5 816.5 c 128,-1,5
 357 797 357 797 333 797 c 128,-1,6
 309 797 309 797 296 812.5 c 128,-1,7
 283 828 283 828 283 840 c 0,8,9
 283 877 283 877 305.5 895.5 c 128,-1,0
 328 914 328 914 352 914 c 128,-1,1
607 914 m 128,-1,11
 631 914 631 914 644 899 c 128,-1,12
 657 884 657 884 657 873 c 0,13,14
 657 836 657 836 634.5 816.5 c 128,-1,15
 612 797 612 797 588 797 c 128,-1,16
 564 797 564 797 551 812.5 c 128,-1,17
 538 828 538 828 538 840 c 0,18,19
 538 877 538 877 560.5 895.5 c 128,-1,10
 583 914 583 914 607 914 c 128,-1,11
249 312 m 2,20,21
 241 266 241 266 241 227 c 128,-1,22
 241 188 241 188 253 165 c 0,23,24
 275 124 275 124 353 124 c 128,-1,25
 431 124 431 124 466 167.5 c 128,-1,26
 501 211 501 211 517 312 c 2,27,-1
 584 732 l 1,28,-1
 725 732 l 1,29,-1
 661 295 l 1,30,31
 642 175 642 175 598 110 c 0,32,33
 554 44 554 44 489 19 c 0,34,35
 425 -5 425 -5 335 -5 c 0,36,37
 224 -5 224 -5 170 37 c 0,38,39
 101 91 101 91 101 222 c 0,40,41
 101 270 101 270 110 328 c 2,42,-1
 175 732 l 1,43,-1
 315 732 l 1,44,-1
 249 312 l 2,20,21
EndSplineSet
Substitution2: "'c2sc' Capitals to Small Capitals in Latin lookup 2 subtable" udieresis.smcp
EndChar

StartChar: Yacute
Encoding: 221 221 158
Width: 656
GlyphClass: 2
Flags: W
LayerCount: 2
Fore
SplineSet
406 797 m 1,0,-1
 519 936 l 1,1,-1
 641 936 l 1,2,-1
 497 797 l 1,3,-1
 406 797 l 1,0,-1
139 732 m 1,4,-1
 290 732 l 1,5,-1
 374 382 l 1,6,-1
 583 732 l 1,7,-1
 743 732 l 1,8,-1
 422 227 l 1,9,-1
 386 0 l 1,10,-1
 246 0 l 1,11,-1
 282 227 l 1,12,-1
 139 732 l 1,4,-1
EndSplineSet
Substitution2: "'c2sc' Capitals to Small Capitals in Latin lookup 2 subtable" yacute.smcp
EndChar

StartChar: Thorn
Encoding: 222 222 159
Width: 545
GlyphClass: 2
Flags: W
LayerCount: 2
Fore
SplineSet
46 0 m 1,0,1
 46 0 46 0 161 729 c 1,2,-1
 301 729 l 1,3,-1
 279 588 l 1,4,-1
 426 588 l 2,5,6
 474 588 474 588 514 562 c 0,7,8
 556 535 556 535 570 460 c 0,9,10
 573 443 573 443 573 420 c 128,-1,11
 573 397 573 397 568 363.5 c 128,-1,12
 563 330 563 330 554.5 299.5 c 128,-1,13
 546 269 546 269 534.5 247 c 128,-1,14
 523 225 523 225 511 209 c 128,-1,15
 499 193 499 193 482.5 183 c 128,-1,16
 466 173 466 173 453 166.5 c 128,-1,17
 440 160 440 160 421 157 c 0,18,19
 386 151 386 151 323 151 c 128,-1,20
 260 151 260 151 213 171 c 1,21,-1
 186 0 l 1,22,-1
 46 0 l 1,0,1
333 275 m 2,23,24
 356 275 356 275 369.5 278 c 128,-1,25
 383 281 383 281 395 291 c 0,26,27
 416 308 416 308 427 374 c 0,28,29
 430 387 430 387 430 394.5 c 128,-1,30
 430 402 430 402 428.5 411 c 128,-1,31
 427 420 427 420 426 430 c 128,-1,32
 425 440 425 440 418 446.5 c 128,-1,33
 411 453 411 453 406.5 456.5 c 128,-1,34
 402 460 402 460 393 461 c 1,35,36
 380 464 380 464 362 464 c 2,37,-1
 259 464 l 1,38,-1
 229 275 l 1,39,-1
 333 275 l 2,23,24
EndSplineSet
Substitution2: "'c2sc' Capitals to Small Capitals in Latin lookup 2 subtable" thorn.smcp
EndChar

StartChar: germandbls
Encoding: 223 223 160
Width: 572
GlyphClass: 2
Flags: W
LayerCount: 2
Fore
SplineSet
411 781 m 0,0,1
 478 781 478 781 526.5 762.5 c 128,-1,2
 575 744 575 744 597 715 c 0,3,4
 630 672 630 672 630 617 c 0,5,6
 630 561 630 561 593 498 c 0,7,8
 572 463 572 463 552 444.5 c 128,-1,9
 532 426 532 426 507.5 411 c 128,-1,10
 483 396 483 396 470.5 383 c 128,-1,11
 458 370 458 370 455 352 c 128,-1,12
 452 334 452 334 462 321.5 c 128,-1,13
 472 309 472 309 488 301.5 c 128,-1,14
 504 294 504 294 523 282.5 c 128,-1,15
 542 271 542 271 557 258 c 0,16,17
 586 235 586 235 586 191 c 0,18,19
 586 181 586 181 584 170 c 2,20,-1
 579 139 l 1,21,22
 557 -8 557 -8 388 -8 c 0,23,24
 325 -8 325 -8 242 11 c 1,25,-1
 258 110 l 1,26,27
 346 105 346 105 371.5 105 c 128,-1,28
 397 105 397 105 416.5 118.5 c 128,-1,29
 436 132 436 132 441 161 c 2,30,-1
 445 181 l 1,31,32
 449 211 449 211 413 228 c 0,33,34
 375 245 375 245 353 261 c 0,35,36
 318 287 318 287 318 330 c 0,37,38
 318 403 318 403 369 448 c 0,39,40
 389 466 389 466 429 491 c 1,41,42
 486 531 486 531 486 596 c 0,43,44
 486 628 486 628 470 638 c 0,45,46
 445 654 445 654 393 654 c 128,-1,47
 341 654 341 654 310.5 624 c 128,-1,48
 280 594 280 594 267 516 c 2,49,-1
 186 0 l 1,50,-1
 46 0 l 1,51,-1
 136 566 l 2,52,53
 150 658 150 658 212 717 c 0,54,55
 279 781 279 781 411 781 c 0,0,1
EndSplineSet
Substitution2: "'smcp' Lowercase to Small Capitals lookup 1 subtable" germandbls.smcp
EndChar

StartChar: agrave
Encoding: 224 224 161
Width: 542
GlyphClass: 2
Flags: W
LayerCount: 2
Fore
SplineSet
202 740 m 1,0,-1
 321 740 l 1,1,-1
 398 602 l 1,2,-1
 307 602 l 1,3,-1
 202 740 l 1,0,-1
268.5 535 m 128,-1,5
 293 539 293 539 316 540.5 c 128,-1,6
 339 542 339 542 373 542 c 128,-1,7
 407 542 407 542 474 527.5 c 128,-1,8
 541 513 541 513 576 479 c 1,9,-1
 506 1 l 1,10,-1
 398 1 l 1,11,-1
 377 56 l 1,12,13
 349 21 349 21 280 3 c 0,14,15
 247 -6 247 -6 211.5 -6 c 128,-1,16
 176 -6 176 -6 145 10.5 c 128,-1,17
 114 27 114 27 92 63 c 0,18,19
 66 107 66 107 66 169.5 c 128,-1,20
 66 232 66 232 77.5 296 c 128,-1,21
 89 360 89 360 110.5 406 c 128,-1,22
 132 452 132 452 155.5 476.5 c 128,-1,23
 179 501 179 501 211.5 516 c 128,-1,4
 244 531 244 531 268.5 535 c 128,-1,5
427 419 m 1,24,25
 392 431 392 431 363.5 431 c 128,-1,26
 335 431 335 431 317.5 427.5 c 128,-1,27
 300 424 300 424 287 418 c 128,-1,28
 274 412 274 412 259 397 c 0,29,30
 228 368 228 368 213 271 c 0,31,32
 206 230 206 230 206 201.5 c 128,-1,33
 206 173 206 173 211 154 c 0,34,35
 223 113 223 113 265.5 113 c 128,-1,36
 308 113 308 113 335.5 125 c 128,-1,37
 363 137 363 137 389 163 c 1,38,-1
 427 419 l 1,24,25
EndSplineSet
AlternateSubs2: "'salt' Stylistic Alternatives in Latin lookup 16 subtable" agrave.salt
Substitution2: "'smcp' Lowercase to Small Capitals lookup 1 subtable" agrave.smcp
EndChar

StartChar: aacute
Encoding: 225 225 162
Width: 542
GlyphClass: 2
Flags: W
LayerCount: 2
Fore
SplineSet
312 602 m 1,0,-1
 424 740 l 1,1,-1
 547 740 l 1,2,-1
 403 602 l 1,3,-1
 312 602 l 1,0,-1
268.5 535 m 128,-1,5
 293 539 293 539 316 540.5 c 128,-1,6
 339 542 339 542 373 542 c 128,-1,7
 407 542 407 542 474 527.5 c 128,-1,8
 541 513 541 513 576 479 c 1,9,-1
 506 1 l 1,10,-1
 398 1 l 1,11,-1
 377 56 l 1,12,13
 349 21 349 21 280 3 c 0,14,15
 247 -6 247 -6 211.5 -6 c 128,-1,16
 176 -6 176 -6 145 10.5 c 128,-1,17
 114 27 114 27 92 63 c 0,18,19
 66 107 66 107 66 169.5 c 128,-1,20
 66 232 66 232 77.5 296 c 128,-1,21
 89 360 89 360 110.5 406 c 128,-1,22
 132 452 132 452 155.5 476.5 c 128,-1,23
 179 501 179 501 211.5 516 c 128,-1,4
 244 531 244 531 268.5 535 c 128,-1,5
427 419 m 1,24,25
 392 431 392 431 363.5 431 c 128,-1,26
 335 431 335 431 317.5 427.5 c 128,-1,27
 300 424 300 424 287 418 c 128,-1,28
 274 412 274 412 259 397 c 0,29,30
 228 368 228 368 213 271 c 0,31,32
 206 230 206 230 206 201.5 c 128,-1,33
 206 173 206 173 211 154 c 0,34,35
 223 113 223 113 265.5 113 c 128,-1,36
 308 113 308 113 335.5 125 c 128,-1,37
 363 137 363 137 389 163 c 1,38,-1
 427 419 l 1,24,25
EndSplineSet
AlternateSubs2: "'salt' Stylistic Alternatives in Latin lookup 16 subtable" aacute.salt
Substitution2: "'smcp' Lowercase to Small Capitals lookup 1 subtable" aacute.smcp
EndChar

StartChar: acircumflex
Encoding: 226 226 163
Width: 542
GlyphClass: 2
Flags: W
LayerCount: 2
Fore
SplineSet
199 602 m 1,0,-1
 328 737 l 1,1,-1
 432 737 l 1,2,-1
 507 602 l 1,3,-1
 417 602 l 1,4,-1
 374 667 l 1,5,-1
 302 602 l 1,6,-1
 199 602 l 1,0,-1
268.5 535 m 128,-1,8
 293 539 293 539 316 540.5 c 128,-1,9
 339 542 339 542 373 542 c 128,-1,10
 407 542 407 542 474 527.5 c 128,-1,11
 541 513 541 513 576 479 c 1,12,-1
 506 1 l 1,13,-1
 398 1 l 1,14,-1
 377 56 l 1,15,16
 349 21 349 21 280 3 c 0,17,18
 247 -6 247 -6 211.5 -6 c 128,-1,19
 176 -6 176 -6 145 10.5 c 128,-1,20
 114 27 114 27 92 63 c 0,21,22
 66 107 66 107 66 169.5 c 128,-1,23
 66 232 66 232 77.5 296 c 128,-1,24
 89 360 89 360 110.5 406 c 128,-1,25
 132 452 132 452 155.5 476.5 c 128,-1,26
 179 501 179 501 211.5 516 c 128,-1,7
 244 531 244 531 268.5 535 c 128,-1,8
427 419 m 1,27,28
 392 431 392 431 363.5 431 c 128,-1,29
 335 431 335 431 317.5 427.5 c 128,-1,30
 300 424 300 424 287 418 c 128,-1,31
 274 412 274 412 259 397 c 0,32,33
 228 368 228 368 213 271 c 0,34,35
 206 230 206 230 206 201.5 c 128,-1,36
 206 173 206 173 211 154 c 0,37,38
 223 113 223 113 265.5 113 c 128,-1,39
 308 113 308 113 335.5 125 c 128,-1,40
 363 137 363 137 389 163 c 1,41,-1
 427 419 l 1,27,28
EndSplineSet
AlternateSubs2: "'salt' Stylistic Alternatives in Latin lookup 16 subtable" acircumflex.salt
Substitution2: "'smcp' Lowercase to Small Capitals lookup 1 subtable" acircumflex.smcp
EndChar

StartChar: atilde
Encoding: 227 227 164
Width: 542
GlyphClass: 2
Flags: W
LayerCount: 2
Fore
SplineSet
395.5 700.5 m 128,-1,1
 411 692 411 692 418.5 692 c 128,-1,2
 426 692 426 692 438 692 c 128,-1,3
 450 692 450 692 480 704.5 c 128,-1,4
 510 717 510 717 525 729 c 1,5,-1
 539 670 l 1,6,7
 516 649 516 649 501 637.5 c 128,-1,8
 486 626 486 626 461.5 614 c 128,-1,9
 437 602 437 602 426 602 c 0,10,11
 389 602 389 602 357.5 619.5 c 128,-1,12
 326 637 326 637 307.5 637 c 128,-1,13
 289 637 289 637 270 631 c 0,14,15
 247 624 247 624 208 602 c 1,16,-1
 193 657 l 1,17,18
 268 727 268 727 325 727 c 1,19,20
 344 726 344 726 362 717.5 c 128,-1,0
 380 709 380 709 395.5 700.5 c 128,-1,1
268.5 535 m 128,-1,22
 293 539 293 539 316 540.5 c 128,-1,23
 339 542 339 542 373 542 c 128,-1,24
 407 542 407 542 474 527.5 c 128,-1,25
 541 513 541 513 576 479 c 1,26,-1
 506 1 l 1,27,-1
 398 1 l 1,28,-1
 377 56 l 1,29,30
 349 21 349 21 280 3 c 0,31,32
 247 -6 247 -6 211.5 -6 c 128,-1,33
 176 -6 176 -6 145 10.5 c 128,-1,34
 114 27 114 27 92 63 c 0,35,36
 66 107 66 107 66 169.5 c 128,-1,37
 66 232 66 232 77.5 296 c 128,-1,38
 89 360 89 360 110.5 406 c 128,-1,39
 132 452 132 452 155.5 476.5 c 128,-1,40
 179 501 179 501 211.5 516 c 128,-1,21
 244 531 244 531 268.5 535 c 128,-1,22
427 419 m 1,41,42
 392 431 392 431 363.5 431 c 128,-1,43
 335 431 335 431 317.5 427.5 c 128,-1,44
 300 424 300 424 287 418 c 128,-1,45
 274 412 274 412 259 397 c 0,46,47
 228 368 228 368 213 271 c 0,48,49
 206 230 206 230 206 201.5 c 128,-1,50
 206 173 206 173 211 154 c 0,51,52
 223 113 223 113 265.5 113 c 128,-1,53
 308 113 308 113 335.5 125 c 128,-1,54
 363 137 363 137 389 163 c 1,55,-1
 427 419 l 1,41,42
EndSplineSet
AlternateSubs2: "'salt' Stylistic Alternatives in Latin lookup 16 subtable" atilde.salt
Substitution2: "'smcp' Lowercase to Small Capitals lookup 1 subtable" atilde.smcp
EndChar

StartChar: adieresis
Encoding: 228 228 165
Width: 542
GlyphClass: 2
Flags: W
LayerCount: 2
Fore
SplineSet
200 702 m 128,-1,1
 220 719 220 719 240 719 c 128,-1,2
 260 719 260 719 272 712 c 0,3,4
 299 695 299 695 294.5 666 c 128,-1,5
 290 637 290 637 270 619.5 c 128,-1,6
 250 602 250 602 230 602 c 128,-1,7
 210 602 210 602 197 610 c 0,8,9
 170 627 170 627 175 656 c 128,-1,0
 180 685 180 685 200 702 c 128,-1,1
455 702 m 128,-1,11
 475 719 475 719 495 719 c 128,-1,12
 515 719 515 719 527 712 c 0,13,14
 554 695 554 695 549.5 666 c 128,-1,15
 545 637 545 637 525 619.5 c 128,-1,16
 505 602 505 602 485 602 c 128,-1,17
 465 602 465 602 452 610 c 0,18,19
 425 627 425 627 430 656 c 128,-1,10
 435 685 435 685 455 702 c 128,-1,11
268.5 535 m 128,-1,21
 293 539 293 539 316 540.5 c 128,-1,22
 339 542 339 542 373 542 c 128,-1,23
 407 542 407 542 474 527.5 c 128,-1,24
 541 513 541 513 576 479 c 1,25,-1
 506 1 l 1,26,-1
 398 1 l 1,27,-1
 377 56 l 1,28,29
 349 21 349 21 280 3 c 0,30,31
 247 -6 247 -6 211.5 -6 c 128,-1,32
 176 -6 176 -6 145 10.5 c 128,-1,33
 114 27 114 27 92 63 c 0,34,35
 66 107 66 107 66 169.5 c 128,-1,36
 66 232 66 232 77.5 296 c 128,-1,37
 89 360 89 360 110.5 406 c 128,-1,38
 132 452 132 452 155.5 476.5 c 128,-1,39
 179 501 179 501 211.5 516 c 128,-1,20
 244 531 244 531 268.5 535 c 128,-1,21
427 419 m 1,40,41
 392 431 392 431 363.5 431 c 128,-1,42
 335 431 335 431 317.5 427.5 c 128,-1,43
 300 424 300 424 287 418 c 128,-1,44
 274 412 274 412 259 397 c 0,45,46
 228 368 228 368 213 271 c 0,47,48
 206 230 206 230 206 201.5 c 128,-1,49
 206 173 206 173 211 154 c 0,50,51
 223 113 223 113 265.5 113 c 128,-1,52
 308 113 308 113 335.5 125 c 128,-1,53
 363 137 363 137 389 163 c 1,54,-1
 427 419 l 1,40,41
EndSplineSet
AlternateSubs2: "'salt' Stylistic Alternatives in Latin lookup 16 subtable" adieresis.salt
Substitution2: "'smcp' Lowercase to Small Capitals lookup 1 subtable" adieresis.smcp
EndChar

StartChar: aring
Encoding: 229 229 166
Width: 542
GlyphClass: 2
Flags: W
LayerCount: 2
Fore
SplineSet
382 804 m 128,-1,1
 424 804 424 804 449.5 776.5 c 128,-1,2
 475 749 475 749 475 713 c 0,3,4
 475 679 475 679 459 654 c 0,5,6
 425 602 425 602 367 602 c 0,7,8
 324 602 324 602 297.5 629.5 c 128,-1,9
 271 657 271 657 271 693 c 0,10,11
 271 742 271 742 305.5 773 c 128,-1,0
 340 804 340 804 382 804 c 128,-1,1
378 746 m 128,-1,13
 360 746 360 746 345 732.5 c 128,-1,14
 330 719 330 719 330 701 c 128,-1,15
 330 683 330 683 341 671.5 c 128,-1,16
 352 660 352 660 370 660 c 128,-1,17
 388 660 388 660 401 673 c 1,18,19
 417 687 417 687 417 705 c 128,-1,20
 417 723 417 723 406.5 734.5 c 128,-1,12
 396 746 396 746 378 746 c 128,-1,13
268.5 535 m 128,-1,22
 293 539 293 539 316 540.5 c 128,-1,23
 339 542 339 542 373 542 c 128,-1,24
 407 542 407 542 474 527.5 c 128,-1,25
 541 513 541 513 576 479 c 1,26,-1
 506 1 l 1,27,-1
 398 1 l 1,28,-1
 377 56 l 1,29,30
 349 21 349 21 280 3 c 0,31,32
 247 -6 247 -6 211.5 -6 c 128,-1,33
 176 -6 176 -6 145 10.5 c 128,-1,34
 114 27 114 27 92 63 c 0,35,36
 66 107 66 107 66 169.5 c 128,-1,37
 66 232 66 232 77.5 296 c 128,-1,38
 89 360 89 360 110.5 406 c 128,-1,39
 132 452 132 452 155.5 476.5 c 128,-1,40
 179 501 179 501 211.5 516 c 128,-1,21
 244 531 244 531 268.5 535 c 128,-1,22
427 419 m 1,41,42
 392 431 392 431 363.5 431 c 128,-1,43
 335 431 335 431 317.5 427.5 c 128,-1,44
 300 424 300 424 287 418 c 128,-1,45
 274 412 274 412 259 397 c 0,46,47
 228 368 228 368 213 271 c 0,48,49
 206 230 206 230 206 201.5 c 128,-1,50
 206 173 206 173 211 154 c 0,51,52
 223 113 223 113 265.5 113 c 128,-1,53
 308 113 308 113 335.5 125 c 128,-1,54
 363 137 363 137 389 163 c 1,55,-1
 427 419 l 1,41,42
EndSplineSet
AlternateSubs2: "'salt' Stylistic Alternatives in Latin lookup 16 subtable" aring.salt
Substitution2: "'smcp' Lowercase to Small Capitals lookup 1 subtable" aring.smcp
EndChar

StartChar: ae
Encoding: 230 230 167
Width: 849
GlyphClass: 2
Flags: W
LayerCount: 2
Fore
SplineSet
611 194 m 0,0,1
 540 194 540 194 507 208 c 1,2,3
 503 185 503 185 503 162.5 c 128,-1,4
 503 140 503 140 513 127 c 0,5,6
 530 106 530 106 584 105 c 0,7,8
 598 105 598 105 613 105 c 0,9,10
 692 105 692 105 795 122 c 1,11,-1
 778 22 l 1,12,13
 676 -9 676 -9 561 -9 c 0,14,15
 534 -9 534 -9 507 -7 c 0,16,17
 421 -3 421 -3 387 62 c 1,18,19
 357 29 357 29 300.5 11 c 128,-1,20
 244 -7 244 -7 194 -7 c 0,21,22
 109 -7 109 -7 67 70 c 0,23,24
 42 116 42 116 42 176 c 128,-1,25
 42 236 42 236 53 290.5 c 128,-1,26
 64 345 64 345 77.5 382.5 c 128,-1,27
 91 420 91 420 105.5 444.5 c 128,-1,28
 120 469 120 469 140 487 c 128,-1,29
 160 505 160 505 176.5 514.5 c 128,-1,30
 193 524 193 524 217 530 c 0,31,32
 262 542 262 542 301 542 c 128,-1,33
 340 542 340 542 367 540 c 0,34,35
 440 534 440 534 491 510 c 1,36,37
 547 541 547 541 639 541 c 0,38,39
 730 541 730 541 790 511 c 0,40,41
 853 479 853 479 853 401 c 0,42,43
 853 346 853 346 832 305 c 128,-1,44
 811 264 811 264 783 244 c 0,45,46
 717 194 717 194 611 194 c 0,0,1
409 417 m 1,47,48
 367 431 367 431 338.5 431 c 128,-1,49
 310 431 310 431 294 427.5 c 128,-1,50
 278 424 278 424 265 418 c 128,-1,51
 252 412 252 412 236 397 c 1,52,53
 206 366 206 366 191 270 c 1,54,55
 183 226 183 226 183 198.5 c 128,-1,56
 183 171 183 171 187 153 c 0,57,58
 198 112 198 112 247 112 c 0,59,60
 282 112 282 112 315.5 122 c 128,-1,61
 349 132 349 132 363 149 c 1,62,63
 362 164 362 164 362 198 c 128,-1,64
 362 232 362 232 375.5 304.5 c 128,-1,65
 389 377 389 377 409 417 c 1,47,48
518 300 m 1,66,67
 542 296 542 296 562 296 c 128,-1,68
 582 296 582 296 593.5 296.5 c 128,-1,69
 605 297 605 297 626.5 301 c 128,-1,70
 648 305 648 305 664 313 c 0,71,72
 711 334 711 334 711 385 c 0,73,74
 711 407 711 407 695.5 418 c 128,-1,75
 680 429 680 429 637 429 c 0,76,77
 575 429 575 429 552 398 c 0,78,79
 544 386 544 386 539.5 379 c 128,-1,80
 535 372 535 372 530 354 c 0,81,82
 524 333 524 333 518 300 c 1,66,67
EndSplineSet
Substitution2: "'smcp' Lowercase to Small Capitals lookup 1 subtable" ae.smcp
EndChar

StartChar: ccedilla
Encoding: 231 231 168
Width: 493
GlyphClass: 2
Flags: W
LayerCount: 2
Fore
SplineSet
279 -6 m 1,0,-1
 215 -5 l 1,1,2
 134 -5 134 -5 95 66 c 0,3,4
 70 110 70 110 70 168.5 c 128,-1,5
 70 227 70 227 80.5 288 c 128,-1,6
 91 349 91 349 108 396.5 c 128,-1,7
 125 444 125 444 144 471 c 128,-1,8
 163 498 163 498 189.5 513 c 128,-1,9
 216 528 216 528 240 532.5 c 128,-1,10
 264 537 264 537 297 537 c 0,11,12
 441 537 441 537 536 504 c 1,13,-1
 523 418 l 1,14,15
 428 424 428 424 374 424 c 128,-1,16
 320 424 320 424 310 423.5 c 128,-1,17
 300 423 300 423 286 418 c 128,-1,18
 272 413 272 413 264.5 403 c 128,-1,19
 257 393 257 393 248 376 c 0,20,21
 233 346 233 346 218 263 c 1,22,23
 210 198 210 198 210 173.5 c 128,-1,24
 210 149 210 149 220 133.5 c 128,-1,25
 230 118 230 118 245.5 112.5 c 128,-1,26
 261 107 261 107 295 107 c 0,27,28
 370 107 370 107 454 114 c 2,29,-1
 482 116 l 1,30,-1
 468 28 l 1,31,32
 396 -6 396 -6 279 -6 c 1,0,-1
185 -179 m 2,33,-1
 128 -179 l 1,34,-1
 138 -119 l 1,35,-1
 184 -104 l 2,36,37
 206 -96 206 -96 213 -82.5 c 128,-1,38
 220 -69 220 -69 225 -38 c 1,39,-1
 319 -38 l 1,40,41
 307 -115 307 -115 278 -147 c 128,-1,42
 249 -179 249 -179 185 -179 c 2,33,-1
EndSplineSet
Substitution2: "'smcp' Lowercase to Small Capitals lookup 1 subtable" ccedilla.smcp
EndChar

StartChar: egrave
Encoding: 232 232 169
Width: 527
GlyphClass: 2
Flags: W
LayerCount: 2
Fore
SplineSet
209 740 m 1,0,-1
 328 740 l 1,1,-1
 405 601 l 1,2,-1
 314 601 l 1,3,-1
 209 740 l 1,0,-1
315 194 m 0,4,5
 244 194 244 194 211 208 c 1,6,7
 207 185 207 185 207 162.5 c 128,-1,8
 207 140 207 140 217 127 c 0,9,10
 234 106 234 106 288 105 c 0,11,12
 303 105 303 105 320 105 c 0,13,14
 401 105 401 105 505 122 c 1,15,-1
 488 22 l 1,16,17
 386 -9 386 -9 268 -9 c 0,18,19
 240 -9 240 -9 211 -7 c 0,20,21
 66 0 66 0 66 179 c 0,22,23
 66 232 66 232 77.5 292.5 c 128,-1,24
 89 353 89 353 100.5 388 c 128,-1,25
 112 423 112 423 131 454.5 c 128,-1,26
 150 486 150 486 179 503 c 1,27,28
 239 541 239 541 351 541 c 0,29,30
 557 541 557 541 557 402 c 0,31,32
 557 346 557 346 536.5 305 c 128,-1,33
 516 264 516 264 488 244 c 0,34,35
 421 194 421 194 315 194 c 0,4,5
222 300 m 1,36,37
 247 296 247 296 266.5 296 c 128,-1,38
 286 296 286 296 297.5 296.5 c 128,-1,39
 309 297 309 297 330.5 301 c 128,-1,40
 352 305 352 305 368 313 c 0,41,42
 415 334 415 334 415 385 c 0,43,44
 415 407 415 407 399.5 418 c 128,-1,45
 384 429 384 429 342 429 c 0,46,47
 279 429 279 429 257 398 c 0,48,49
 248 386 248 386 243.5 379 c 128,-1,50
 239 372 239 372 234 354 c 0,51,52
 229 333 229 333 222 300 c 1,36,37
EndSplineSet
Substitution2: "'smcp' Lowercase to Small Capitals lookup 1 subtable" egrave.smcp
EndChar

StartChar: eacute
Encoding: 233 233 170
Width: 527
GlyphClass: 2
Flags: W
LayerCount: 2
Fore
SplineSet
314 601 m 1,0,-1
 427 740 l 1,1,-1
 549 740 l 1,2,-1
 405 601 l 1,3,-1
 314 601 l 1,0,-1
315 194 m 0,4,5
 244 194 244 194 211 208 c 1,6,7
 207 185 207 185 207 162.5 c 128,-1,8
 207 140 207 140 217 127 c 0,9,10
 234 106 234 106 288 105 c 0,11,12
 303 105 303 105 320 105 c 0,13,14
 401 105 401 105 505 122 c 1,15,-1
 488 22 l 1,16,17
 386 -9 386 -9 268 -9 c 0,18,19
 240 -9 240 -9 211 -7 c 0,20,21
 66 0 66 0 66 179 c 0,22,23
 66 232 66 232 77.5 292.5 c 128,-1,24
 89 353 89 353 100.5 388 c 128,-1,25
 112 423 112 423 131 454.5 c 128,-1,26
 150 486 150 486 179 503 c 1,27,28
 239 541 239 541 351 541 c 0,29,30
 557 541 557 541 557 402 c 0,31,32
 557 346 557 346 536.5 305 c 128,-1,33
 516 264 516 264 488 244 c 0,34,35
 421 194 421 194 315 194 c 0,4,5
222 300 m 1,36,37
 247 296 247 296 266.5 296 c 128,-1,38
 286 296 286 296 297.5 296.5 c 128,-1,39
 309 297 309 297 330.5 301 c 128,-1,40
 352 305 352 305 368 313 c 0,41,42
 415 334 415 334 415 385 c 0,43,44
 415 407 415 407 399.5 418 c 128,-1,45
 384 429 384 429 342 429 c 0,46,47
 279 429 279 429 257 398 c 0,48,49
 248 386 248 386 243.5 379 c 128,-1,50
 239 372 239 372 234 354 c 0,51,52
 229 333 229 333 222 300 c 1,36,37
EndSplineSet
Substitution2: "'smcp' Lowercase to Small Capitals lookup 1 subtable" eacute.smcp
EndChar

StartChar: ecircumflex
Encoding: 234 234 171
Width: 527
GlyphClass: 2
Flags: W
LayerCount: 2
Fore
SplineSet
206 601 m 1,0,-1
 335 736 l 1,1,-1
 439 736 l 1,2,-1
 514 601 l 1,3,-1
 424 601 l 1,4,-1
 381 666 l 1,5,-1
 309 601 l 1,6,-1
 206 601 l 1,0,-1
315 194 m 0,7,8
 244 194 244 194 211 208 c 1,9,10
 207 185 207 185 207 162.5 c 128,-1,11
 207 140 207 140 217 127 c 0,12,13
 234 106 234 106 288 105 c 0,14,15
 303 105 303 105 320 105 c 0,16,17
 401 105 401 105 505 122 c 1,18,-1
 488 22 l 1,19,20
 386 -9 386 -9 268 -9 c 0,21,22
 240 -9 240 -9 211 -7 c 0,23,24
 66 0 66 0 66 179 c 0,25,26
 66 232 66 232 77.5 292.5 c 128,-1,27
 89 353 89 353 100.5 388 c 128,-1,28
 112 423 112 423 131 454.5 c 128,-1,29
 150 486 150 486 179 503 c 1,30,31
 239 541 239 541 351 541 c 0,32,33
 557 541 557 541 557 402 c 0,34,35
 557 346 557 346 536.5 305 c 128,-1,36
 516 264 516 264 488 244 c 0,37,38
 421 194 421 194 315 194 c 0,7,8
222 300 m 1,39,40
 247 296 247 296 266.5 296 c 128,-1,41
 286 296 286 296 297.5 296.5 c 128,-1,42
 309 297 309 297 330.5 301 c 128,-1,43
 352 305 352 305 368 313 c 0,44,45
 415 334 415 334 415 385 c 0,46,47
 415 407 415 407 399.5 418 c 128,-1,48
 384 429 384 429 342 429 c 0,49,50
 279 429 279 429 257 398 c 0,51,52
 248 386 248 386 243.5 379 c 128,-1,53
 239 372 239 372 234 354 c 0,54,55
 229 333 229 333 222 300 c 1,39,40
EndSplineSet
Substitution2: "'smcp' Lowercase to Small Capitals lookup 1 subtable" ecircumflex.smcp
EndChar

StartChar: edieresis
Encoding: 235 235 172
Width: 527
GlyphClass: 2
Flags: W
LayerCount: 2
Fore
SplineSet
251.5 718 m 128,-1,1
 276 718 276 718 288.5 703 c 128,-1,2
 301 688 301 688 301 677 c 0,3,4
 301 640 301 640 279 620.5 c 128,-1,5
 257 601 257 601 232.5 601 c 128,-1,6
 208 601 208 601 195 616.5 c 128,-1,7
 182 632 182 632 182 644 c 0,8,9
 182 681 182 681 204.5 699.5 c 128,-1,0
 227 718 227 718 251.5 718 c 128,-1,1
506.5 718 m 128,-1,11
 531 718 531 718 543.5 703 c 128,-1,12
 556 688 556 688 556 677 c 0,13,14
 556 640 556 640 534 620.5 c 128,-1,15
 512 601 512 601 487.5 601 c 128,-1,16
 463 601 463 601 450 616.5 c 128,-1,17
 437 632 437 632 437 644 c 0,18,19
 437 681 437 681 459.5 699.5 c 128,-1,10
 482 718 482 718 506.5 718 c 128,-1,11
315 194 m 0,20,21
 244 194 244 194 211 208 c 1,22,23
 207 185 207 185 207 162.5 c 128,-1,24
 207 140 207 140 217 127 c 0,25,26
 234 106 234 106 288 105 c 0,27,28
 303 105 303 105 320 105 c 0,29,30
 401 105 401 105 505 122 c 1,31,-1
 488 22 l 1,32,33
 386 -9 386 -9 268 -9 c 0,34,35
 240 -9 240 -9 211 -7 c 0,36,37
 66 0 66 0 66 179 c 0,38,39
 66 232 66 232 77.5 292.5 c 128,-1,40
 89 353 89 353 100.5 388 c 128,-1,41
 112 423 112 423 131 454.5 c 128,-1,42
 150 486 150 486 179 503 c 1,43,44
 239 541 239 541 351 541 c 0,45,46
 557 541 557 541 557 402 c 0,47,48
 557 346 557 346 536.5 305 c 128,-1,49
 516 264 516 264 488 244 c 0,50,51
 421 194 421 194 315 194 c 0,20,21
222 300 m 1,52,53
 247 296 247 296 266.5 296 c 128,-1,54
 286 296 286 296 297.5 296.5 c 128,-1,55
 309 297 309 297 330.5 301 c 128,-1,56
 352 305 352 305 368 313 c 0,57,58
 415 334 415 334 415 385 c 0,59,60
 415 407 415 407 399.5 418 c 128,-1,61
 384 429 384 429 342 429 c 0,62,63
 279 429 279 429 257 398 c 0,64,65
 248 386 248 386 243.5 379 c 128,-1,66
 239 372 239 372 234 354 c 0,67,68
 229 333 229 333 222 300 c 1,52,53
EndSplineSet
Substitution2: "'smcp' Lowercase to Small Capitals lookup 1 subtable" edieresis.smcp
EndChar

StartChar: igrave
Encoding: 236 236 173
Width: 226
GlyphClass: 2
Flags: W
LayerCount: 2
Fore
SplineSet
51 736 m 1,0,-1
 169 736 l 1,1,-1
 247 598 l 1,2,-1
 156 598 l 1,3,-1
 51 736 l 1,0,-1
38 0 m 1,4,-1
 122 531 l 1,5,-1
 262 531 l 1,6,-1
 178 0 l 1,7,-1
 38 0 l 1,4,-1
EndSplineSet
Substitution2: "'smcp' Lowercase to Small Capitals lookup 1 subtable" igrave.smcp
EndChar

StartChar: iacute
Encoding: 237 237 174
Width: 226
GlyphClass: 2
Flags: W
LayerCount: 2
Fore
SplineSet
155 598 m 1,0,-1
 268 736 l 1,1,-1
 390 736 l 1,2,-1
 246 598 l 1,3,-1
 155 598 l 1,0,-1
38 0 m 1,4,-1
 122 531 l 1,5,-1
 262 531 l 1,6,-1
 178 0 l 1,7,-1
 38 0 l 1,4,-1
EndSplineSet
Substitution2: "'smcp' Lowercase to Small Capitals lookup 1 subtable" iacute.smcp
EndChar

StartChar: icircumflex
Encoding: 238 238 175
Width: 226
GlyphClass: 2
Flags: W
LayerCount: 2
Fore
SplineSet
46 598 m 1,0,-1
 175 733 l 1,1,-1
 279 733 l 1,2,-1
 354 598 l 1,3,-1
 264 598 l 1,4,-1
 221 663 l 1,5,-1
 149 598 l 1,6,-1
 46 598 l 1,0,-1
38 0 m 1,7,-1
 122 531 l 1,8,-1
 262 531 l 1,9,-1
 178 0 l 1,10,-1
 38 0 l 1,7,-1
EndSplineSet
Substitution2: "'smcp' Lowercase to Small Capitals lookup 1 subtable" icircumflex.smcp
EndChar

StartChar: idieresis
Encoding: 239 239 176
Width: 226
GlyphClass: 2
Flags: W
LayerCount: 2
Fore
SplineSet
59 707.5 m 128,-1,1
 74 715 74 715 94 715 c 128,-1,2
 114 715 114 715 127 700 c 128,-1,3
 140 685 140 685 140 673 c 0,4,5
 140 637 140 637 117.5 617.5 c 128,-1,6
 95 598 95 598 71 598 c 128,-1,7
 47 598 47 598 34 613.5 c 128,-1,8
 21 629 21 629 21 640.5 c 128,-1,9
 21 652 21 652 22.5 662.5 c 128,-1,10
 24 673 24 673 34 686.5 c 128,-1,0
 44 700 44 700 59 707.5 c 128,-1,1
321.5 710.5 m 128,-1,12
 333 715 333 715 351 715 c 128,-1,13
 369 715 369 715 382 700 c 128,-1,14
 395 685 395 685 395 673 c 0,15,16
 395 637 395 637 372.5 617.5 c 128,-1,17
 350 598 350 598 326 598 c 128,-1,18
 302 598 302 598 289 613.5 c 128,-1,19
 276 629 276 629 276 640.5 c 128,-1,20
 276 652 276 652 277 660.5 c 128,-1,21
 278 669 278 669 284.5 679.5 c 128,-1,22
 291 690 291 690 300.5 698 c 128,-1,11
 310 706 310 706 321.5 710.5 c 128,-1,12
38 0 m 1,23,-1
 122 531 l 1,24,-1
 262 531 l 1,25,-1
 178 0 l 1,26,-1
 38 0 l 1,23,-1
EndSplineSet
Substitution2: "'smcp' Lowercase to Small Capitals lookup 1 subtable" idieresis.smcp
EndChar

StartChar: eth
Encoding: 240 240 177
Width: 539
GlyphClass: 2
Flags: W
LayerCount: 2
Fore
SplineSet
214 0 m 2,0,1
 63 0 63 0 63 181 c 0,2,3
 63 224 63 224 70 274 c 1,4,5
 92 409 92 409 145 470 c 128,-1,6
 198 531 198 531 298 531 c 2,7,-1
 355 531 l 2,8,9
 414 531 414 531 429 521 c 1,10,11
 421 582 421 582 387 618 c 1,12,-1
 265 565 l 1,13,-1
 246 622 l 1,14,-1
 323 655 l 1,15,16
 287 669 287 669 223 669 c 0,17,18
 212 669 212 669 200 668 c 1,19,-1
 218 783 l 1,20,21
 383 783 383 783 465 723 c 1,22,-1
 563 766 l 1,23,-1
 584 708 l 1,24,-1
 511 677 l 1,25,26
 568 599 568 599 568 443 c 0,27,28
 568 356 568 356 548 232.5 c 128,-1,29
 528 109 528 109 473 54.5 c 128,-1,30
 418 0 418 0 323 0 c 2,31,-1
 214 0 l 2,0,1
210 261 m 1,32,33
 202 222 202 222 202 204 c 0,34,35
 202 152 202 152 216.5 141 c 128,-1,36
 231 130 231 130 255 130 c 0,37,38
 256 130 256 130 257 130 c 2,39,-1
 321 130 l 1,40,41
 321 130 321 130 334 130 c 128,-1,42
 347 130 347 130 361 138 c 0,43,44
 393 156 393 156 410 261 c 0,45,46
 419 315 419 315 419 340 c 128,-1,47
 419 365 419 365 416 375 c 0,48,49
 407 402 407 402 363 402 c 2,50,-1
 303 402 l 2,51,52
 264 402 264 402 244 374 c 128,-1,53
 224 346 224 346 210 261 c 1,32,33
EndSplineSet
Substitution2: "'smcp' Lowercase to Small Capitals lookup 1 subtable" eth.smcp
EndChar

StartChar: ntilde
Encoding: 241 241 178
Width: 550
GlyphClass: 2
Flags: W
LayerCount: 2
Fore
SplineSet
441 690 m 0,0,1
 443 690 443 690 454.5 690 c 128,-1,2
 466 690 466 690 496.5 702.5 c 128,-1,3
 527 715 527 715 541 728 c 1,4,-1
 556 668 l 1,5,6
 532 647 532 647 517.5 635.5 c 128,-1,7
 503 624 503 624 478.5 612 c 128,-1,8
 454 600 454 600 442 600 c 0,9,10
 406 600 406 600 374.5 617.5 c 128,-1,11
 343 635 343 635 324.5 635 c 128,-1,12
 306 635 306 635 287 629 c 0,13,14
 264 622 264 622 225 600 c 1,15,-1
 210 655 l 1,16,17
 284 725 284 725 341 725 c 1,18,19
 366 724 366 724 395.5 707 c 128,-1,20
 425 690 425 690 441 690 c 0,0,1
440 540 m 0,21,22
 574 540 574 540 574 408 c 0,23,24
 574 383 574 383 569 354 c 2,25,-1
 513 0 l 1,26,-1
 373 0 l 1,27,-1
 429 356 l 2,28,29
 431 367 431 367 431 377 c 0,30,31
 431 428 431 428 382 428 c 0,32,33
 322 428 322 428 273 398 c 0,34,35
 261 391 261 391 246 382 c 1,36,-1
 186 0 l 1,37,-1
 46 0 l 1,38,-1
 130 531 l 1,39,-1
 242 531 l 1,40,-1
 261 474 l 1,41,42
 297 498 297 498 314 507.5 c 128,-1,43
 331 517 331 517 366.5 528.5 c 128,-1,44
 402 540 402 540 440 540 c 0,21,22
EndSplineSet
AlternateSubs2: "'salt' Stylistic Alternatives in Latin lookup 16 subtable" ntilde.salt
Substitution2: "'smcp' Lowercase to Small Capitals lookup 1 subtable" ntilde.smcp
EndChar

StartChar: ograve
Encoding: 242 242 179
Width: 557
GlyphClass: 2
Flags: W
LayerCount: 2
Fore
SplineSet
215 736 m 1,0,-1
 334 736 l 1,1,-1
 411 598 l 1,2,-1
 320 598 l 1,3,-1
 215 736 l 1,0,-1
362 538 m 0,4,5
 494 538 494 538 540 467 c 0,6,7
 570 421 570 421 570 340 c 0,8,9
 570 297 570 297 560 233 c 128,-1,10
 550 169 550 169 531 122 c 128,-1,11
 512 75 512 75 479 46 c 128,-1,12
 446 17 446 17 400 6 c 128,-1,13
 354 -5 354 -5 283 -5 c 0,14,15
 149 -5 149 -5 102 61 c 0,16,17
 70 106 70 106 70 186 c 0,18,19
 70 225 70 225 80 289.5 c 128,-1,20
 90 354 90 354 110.5 405 c 128,-1,21
 131 456 131 456 166 486 c 128,-1,22
 201 516 201 516 246.5 527 c 128,-1,23
 292 538 292 538 362 538 c 0,4,5
236 345.5 m 128,-1,25
 227 314 227 314 218.5 263.5 c 128,-1,26
 210 213 210 213 210 187 c 128,-1,27
 210 161 210 161 214 145.5 c 128,-1,28
 218 130 218 130 230 121 c 0,29,30
 250 107 250 107 289 107.5 c 128,-1,31
 328 108 328 108 345.5 111.5 c 128,-1,32
 363 115 363 115 379 130.5 c 128,-1,33
 395 146 395 146 404 175.5 c 128,-1,34
 413 205 413 205 422 259 c 0,35,36
 432 319 432 319 432 348 c 128,-1,37
 432 377 432 377 423 395 c 128,-1,38
 414 413 414 413 396.5 419 c 128,-1,39
 379 425 379 425 346 425 c 128,-1,40
 313 425 313 425 294 419.5 c 128,-1,41
 275 414 275 414 260 395.5 c 128,-1,24
 245 377 245 377 236 345.5 c 128,-1,25
EndSplineSet
Substitution2: "'smcp' Lowercase to Small Capitals lookup 1 subtable" ograve.smcp
EndChar

StartChar: oacute
Encoding: 243 243 180
Width: 557
GlyphClass: 2
Flags: W
LayerCount: 2
Fore
SplineSet
324 598 m 1,0,-1
 436 736 l 1,1,-1
 559 736 l 1,2,-1
 415 598 l 1,3,-1
 324 598 l 1,0,-1
362 538 m 0,4,5
 494 538 494 538 540 467 c 0,6,7
 570 421 570 421 570 340 c 0,8,9
 570 297 570 297 560 233 c 128,-1,10
 550 169 550 169 531 122 c 128,-1,11
 512 75 512 75 479 46 c 128,-1,12
 446 17 446 17 400 6 c 128,-1,13
 354 -5 354 -5 283 -5 c 0,14,15
 149 -5 149 -5 102 61 c 0,16,17
 70 106 70 106 70 186 c 0,18,19
 70 225 70 225 80 289.5 c 128,-1,20
 90 354 90 354 110.5 405 c 128,-1,21
 131 456 131 456 166 486 c 128,-1,22
 201 516 201 516 246.5 527 c 128,-1,23
 292 538 292 538 362 538 c 0,4,5
236 345.5 m 128,-1,25
 227 314 227 314 218.5 263.5 c 128,-1,26
 210 213 210 213 210 187 c 128,-1,27
 210 161 210 161 214 145.5 c 128,-1,28
 218 130 218 130 230 121 c 0,29,30
 250 107 250 107 289 107.5 c 128,-1,31
 328 108 328 108 345.5 111.5 c 128,-1,32
 363 115 363 115 379 130.5 c 128,-1,33
 395 146 395 146 404 175.5 c 128,-1,34
 413 205 413 205 422 259 c 0,35,36
 432 319 432 319 432 348 c 128,-1,37
 432 377 432 377 423 395 c 128,-1,38
 414 413 414 413 396.5 419 c 128,-1,39
 379 425 379 425 346 425 c 128,-1,40
 313 425 313 425 294 419.5 c 128,-1,41
 275 414 275 414 260 395.5 c 128,-1,24
 245 377 245 377 236 345.5 c 128,-1,25
EndSplineSet
Substitution2: "'smcp' Lowercase to Small Capitals lookup 1 subtable" oacute.smcp
EndChar

StartChar: ocircumflex
Encoding: 244 244 181
Width: 557
GlyphClass: 2
Flags: W
LayerCount: 2
Fore
SplineSet
210 598 m 1,0,-1
 339 733 l 1,1,-1
 443 733 l 1,2,-1
 518 598 l 1,3,-1
 428 598 l 1,4,-1
 385 663 l 1,5,-1
 313 598 l 1,6,-1
 210 598 l 1,0,-1
362 538 m 0,7,8
 494 538 494 538 540 467 c 0,9,10
 570 421 570 421 570 340 c 0,11,12
 570 297 570 297 560 233 c 128,-1,13
 550 169 550 169 531 122 c 128,-1,14
 512 75 512 75 479 46 c 128,-1,15
 446 17 446 17 400 6 c 128,-1,16
 354 -5 354 -5 283 -5 c 0,17,18
 149 -5 149 -5 102 61 c 0,19,20
 70 106 70 106 70 186 c 0,21,22
 70 225 70 225 80 289.5 c 128,-1,23
 90 354 90 354 110.5 405 c 128,-1,24
 131 456 131 456 166 486 c 128,-1,25
 201 516 201 516 246.5 527 c 128,-1,26
 292 538 292 538 362 538 c 0,7,8
236 345.5 m 128,-1,28
 227 314 227 314 218.5 263.5 c 128,-1,29
 210 213 210 213 210 187 c 128,-1,30
 210 161 210 161 214 145.5 c 128,-1,31
 218 130 218 130 230 121 c 0,32,33
 250 107 250 107 289 107.5 c 128,-1,34
 328 108 328 108 345.5 111.5 c 128,-1,35
 363 115 363 115 379 130.5 c 128,-1,36
 395 146 395 146 404 175.5 c 128,-1,37
 413 205 413 205 422 259 c 0,38,39
 432 319 432 319 432 348 c 128,-1,40
 432 377 432 377 423 395 c 128,-1,41
 414 413 414 413 396.5 419 c 128,-1,42
 379 425 379 425 346 425 c 128,-1,43
 313 425 313 425 294 419.5 c 128,-1,44
 275 414 275 414 260 395.5 c 128,-1,27
 245 377 245 377 236 345.5 c 128,-1,28
EndSplineSet
Substitution2: "'smcp' Lowercase to Small Capitals lookup 1 subtable" ocircumflex.smcp
EndChar

StartChar: otilde
Encoding: 245 245 182
Width: 557
GlyphClass: 2
Flags: W
LayerCount: 2
Fore
SplineSet
405.5 696.5 m 128,-1,1
 421 688 421 688 429 688 c 128,-1,2
 437 688 437 688 448.5 688 c 128,-1,3
 460 688 460 688 490 700.5 c 128,-1,4
 520 713 520 713 535 725 c 1,5,-1
 549 666 l 1,6,7
 526 645 526 645 511.5 633.5 c 128,-1,8
 497 622 497 622 472 610 c 128,-1,9
 447 598 447 598 436 598 c 0,10,11
 399 598 399 598 367.5 615.5 c 128,-1,12
 336 633 336 633 317.5 633 c 128,-1,13
 299 633 299 633 280 627 c 0,14,15
 257 620 257 620 219 598 c 1,16,-1
 203 653 l 1,17,18
 278 722 278 722 335 722 c 0,19,20
 355 722 355 722 372.5 713.5 c 128,-1,0
 390 705 390 705 405.5 696.5 c 128,-1,1
362 538 m 0,21,22
 494 538 494 538 540 467 c 0,23,24
 570 421 570 421 570 340 c 0,25,26
 570 297 570 297 560 233 c 128,-1,27
 550 169 550 169 531 122 c 128,-1,28
 512 75 512 75 479 46 c 128,-1,29
 446 17 446 17 400 6 c 128,-1,30
 354 -5 354 -5 283 -5 c 0,31,32
 149 -5 149 -5 102 61 c 0,33,34
 70 106 70 106 70 186 c 0,35,36
 70 225 70 225 80 289.5 c 128,-1,37
 90 354 90 354 110.5 405 c 128,-1,38
 131 456 131 456 166 486 c 128,-1,39
 201 516 201 516 246.5 527 c 128,-1,40
 292 538 292 538 362 538 c 0,21,22
236 345.5 m 128,-1,42
 227 314 227 314 218.5 263.5 c 128,-1,43
 210 213 210 213 210 187 c 128,-1,44
 210 161 210 161 214 145.5 c 128,-1,45
 218 130 218 130 230 121 c 0,46,47
 250 107 250 107 289 107.5 c 128,-1,48
 328 108 328 108 345.5 111.5 c 128,-1,49
 363 115 363 115 379 130.5 c 128,-1,50
 395 146 395 146 404 175.5 c 128,-1,51
 413 205 413 205 422 259 c 0,52,53
 432 319 432 319 432 348 c 128,-1,54
 432 377 432 377 423 395 c 128,-1,55
 414 413 414 413 396.5 419 c 128,-1,56
 379 425 379 425 346 425 c 128,-1,57
 313 425 313 425 294 419.5 c 128,-1,58
 275 414 275 414 260 395.5 c 128,-1,41
 245 377 245 377 236 345.5 c 128,-1,42
EndSplineSet
Substitution2: "'smcp' Lowercase to Small Capitals lookup 1 subtable" otilde.smcp
EndChar

StartChar: odieresis
Encoding: 246 246 183
Width: 557
GlyphClass: 2
Flags: W
LayerCount: 2
Fore
SplineSet
259.5 715 m 128,-1,1
 284 715 284 715 297 700 c 128,-1,2
 310 685 310 685 310 673 c 0,3,4
 310 637 310 637 287.5 617.5 c 128,-1,5
 265 598 265 598 241 598 c 128,-1,6
 217 598 217 598 203.5 613.5 c 128,-1,7
 190 629 190 629 190 640 c 0,8,9
 190 677 190 677 212.5 696 c 128,-1,0
 235 715 235 715 259.5 715 c 128,-1,1
514.5 715 m 128,-1,11
 539 715 539 715 552 700 c 128,-1,12
 565 685 565 685 565 673 c 0,13,14
 565 637 565 637 542.5 617.5 c 128,-1,15
 520 598 520 598 496 598 c 128,-1,16
 472 598 472 598 458.5 613.5 c 128,-1,17
 445 629 445 629 445 640 c 0,18,19
 445 677 445 677 467.5 696 c 128,-1,10
 490 715 490 715 514.5 715 c 128,-1,11
362 538 m 0,21,22
 494 538 494 538 540 467 c 0,23,24
 570 421 570 421 570 340 c 0,25,26
 570 297 570 297 560 233 c 128,-1,27
 550 169 550 169 531 122 c 128,-1,28
 512 75 512 75 479 46 c 128,-1,29
 446 17 446 17 400 6 c 128,-1,30
 354 -5 354 -5 283 -5 c 0,31,32
 149 -5 149 -5 102 61 c 0,33,34
 70 106 70 106 70 186 c 0,35,36
 70 225 70 225 80 289.5 c 128,-1,37
 90 354 90 354 110.5 405 c 128,-1,38
 131 456 131 456 166 486 c 128,-1,39
 201 516 201 516 246.5 527 c 128,-1,20
 292 538 292 538 362 538 c 0,21,22
236 345.5 m 128,-1,41
 227 314 227 314 218.5 263.5 c 128,-1,42
 210 213 210 213 210 187 c 128,-1,43
 210 161 210 161 214 145.5 c 128,-1,44
 218 130 218 130 230 121 c 0,45,46
 250 107 250 107 289 107.5 c 128,-1,47
 328 108 328 108 345.5 111.5 c 128,-1,48
 363 115 363 115 379 130.5 c 128,-1,49
 395 146 395 146 404 175.5 c 128,-1,50
 413 205 413 205 422 259 c 0,51,52
 432 319 432 319 432 348 c 128,-1,53
 432 377 432 377 423 395 c 128,-1,54
 414 413 414 413 396.5 419 c 128,-1,55
 379 425 379 425 346 425 c 128,-1,56
 313 425 313 425 294 419.5 c 128,-1,57
 275 414 275 414 260 395.5 c 128,-1,40
 245 377 245 377 236 345.5 c 128,-1,41
EndSplineSet
Substitution2: "'smcp' Lowercase to Small Capitals lookup 1 subtable" odieresis.smcp
EndChar

StartChar: divide
Encoding: 247 247 184
Width: 497
GlyphClass: 2
Flags: W
LayerCount: 2
Fore
SplineSet
84 294 m 1,0,-1
 103 412 l 1,1,-1
 525 412 l 1,2,-1
 506 294 l 1,3,-1
 84 294 l 1,0,-1
249 246 m 2,4,-1
 323 246 l 2,5,6
 343 246 343 246 343 228 c 0,7,8
 343 225 343 225 343 222 c 2,9,-1
 332 155 l 2,10,11
 328 132 328 132 304 132 c 2,12,-1
 231 132 l 2,13,14
 220 132 220 132 214 138 c 128,-1,15
 208 144 208 144 210 155 c 2,16,-1
 221 222 l 2,17,18
 224 246 224 246 249 246 c 2,4,-1
300 570 m 2,20,-1
 374 570 l 2,21,22
 394 570 394 570 394 552 c 0,23,24
 394 548 394 548 394 545 c 2,25,-1
 383 478 l 2,26,27
 380 455 380 455 355 455 c 2,28,-1
 282 455 l 2,29,30
 271 455 271 455 265.5 461.5 c 128,-1,31
 260 468 260 468 262 478 c 2,32,-1
 272 545 l 2,33,19
 275 570 275 570 300 570 c 2,20,-1
EndSplineSet
EndChar

StartChar: oslash
Encoding: 248 248 185
Width: 559
GlyphClass: 2
Flags: W
LayerCount: 2
Fore
SplineSet
93 69 m 1,0,1
 71 108 71 108 71 163 c 128,-1,2
 71 218 71 218 81.5 285.5 c 128,-1,3
 92 353 92 353 112 404 c 128,-1,4
 132 455 132 455 167 484.5 c 128,-1,5
 202 514 202 514 247.5 525 c 128,-1,6
 293 536 293 536 376.5 536 c 128,-1,7
 460 536 460 536 509 505 c 1,8,-1
 534 531 l 1,9,-1
 611 531 l 1,10,-1
 547 465 l 1,11,12
 573 422 573 422 573 362 c 128,-1,13
 573 302 573 302 562 235.5 c 128,-1,14
 551 169 551 169 532.5 122 c 128,-1,15
 514 75 514 75 480.5 46 c 128,-1,16
 447 17 447 17 401 6 c 128,-1,17
 355 -5 355 -5 284 -5 c 0,18,19
 181 -5 181 -5 130 29 c 1,20,-1
 102 0 l 1,21,-1
 27 0 l 1,22,-1
 93 69 l 1,0,1
413 406 m 1,23,24
 397 424 397 424 350 424 c 128,-1,25
 303 424 303 424 281.5 412.5 c 128,-1,26
 260 401 260 401 245.5 366.5 c 128,-1,27
 231 332 231 332 223 283.5 c 128,-1,28
 215 235 215 235 215 220 c 128,-1,29
 215 205 215 205 218 196 c 1,30,-1
 413 406 l 1,23,24
227 128 m 1,31,32
 242 108 242 108 286 108 c 128,-1,33
 330 108 330 108 347 111.5 c 128,-1,34
 364 115 364 115 380 130.5 c 128,-1,35
 396 146 396 146 405 175.5 c 128,-1,36
 414 205 414 205 421 247 c 128,-1,37
 428 289 428 289 428 309 c 128,-1,38
 428 329 428 329 425 340 c 1,39,-1
 227 128 l 1,31,32
EndSplineSet
Substitution2: "'smcp' Lowercase to Small Capitals lookup 1 subtable" oslash.smcp
EndChar

StartChar: ugrave
Encoding: 249 249 186
Width: 549
GlyphClass: 2
Flags: W
LayerCount: 2
Fore
SplineSet
215 736 m 1,0,-1
 334 736 l 1,1,-1
 411 598 l 1,2,-1
 320 598 l 1,3,-1
 215 736 l 1,0,-1
206 175 m 2,4,5
 203 162 203 162 203 146 c 128,-1,6
 203 130 203 130 213.5 117 c 128,-1,7
 224 104 224 104 252.5 104 c 128,-1,8
 281 104 281 104 303 109 c 0,9,10
 342 117 342 117 389 150 c 1,11,-1
 449 531 l 1,12,-1
 589 531 l 1,13,-1
 504 0 l 1,14,-1
 392 0 l 1,15,-1
 374 56 l 1,16,17
 325 23 325 23 287.5 7 c 128,-1,18
 250 -9 250 -9 195 -9 c 0,19,20
 61 -9 61 -9 61 123 c 0,21,22
 61 148 61 148 66 178 c 2,23,-1
 122 531 l 1,24,-1
 262 531 l 1,25,-1
 206 175 l 2,4,5
EndSplineSet
AlternateSubs2: "'salt' Stylistic Alternatives in Latin lookup 16 subtable" ugrave.salt
Substitution2: "'smcp' Lowercase to Small Capitals lookup 1 subtable" ugrave.smcp
EndChar

StartChar: uacute
Encoding: 250 250 187
Width: 549
GlyphClass: 2
Flags: W
LayerCount: 2
Fore
SplineSet
320 598 m 1,0,-1
 433 736 l 1,1,-1
 555 736 l 1,2,-1
 411 598 l 1,3,-1
 320 598 l 1,0,-1
206 175 m 2,4,5
 203 162 203 162 203 146 c 128,-1,6
 203 130 203 130 213.5 117 c 128,-1,7
 224 104 224 104 252.5 104 c 128,-1,8
 281 104 281 104 303 109 c 0,9,10
 342 117 342 117 389 150 c 1,11,-1
 449 531 l 1,12,-1
 589 531 l 1,13,-1
 504 0 l 1,14,-1
 392 0 l 1,15,-1
 374 56 l 1,16,17
 325 23 325 23 287.5 7 c 128,-1,18
 250 -9 250 -9 195 -9 c 0,19,20
 61 -9 61 -9 61 123 c 0,21,22
 61 148 61 148 66 178 c 2,23,-1
 122 531 l 1,24,-1
 262 531 l 1,25,-1
 206 175 l 2,4,5
EndSplineSet
AlternateSubs2: "'salt' Stylistic Alternatives in Latin lookup 16 subtable" uacute.salt
Substitution2: "'smcp' Lowercase to Small Capitals lookup 1 subtable" uacute.smcp
EndChar

StartChar: ucircumflex
Encoding: 251 251 188
Width: 549
GlyphClass: 2
Flags: W
LayerCount: 2
Fore
SplineSet
212 598 m 1,0,-1
 341 733 l 1,1,-1
 445 733 l 1,2,-1
 520 598 l 1,3,-1
 430 598 l 1,4,-1
 387 663 l 1,5,-1
 315 598 l 1,6,-1
 212 598 l 1,0,-1
206 175 m 2,7,8
 203 162 203 162 203 146 c 128,-1,9
 203 130 203 130 213.5 117 c 128,-1,10
 224 104 224 104 252.5 104 c 128,-1,11
 281 104 281 104 303 109 c 0,12,13
 342 117 342 117 389 150 c 1,14,-1
 449 531 l 1,15,-1
 589 531 l 1,16,-1
 504 0 l 1,17,-1
 392 0 l 1,18,-1
 374 56 l 1,19,20
 325 23 325 23 287.5 7 c 128,-1,21
 250 -9 250 -9 195 -9 c 0,22,23
 61 -9 61 -9 61 123 c 0,24,25
 61 148 61 148 66 178 c 2,26,-1
 122 531 l 1,27,-1
 262 531 l 1,28,-1
 206 175 l 2,7,8
EndSplineSet
AlternateSubs2: "'salt' Stylistic Alternatives in Latin lookup 16 subtable" ucircumflex.salt
Substitution2: "'smcp' Lowercase to Small Capitals lookup 1 subtable" ucircumflex.smcp
EndChar

StartChar: udieresis
Encoding: 252 252 189
Width: 549
GlyphClass: 2
Flags: W
LayerCount: 2
Fore
SplineSet
257.5 715 m 128,-1,1
 282 715 282 715 294.5 700 c 128,-1,2
 307 685 307 685 307 673 c 0,3,4
 307 637 307 637 285 617.5 c 128,-1,5
 263 598 263 598 238.5 598 c 128,-1,6
 214 598 214 598 201 613.5 c 128,-1,7
 188 629 188 629 188 640 c 0,8,9
 188 677 188 677 210.5 696 c 128,-1,0
 233 715 233 715 257.5 715 c 128,-1,1
512.5 715 m 128,-1,11
 537 715 537 715 549.5 700 c 128,-1,12
 562 685 562 685 562 673 c 0,13,14
 562 637 562 637 540 617.5 c 128,-1,15
 518 598 518 598 493.5 598 c 128,-1,16
 469 598 469 598 456 613.5 c 128,-1,17
 443 629 443 629 443 640 c 0,18,19
 443 677 443 677 465.5 696 c 128,-1,10
 488 715 488 715 512.5 715 c 128,-1,11
206 175 m 2,20,21
 203 162 203 162 203 146 c 128,-1,22
 203 130 203 130 213.5 117 c 128,-1,23
 224 104 224 104 252.5 104 c 128,-1,24
 281 104 281 104 303 109 c 0,25,26
 342 117 342 117 389 150 c 1,27,-1
 449 531 l 1,28,-1
 589 531 l 1,29,-1
 504 0 l 1,30,-1
 392 0 l 1,31,-1
 374 56 l 1,32,33
 325 23 325 23 287.5 7 c 128,-1,34
 250 -9 250 -9 195 -9 c 0,35,36
 61 -9 61 -9 61 123 c 0,37,38
 61 148 61 148 66 178 c 2,39,-1
 122 531 l 1,40,-1
 262 531 l 1,41,-1
 206 175 l 2,20,21
EndSplineSet
AlternateSubs2: "'salt' Stylistic Alternatives in Latin lookup 16 subtable" udieresis.salt
Substitution2: "'smcp' Lowercase to Small Capitals lookup 1 subtable" udieresis.smcp
EndChar

StartChar: yacute
Encoding: 253 253 190
Width: 563
GlyphClass: 2
Flags: W
LayerCount: 2
Fore
SplineSet
314 594 m 1,0,-1
 427 732 l 1,1,-1
 549 732 l 1,2,-1
 405 594 l 1,3,-1
 314 594 l 1,0,-1
607 491 m 0,4,5
 607 437 607 437 579 375 c 2,6,-1
 408 0 l 2,7,8
 326 -180 326 -180 208 -247 c 1,9,10
 153 -277 153 -277 92 -288 c 1,11,-1
 92 -190 l 1,12,13
 153 -157 153 -157 192.5 -110 c 128,-1,14
 232 -63 232 -63 264 0 c 1,15,16
 206 0 206 0 169.5 33.5 c 128,-1,17
 133 67 133 67 126 135 c 2,18,-1
 84 531 l 1,19,-1
 229 531 l 1,20,-1
 262 159 l 2,21,22
 266 123 266 123 313 120 c 1,23,-1
 448 421 l 1,24,25
 466 464 466 464 473 532 c 1,26,-1
 603 532 l 1,27,28
 607 512 607 512 607 491 c 0,4,5
EndSplineSet
Substitution2: "'smcp' Lowercase to Small Capitals lookup 1 subtable" yacute.smcp
EndChar

StartChar: thorn
Encoding: 254 254 191
Width: 554
GlyphClass: 2
Flags: W
LayerCount: 2
Fore
SplineSet
348 515.5 m 128,-1,1
 395 534 395 534 445 534 c 128,-1,2
 495 534 495 534 530 496 c 0,3,4
 575 446 575 446 575 340 c 0,5,6
 575 298 575 298 568 250.5 c 128,-1,7
 561 203 561 203 552.5 169.5 c 128,-1,8
 544 136 544 136 528 99 c 128,-1,9
 512 62 512 62 490 39 c 0,10,11
 439 -13 439 -13 351 -13 c 0,12,13
 314 -13 314 -13 271 -3.5 c 128,-1,14
 228 6 228 6 197 24 c 1,15,-1
 150 -270 l 1,16,-1
 10 -270 l 1,17,-1
 177 782 l 1,18,-1
 317 782 l 1,19,-1
 268 473 l 1,20,0
 301 497 301 497 348 515.5 c 128,-1,1
433 329 m 0,21,22
 433 415 433 415 385 415 c 0,23,24
 318 415 318 415 253 380 c 1,25,-1
 212 116 l 1,26,27
 252 100 252 100 329 97 c 1,28,29
 385 97 385 97 410 176 c 0,30,31
 420 210 420 210 426.5 255 c 128,-1,32
 433 300 433 300 433 329 c 0,21,22
EndSplineSet
Substitution2: "'smcp' Lowercase to Small Capitals lookup 1 subtable" thorn.smcp
EndChar

StartChar: ydieresis
Encoding: 255 255 192
Width: 563
GlyphClass: 2
Flags: W
LayerCount: 2
Fore
SplineSet
252.5 700 m 128,-1,1
 277 700 277 700 290 685 c 128,-1,2
 303 670 303 670 303 658 c 0,3,4
 303 622 303 622 280.5 602.5 c 128,-1,5
 258 583 258 583 238 583 c 128,-1,6
 218 583 218 583 206 591 c 0,7,8
 179 608 179 608 183.5 637 c 128,-1,9
 188 666 188 666 208 683 c 128,-1,0
 228 700 228 700 252.5 700 c 128,-1,1
507.5 700 m 128,-1,11
 532 700 532 700 545 685 c 128,-1,12
 558 670 558 670 558 658 c 0,13,14
 558 622 558 622 535.5 602.5 c 128,-1,15
 513 583 513 583 489 583 c 128,-1,16
 465 583 465 583 452 598.5 c 128,-1,17
 439 614 439 614 439 625 c 0,18,19
 439 662 439 662 461 681 c 128,-1,10
 483 700 483 700 507.5 700 c 128,-1,11
607 491 m 0,20,21
 607 437 607 437 579 375 c 2,22,-1
 408 0 l 2,23,24
 326 -180 326 -180 208 -247 c 1,25,26
 153 -277 153 -277 92 -288 c 1,27,-1
 92 -190 l 1,28,29
 153 -157 153 -157 192.5 -110 c 128,-1,30
 232 -63 232 -63 264 0 c 1,31,32
 206 0 206 0 169.5 33.5 c 128,-1,33
 133 67 133 67 126 135 c 2,34,-1
 84 531 l 1,35,-1
 229 531 l 1,36,-1
 262 159 l 2,37,38
 266 123 266 123 313 120 c 1,39,-1
 448 421 l 1,40,41
 466 464 466 464 473 532 c 1,42,-1
 603 532 l 1,43,44
 607 512 607 512 607 491 c 0,20,21
EndSplineSet
Substitution2: "'smcp' Lowercase to Small Capitals lookup 1 subtable" ydieresis.smcp
EndChar

StartChar: Amacron
Encoding: 256 256 193
Width: 688
GlyphClass: 2
Flags: W
LayerCount: 2
Fore
SplineSet
341 797 m 1,0,-1
 354 876 l 1,1,-1
 646 876 l 1,2,-1
 633 797 l 1,3,-1
 341 797 l 1,0,-1
34 0 m 1,4,-1
 397 732 l 1,5,-1
 556 732 l 1,6,-1
 678 0 l 1,7,-1
 535 0 l 1,8,-1
 506 162 l 1,9,-1
 269 162 l 1,10,-1
 189 0 l 1,11,-1
 34 0 l 1,4,-1
325 286 m 1,12,-1
 492 286 l 1,13,-1
 451 552 l 1,14,-1
 325 286 l 1,12,-1
EndSplineSet
Substitution2: "'c2sc' Capitals to Small Capitals in Latin lookup 2 subtable" amacron.smcp
EndChar

StartChar: amacron
Encoding: 257 257 194
Width: 542
GlyphClass: 2
Flags: W
LayerCount: 2
Fore
SplineSet
207 602 m 1,0,-1
 220 681 l 1,1,-1
 512 681 l 1,2,-1
 499 602 l 1,3,-1
 207 602 l 1,0,-1
268.5 535 m 128,-1,5
 293 539 293 539 316 540.5 c 128,-1,6
 339 542 339 542 373 542 c 128,-1,7
 407 542 407 542 474 527.5 c 128,-1,8
 541 513 541 513 576 479 c 1,9,-1
 506 1 l 1,10,-1
 398 1 l 1,11,-1
 377 56 l 1,12,13
 349 21 349 21 280 3 c 0,14,15
 247 -6 247 -6 211.5 -6 c 128,-1,16
 176 -6 176 -6 145 10.5 c 128,-1,17
 114 27 114 27 92 63 c 0,18,19
 66 107 66 107 66 169.5 c 128,-1,20
 66 232 66 232 77.5 296 c 128,-1,21
 89 360 89 360 110.5 406 c 128,-1,22
 132 452 132 452 155.5 476.5 c 128,-1,23
 179 501 179 501 211.5 516 c 128,-1,4
 244 531 244 531 268.5 535 c 128,-1,5
427 419 m 1,24,25
 392 431 392 431 363.5 431 c 128,-1,26
 335 431 335 431 317.5 427.5 c 128,-1,27
 300 424 300 424 287 418 c 128,-1,28
 274 412 274 412 259 397 c 0,29,30
 228 368 228 368 213 271 c 0,31,32
 206 230 206 230 206 201.5 c 128,-1,33
 206 173 206 173 211 154 c 0,34,35
 223 113 223 113 265.5 113 c 128,-1,36
 308 113 308 113 335.5 125 c 128,-1,37
 363 137 363 137 389 163 c 1,38,-1
 427 419 l 1,24,25
EndSplineSet
AlternateSubs2: "'salt' Stylistic Alternatives in Latin lookup 16 subtable" amacron.salt
Substitution2: "'smcp' Lowercase to Small Capitals lookup 1 subtable" amacron.smcp
EndChar

StartChar: Abreve
Encoding: 258 258 195
Width: 688
GlyphClass: 2
Flags: W
LayerCount: 2
Fore
SplineSet
448 910 m 1,0,1
 448 905 448 905 448 892.5 c 128,-1,2
 448 880 448 880 459.5 866.5 c 128,-1,3
 471 853 471 853 496 853 c 0,4,5
 497 853 497 853 498 853 c 0,6,7
 555 853 555 853 562 910 c 1,8,-1
 619 910 l 1,9,10
 613 855 613 855 581 826 c 128,-1,11
 549 797 549 797 498.5 797 c 128,-1,12
 448 797 448 797 419 826 c 128,-1,13
 390 855 390 855 390 897 c 0,14,15
 390 903 390 903 391 910 c 1,16,-1
 448 910 l 1,0,1
34 0 m 1,17,-1
 397 732 l 1,18,-1
 556 732 l 1,19,-1
 678 0 l 1,20,-1
 535 0 l 1,21,-1
 506 162 l 1,22,-1
 269 162 l 1,23,-1
 189 0 l 1,24,-1
 34 0 l 1,17,-1
325 286 m 1,25,-1
 492 286 l 1,26,-1
 451 552 l 1,27,-1
 325 286 l 1,25,-1
EndSplineSet
Substitution2: "'c2sc' Capitals to Small Capitals in Latin lookup 2 subtable" abreve.smcp
EndChar

StartChar: abreve
Encoding: 259 259 196
Width: 542
GlyphClass: 2
Flags: W
LayerCount: 2
Fore
SplineSet
288 716 m 1,0,1
 287 711 287 711 287 698.5 c 128,-1,2
 287 686 287 686 299 672.5 c 128,-1,3
 311 659 311 659 336 659 c 2,4,5
 336 659 336 659 337 659 c 0,6,7
 394 659 394 659 401 716 c 1,8,-1
 459 716 l 1,9,10
 453 661 453 661 420.5 632 c 128,-1,11
 388 603 388 603 337.5 603 c 128,-1,12
 287 603 287 603 258.5 632 c 128,-1,13
 230 661 230 661 230 703 c 0,14,15
 230 709 230 709 230 716 c 1,16,-1
 288 716 l 1,0,1
268.5 535 m 128,-1,18
 293 539 293 539 316 540.5 c 128,-1,19
 339 542 339 542 373 542 c 128,-1,20
 407 542 407 542 474 527.5 c 128,-1,21
 541 513 541 513 576 479 c 1,22,-1
 506 1 l 1,23,-1
 398 1 l 1,24,-1
 377 56 l 1,25,26
 349 21 349 21 280 3 c 0,27,28
 247 -6 247 -6 211.5 -6 c 128,-1,29
 176 -6 176 -6 145 10.5 c 128,-1,30
 114 27 114 27 92 63 c 0,31,32
 66 107 66 107 66 169.5 c 128,-1,33
 66 232 66 232 77.5 296 c 128,-1,34
 89 360 89 360 110.5 406 c 128,-1,35
 132 452 132 452 155.5 476.5 c 128,-1,36
 179 501 179 501 211.5 516 c 128,-1,17
 244 531 244 531 268.5 535 c 128,-1,18
427 419 m 1,37,38
 392 431 392 431 363.5 431 c 128,-1,39
 335 431 335 431 317.5 427.5 c 128,-1,40
 300 424 300 424 287 418 c 128,-1,41
 274 412 274 412 259 397 c 0,42,43
 228 368 228 368 213 271 c 0,44,45
 206 230 206 230 206 201.5 c 128,-1,46
 206 173 206 173 211 154 c 0,47,48
 223 113 223 113 265.5 113 c 128,-1,49
 308 113 308 113 335.5 125 c 128,-1,50
 363 137 363 137 389 163 c 1,51,-1
 427 419 l 1,37,38
EndSplineSet
Substitution2: "'smcp' Lowercase to Small Capitals lookup 1 subtable" abreve.smcp
EndChar

StartChar: Aogonek
Encoding: 260 260 197
Width: 732
GlyphClass: 2
Flags: W
LayerCount: 2
Fore
SplineSet
625 -75 m 0,0,1
 625 -114 625 -114 675 -109 c 1,2,-1
 663 -186 l 1,3,4
 649 -189 649 -189 634 -189 c 128,-1,5
 619 -189 619 -189 596.5 -181.5 c 128,-1,6
 574 -174 574 -174 558.5 -150.5 c 128,-1,7
 543 -127 543 -127 543 -101 c 128,-1,8
 543 -75 543 -75 564 -47.5 c 128,-1,9
 585 -20 585 -20 629 1 c 1,10,-1
 684 1 l 1,11,12
 625 -40 625 -40 625 -75 c 0,0,1
80 0 m 1,13,-1
 443 732 l 1,14,-1
 602 732 l 1,15,-1
 724 0 l 1,16,-1
 581 0 l 1,17,-1
 552 162 l 1,18,-1
 315 162 l 1,19,-1
 235 0 l 1,20,-1
 80 0 l 1,13,-1
371 286 m 1,21,-1
 538 286 l 1,22,-1
 497 552 l 1,23,-1
 371 286 l 1,21,-1
EndSplineSet
Substitution2: "'c2sc' Capitals to Small Capitals in Latin lookup 2 subtable" aogonek.smcp
EndChar

StartChar: aogonek
Encoding: 261 261 198
Width: 513
GlyphClass: 2
Flags: W
LayerCount: 2
Fore
SplineSet
410 -75 m 0,0,1
 410 -114 410 -114 461 -109 c 1,2,-1
 448 -186 l 1,3,4
 435 -189 435 -189 419.5 -189 c 128,-1,5
 404 -189 404 -189 381.5 -181.5 c 128,-1,6
 359 -174 359 -174 343.5 -150.5 c 128,-1,7
 328 -127 328 -127 328 -101 c 128,-1,8
 328 -75 328 -75 349 -47.5 c 128,-1,9
 370 -20 370 -20 414 1 c 1,10,-1
 470 1 l 1,11,12
 410 -40 410 -40 410 -75 c 0,0,1
259 535 m 128,-1,14
 284 539 284 539 307 540.5 c 128,-1,15
 330 542 330 542 363.5 542 c 128,-1,16
 397 542 397 542 464 527.5 c 128,-1,17
 531 513 531 513 566 479 c 1,18,-1
 496 1 l 1,19,-1
 388 1 l 1,20,-1
 367 56 l 1,21,22
 347 31 347 31 300 12.5 c 128,-1,23
 253 -6 253 -6 209.5 -6 c 128,-1,24
 166 -6 166 -6 135 10.5 c 128,-1,25
 104 27 104 27 82 63 c 0,26,27
 56 107 56 107 56 169.5 c 128,-1,28
 56 232 56 232 67.5 296 c 128,-1,29
 79 360 79 360 101 406 c 128,-1,30
 123 452 123 452 146 476.5 c 128,-1,31
 169 501 169 501 201.5 516 c 128,-1,13
 234 531 234 531 259 535 c 128,-1,14
417 419 m 1,32,33
 383 431 383 431 354 431 c 128,-1,34
 325 431 325 431 311 428.5 c 128,-1,35
 297 426 297 426 288.5 423 c 128,-1,36
 280 420 280 420 268 413.5 c 128,-1,37
 256 407 256 407 247.5 396.5 c 128,-1,38
 239 386 239 386 231 370 c 0,39,40
 214 339 214 339 205 284.5 c 128,-1,41
 196 230 196 230 196 201.5 c 128,-1,42
 196 173 196 173 201 154 c 0,43,44
 213 113 213 113 257 113 c 0,45,46
 310 113 310 113 346 136 c 0,47,48
 362 146 362 146 379 163 c 1,49,-1
 417 419 l 1,32,33
EndSplineSet
AlternateSubs2: "'salt' Stylistic Alternatives in Latin lookup 16 subtable" aogonek.salt
Substitution2: "'smcp' Lowercase to Small Capitals lookup 1 subtable" aogonek.smcp
EndChar

StartChar: Cacute
Encoding: 262 262 199
Width: 571
GlyphClass: 2
Flags: W
LayerCount: 2
Fore
SplineSet
407 800 m 1,0,-1
 519 938 l 1,1,-1
 642 938 l 1,2,-1
 498 800 l 1,3,-1
 407 800 l 1,0,-1
657 704 m 1,4,-1
 640 595 l 1,5,6
 515 611 515 611 429 611 c 0,7,8
 425 611 425 611 422.5 611 c 128,-1,9
 420 611 420 611 411 611 c 128,-1,10
 402 611 402 611 394 610.5 c 128,-1,11
 386 610 386 610 371.5 608 c 128,-1,12
 357 606 357 606 348.5 601.5 c 128,-1,13
 340 597 340 597 327.5 589 c 128,-1,14
 315 581 315 581 306.5 569 c 128,-1,15
 298 557 298 557 287.5 538 c 128,-1,16
 277 519 277 519 270 495 c 0,17,18
 251 438 251 438 240 371.5 c 128,-1,19
 229 305 229 305 229 259.5 c 128,-1,20
 229 214 229 214 240 185 c 0,21,22
 262 126 262 126 341 123 c 0,23,24
 352 123 352 123 398 123 c 128,-1,25
 444 123 444 123 568 132 c 1,26,-1
 551 22 l 1,27,28
 498 4 498 4 444 -1 c 128,-1,29
 390 -6 390 -6 348.5 -6 c 128,-1,30
 307 -6 307 -6 291 -6 c 0,31,32
 223 -5 223 -5 177.5 26 c 128,-1,33
 132 57 132 57 113 111 c 0,34,35
 89 179 89 179 89 251 c 128,-1,36
 89 323 89 323 102 400 c 128,-1,37
 115 477 115 477 136 540 c 128,-1,38
 157 603 157 603 193 649 c 1,39,40
 261 740 261 740 402 740 c 128,-1,41
 543 740 543 740 657 704 c 1,4,-1
EndSplineSet
Substitution2: "'c2sc' Capitals to Small Capitals in Latin lookup 2 subtable" cacute.smcp
EndChar

StartChar: cacute
Encoding: 263 263 200
Width: 492
GlyphClass: 2
Flags: W
LayerCount: 2
Fore
SplineSet
309 599 m 1,0,-1
 421 737 l 1,1,-1
 544 737 l 1,2,-1
 400 599 l 1,3,-1
 309 599 l 1,0,-1
240 535 m 128,-1,5
 264 540 264 540 304 540 c 128,-1,6
 344 540 344 540 415 531.5 c 128,-1,7
 486 523 486 523 536 507 c 1,8,-1
 523 420 l 1,9,10
 428 427 428 427 372.5 427 c 128,-1,11
 317 427 317 427 304.5 425 c 128,-1,12
 292 423 292 423 277.5 415 c 128,-1,13
 263 407 263 407 254 389 c 0,14,15
 233 348 233 348 218 263 c 1,16,17
 210 198 210 198 210 173.5 c 128,-1,18
 210 149 210 149 220 133.5 c 128,-1,19
 230 118 230 118 245.5 112.5 c 128,-1,20
 261 107 261 107 295 107 c 0,21,22
 370 107 370 107 454 114 c 2,23,-1
 482 116 l 1,24,-1
 468 28 l 1,25,26
 411 7 411 7 360 0.5 c 128,-1,27
 309 -6 309 -6 268.5 -6 c 128,-1,28
 228 -6 228 -6 216 -5 c 1,29,30
 134 -5 134 -5 95 66 c 0,31,32
 70 110 70 110 70 168.5 c 128,-1,33
 70 227 70 227 80.5 288 c 128,-1,34
 91 349 91 349 108 396.5 c 128,-1,35
 125 444 125 444 144 471.5 c 128,-1,36
 163 499 163 499 189.5 514.5 c 128,-1,4
 216 530 216 530 240 535 c 128,-1,5
EndSplineSet
Substitution2: "'smcp' Lowercase to Small Capitals lookup 1 subtable" cacute.smcp
EndChar

StartChar: Ccircumflex
Encoding: 264 264 201
Width: 571
GlyphClass: 2
Flags: W
LayerCount: 2
Fore
SplineSet
288 800 m 1,0,-1
 418 936 l 1,1,-1
 522 936 l 1,2,-1
 597 800 l 1,3,-1
 506 800 l 1,4,-1
 464 865 l 1,5,-1
 391 800 l 1,6,-1
 288 800 l 1,0,-1
657 704 m 1,7,-1
 640 595 l 1,8,9
 515 611 515 611 429 611 c 0,10,11
 425 611 425 611 422.5 611 c 128,-1,12
 420 611 420 611 411 611 c 128,-1,13
 402 611 402 611 394 610.5 c 128,-1,14
 386 610 386 610 371.5 608 c 128,-1,15
 357 606 357 606 348.5 601.5 c 128,-1,16
 340 597 340 597 327.5 589 c 128,-1,17
 315 581 315 581 306.5 569 c 128,-1,18
 298 557 298 557 287.5 538 c 128,-1,19
 277 519 277 519 270 495 c 0,20,21
 251 438 251 438 240 371.5 c 128,-1,22
 229 305 229 305 229 259.5 c 128,-1,23
 229 214 229 214 240 185 c 0,24,25
 262 126 262 126 341 123 c 0,26,27
 352 123 352 123 398 123 c 128,-1,28
 444 123 444 123 568 132 c 1,29,-1
 551 22 l 1,30,31
 498 4 498 4 444 -1 c 128,-1,32
 390 -6 390 -6 348.5 -6 c 128,-1,33
 307 -6 307 -6 291 -6 c 0,34,35
 223 -5 223 -5 177.5 26 c 128,-1,36
 132 57 132 57 113 111 c 0,37,38
 89 179 89 179 89 251 c 128,-1,39
 89 323 89 323 102 400 c 128,-1,40
 115 477 115 477 136 540 c 128,-1,41
 157 603 157 603 193 649 c 1,42,43
 261 740 261 740 402 740 c 128,-1,44
 543 740 543 740 657 704 c 1,7,-1
EndSplineSet
Substitution2: "'c2sc' Capitals to Small Capitals in Latin lookup 2 subtable" ccircumflex.smcp
EndChar

StartChar: ccircumflex
Encoding: 265 265 202
Width: 492
GlyphClass: 2
Flags: W
LayerCount: 2
Fore
SplineSet
199 598 m 1,0,-1
 328 734 l 1,1,-1
 432 734 l 1,2,-1
 508 598 l 1,3,-1
 417 598 l 1,4,-1
 375 663 l 1,5,-1
 302 598 l 1,6,-1
 199 598 l 1,0,-1
239 535 m 128,-1,8
 263 540 263 540 303 540 c 128,-1,9
 343 540 343 540 414.5 531.5 c 128,-1,10
 486 523 486 523 536 507 c 1,11,-1
 522 420 l 1,12,13
 427 427 427 427 371.5 427 c 128,-1,14
 316 427 316 427 303.5 425 c 128,-1,15
 291 423 291 423 276.5 415 c 128,-1,16
 262 407 262 407 253 389 c 0,17,18
 232 348 232 348 218 263 c 1,19,20
 209 198 209 198 209 173.5 c 128,-1,21
 209 149 209 149 219 133.5 c 128,-1,22
 229 118 229 118 244.5 112.5 c 128,-1,23
 260 107 260 107 294 107 c 0,24,25
 369 107 369 107 453 114 c 2,26,-1
 481 116 l 1,27,-1
 467 28 l 1,28,29
 410 7 410 7 359 0.5 c 128,-1,30
 308 -6 308 -6 267.5 -6 c 128,-1,31
 227 -6 227 -6 215 -5 c 1,32,33
 133 -5 133 -5 94 66 c 0,34,35
 69 110 69 110 69 168.5 c 128,-1,36
 69 227 69 227 79.5 288 c 128,-1,37
 90 349 90 349 107 396.5 c 128,-1,38
 124 444 124 444 143 471.5 c 128,-1,39
 162 499 162 499 188.5 514.5 c 128,-1,7
 215 530 215 530 239 535 c 128,-1,8
EndSplineSet
Substitution2: "'smcp' Lowercase to Small Capitals lookup 1 subtable" ccircumflex.smcp
EndChar

